<svg width="40" height="40" viewBox="0 0 40 40" fill="none" xmlns="http://www.w3.org/2000/svg">
<rect width="40" height="40" rx="10" fill="#8B7C67"/>
<path d="M28.6429 15.6071H15.0238C14.8154 15.6071 14.6156 15.5225 14.4682 15.3718C14.3209 15.2211 14.2381 15.0167 14.2381 14.8036C14.2381 14.5905 14.3209 14.3861 14.4682 14.2354C14.6156 14.0847 14.8154 14 15.0238 14H28.6429C28.8512 14 29.0511 14.0847 29.1984 14.2354C29.3458 14.3861 29.4286 14.5905 29.4286 14.8036C29.4286 15.0167 29.3458 15.2211 29.1984 15.3718C29.0511 15.5225 28.8512 15.6071 28.6429 15.6071ZM29.4286 21.2321C29.4286 21.019 29.3458 20.8146 29.1984 20.6639C29.0511 20.5132 28.8512 20.4286 28.6429 20.4286H9.78571C9.57733 20.4286 9.37748 20.5132 9.23013 20.6639C9.08278 20.8146 9 21.019 9 21.2321C9 21.4453 9.08278 21.6497 9.23013 21.8004C9.37748 21.9511 9.57733 22.0357 9.78571 22.0357H28.6429C28.8512 22.0357 29.0511 21.9511 29.1984 21.8004C29.3458 21.6497 29.4286 21.4453 29.4286 21.2321ZM29.4286 27.6607C29.4286 27.4476 29.3458 27.2432 29.1984 27.0925C29.0511 26.9418 28.8512 26.8571 28.6429 26.8571H19.2143C19.0059 26.8571 18.8061 26.9418 18.6587 27.0925C18.5114 27.2432 18.4286 27.4476 18.4286 27.6607C18.4286 27.8738 18.5114 28.0782 18.6587 28.2289C18.8061 28.3796 19.0059 28.4643 19.2143 28.4643H28.6429C28.8512 28.4643 29.0511 28.3796 29.1984 28.2289C29.3458 28.0782 29.4286 27.8738 29.4286 27.6607Z" fill="white"/>
</svg>
