<svg width="29" height="29" viewBox="0 0 29 29" fill="none" xmlns="http://www.w3.org/2000/svg">
<rect width="29" height="29" rx="6" fill="#72383D"/>
<path d="M18.3687 10.3254L17.4556 10.9387L16.8687 11.0774C16.8754 11.3532 16.8584 11.6533 16.8101 11.9172C16.772 12.1249 16.7197 12.2779 16.6675 12.3782L16.6157 12.4612C16.5914 12.4922 16.45 12.6715 16.5142 12.9211C16.5699 13.1377 16.7342 13.231 16.8091 13.2649C16.7789 13.4048 16.7348 13.5771 16.6812 13.7551C16.6206 13.9558 16.5523 14.1538 16.4907 14.3098C16.4598 14.388 16.4325 14.4501 16.4106 14.4944C16.383 14.5502 16.38 14.5448 16.4038 14.5178C16.2905 14.6457 16.2352 14.7879 16.2026 14.8889C16.1758 14.9722 16.1429 15.105 16.1294 15.1536C16.0912 15.2913 16.0525 15.3797 15.9663 15.4602C15.6743 15.7304 15.6953 16.0939 15.7104 16.2698C15.7308 16.5055 15.7617 16.6278 15.7583 16.8352C15.7552 16.9785 15.805 17.0991 15.8472 17.1741C15.8793 17.2311 15.9573 17.3511 16.1021 17.427L16.1177 17.4709C16.1859 17.6697 16.2673 17.9141 16.3862 18.1477V18.1467C16.4626 18.2982 16.5841 18.3908 16.6577 18.4387C16.7418 18.4934 16.8311 18.5342 16.9097 18.5608V18.5598C18.0585 18.9513 18.6481 19.3355 19.7778 19.8616C19.7797 19.907 19.781 19.9632 19.7778 20.0276C19.7777 20.0309 19.777 20.0341 19.7769 20.0374H8.80029C8.80009 19.9792 8.80139 19.9292 8.80518 19.8889C9.03441 19.767 9.34979 19.5826 9.63623 19.4172C10.0246 19.193 10.3554 19.0095 10.5122 18.9504L10.5112 18.9495C10.881 18.8119 11.2892 18.6699 11.6733 18.5208L11.6772 18.5198C11.8522 18.4502 12.021 18.3021 12.106 18.1155L12.1069 18.1135C12.201 17.904 12.2793 17.692 12.3491 17.4905V17.4895C12.3529 17.4785 12.3567 17.4676 12.3599 17.4583V17.4563C12.5043 17.4032 12.5982 17.3056 12.6392 17.2571C12.6955 17.1903 12.7748 17.0719 12.7983 16.9182C12.8441 16.6206 12.8789 16.3207 12.9019 16.0208L12.9009 16.0198C12.9111 15.8867 12.8787 15.7709 12.8442 15.6897C12.8078 15.6039 12.7529 15.5177 12.6802 15.4446L12.6782 15.4417C12.5258 15.2903 12.4253 15.1246 12.3638 14.9329L12.3149 14.7317C12.2867 14.5699 12.2239 14.4295 12.1812 14.3362L12.0854 14.1174C12.0334 13.9575 11.9451 13.5444 11.897 13.3108C11.9499 13.2638 11.984 13.2175 12.0015 13.1926C12.0519 13.1208 12.0978 13.0283 12.1196 12.9241L12.1304 12.8733V12.7424C12.1285 12.7137 12.1226 12.6698 12.1069 12.6194C12.0077 12.2944 11.8878 12.1248 11.7974 11.9963C11.7355 11.9085 11.7049 11.8665 11.6763 11.7366C11.6531 11.631 11.6392 11.5283 11.6313 11.427L11.2026 11.4426L11.4116 11.1331L10.2114 10.3245L14.2896 7.58228L18.3687 10.3254Z" stroke="white"/>
</svg>
