<svg width="29" height="29" viewBox="0 0 29 29" fill="none" xmlns="http://www.w3.org/2000/svg">
<path d="M0 6C0 2.68629 2.68629 0 6 0H23C26.3137 0 29 2.68629 29 6V23C29 26.3137 26.3137 29 23 29H6C2.68629 29 0 26.3137 0 23V6Z" fill="#72383D"/>
<path d="M13.94 13.0838H13.3591C13.3159 12.8675 13.2376 12.6677 13.1243 12.4844C13.0131 12.2991 12.8731 12.1374 12.7042 11.9994C12.5353 11.8614 12.3437 11.7543 12.1295 11.6781C11.9153 11.6019 11.6836 11.5638 11.4344 11.5638C11.0348 11.5638 10.6703 11.6678 10.3407 11.8758C10.0132 12.0838 9.75062 12.3897 9.55289 12.7934C9.35723 13.195 9.25939 13.6873 9.25939 14.2702C9.25939 14.8572 9.35723 15.3515 9.55289 15.7531C9.75062 16.1548 10.0132 16.4596 10.3407 16.6676C10.6703 16.8736 11.0348 16.9766 11.4344 16.9766C11.6836 16.9766 11.9153 16.9385 12.1295 16.8622C12.3437 16.786 12.5353 16.68 12.7042 16.544C12.8731 16.406 13.0131 16.2443 13.1243 16.059C13.2376 15.8736 13.3159 15.6728 13.3591 15.4565H13.94C13.8885 15.7469 13.7917 16.0178 13.6496 16.2691C13.5095 16.5183 13.3303 16.7366 13.112 16.924C12.8957 17.1115 12.6465 17.2577 12.3643 17.3627C12.0822 17.4678 11.7722 17.5203 11.4344 17.5203C10.903 17.5203 10.4313 17.3875 10.0194 17.1218C9.60748 16.854 9.28411 16.4771 9.04931 15.991C8.81657 15.5049 8.7002 14.9313 8.7002 14.2702C8.7002 13.609 8.81657 13.0354 9.04931 12.5493C9.28411 12.0632 9.60748 11.6873 10.0194 11.4217C10.4313 11.1539 10.903 11.02 11.4344 11.02C11.7722 11.02 12.0822 11.0725 12.3643 11.1776C12.6465 11.2806 12.8957 11.4268 13.112 11.6163C13.3303 11.8037 13.5095 12.022 13.6496 12.2713C13.7917 12.5205 13.8885 12.7913 13.94 13.0838Z" fill="white"/>
<path d="M15.3063 17.4338H14.7008L17.0024 11.1065H17.6203L19.922 17.4338H19.3165L17.333 11.8573H17.2897L15.3063 17.4338ZM15.7419 15.0085H18.8808V15.5276H15.7419V15.0085Z" fill="white"/>
</svg>
