<svg width="232" height="23" viewBox="0 0 232 23" fill="none" xmlns="http://www.w3.org/2000/svg">
<path d="M4.30355 22.6736H0L11.5305 0.389963H16.5078L20.6592 22.6736H16.3557L13.3671 4.95985H13.1932L4.30355 22.6736ZM5.89021 13.9364H17.6272L17.0838 17.1788H5.34683L5.89021 13.9364Z" fill="black"/>
<path d="M23.5907 22.6736L27.2857 0.389963H31.2198L29.8504 8.72456H30.0243C30.2851 8.31835 30.6365 7.88675 31.0785 7.42976C31.5277 6.96552 32.0964 6.57018 32.7847 6.24376C33.473 5.91009 34.3061 5.74325 35.2842 5.74325C36.5738 5.74325 37.6823 6.0733 38.6097 6.73339C39.537 7.38624 40.2 8.35462 40.5984 9.63853C40.9969 10.9152 41.044 12.482 40.7397 14.339C40.4354 16.1742 39.8776 17.7338 39.0661 19.0177C38.2547 20.3016 37.273 21.2809 36.121 21.9555C34.9691 22.6301 33.7374 22.9674 32.426 22.9674C31.4697 22.9674 30.7017 22.8078 30.1221 22.4886C29.5498 22.1694 29.1114 21.785 28.8072 21.3353C28.5029 20.8783 28.2819 20.4467 28.1442 20.0405H27.8943L27.4596 22.6736H23.5907ZM28.8398 14.3172C28.6659 15.398 28.6623 16.3447 28.8289 17.1571C29.0028 17.9695 29.3433 18.6042 29.8504 19.0612C30.3648 19.5109 31.0422 19.7358 31.8827 19.7358C32.7448 19.7358 33.5056 19.5037 34.1649 19.0394C34.8314 18.5679 35.382 17.926 35.8167 17.1136C36.2514 16.2939 36.5557 15.3618 36.7296 14.3172C36.8962 13.2799 36.8962 12.3587 36.7296 11.5535C36.5702 10.7484 36.2333 10.1173 35.7189 9.6603C35.2118 9.20331 34.5235 8.97481 33.6541 8.97481C32.8064 8.97481 32.0529 9.19605 31.3936 9.63853C30.7343 10.081 30.1873 10.7012 29.7526 11.4991C29.3179 12.297 29.0136 13.2364 28.8398 14.3172Z" fill="black"/>
<path d="M50.0179 23C48.3733 23 47.004 22.6373 45.91 21.9119C44.8232 21.1866 44.0589 20.1674 43.6169 18.8545C43.175 17.5415 43.0953 16.0182 43.3778 14.2846C43.6604 12.5727 44.2255 11.0748 45.0732 9.79086C45.9281 8.50694 47.004 7.51318 48.3008 6.80956C49.6049 6.09869 51.0648 5.74325 52.6804 5.74325C54.3251 5.74325 55.6908 6.10957 56.7775 6.8422C57.8643 7.56758 58.6286 8.58674 59.0706 9.89967C59.5198 11.2126 59.6031 12.7432 59.3205 14.4913C59.0452 16.196 58.4765 17.6866 57.6143 18.9633C56.7594 20.2399 55.6835 21.2337 54.3866 21.9446C53.0898 22.6482 51.6335 23 50.0179 23ZM50.3439 19.8446C51.2568 19.8446 52.0574 19.598 52.7456 19.1047C53.4412 18.6042 54.0099 17.9332 54.4519 17.0918C54.901 16.2431 55.2126 15.3001 55.3865 14.2628C55.5459 13.2618 55.5495 12.3551 55.3973 11.5427C55.2452 10.723 54.9192 10.0738 54.4193 9.59501C53.9266 9.10901 53.2419 8.86601 52.3653 8.86601C51.4524 8.86601 50.6446 9.11989 49.9418 9.62765C49.2463 10.1282 48.6776 10.8028 48.2356 11.6515C47.7937 12.4929 47.4894 13.4323 47.3227 14.4696C47.1561 15.4706 47.1489 16.3773 47.301 17.1897C47.4532 18.0021 47.7792 18.6477 48.2791 19.1265C48.779 19.6052 49.4673 19.8446 50.3439 19.8446Z" fill="black"/>
<path d="M73.1142 15.6447L74.7334 5.96087H78.6675L75.8854 22.6736H72.0709L72.5708 19.7032H72.3969C71.8753 20.6389 71.129 21.4042 70.1582 21.999C69.1946 22.5938 68.0861 22.8912 66.8327 22.8912C65.7387 22.8912 64.815 22.6482 64.0615 22.1622C63.308 21.6689 62.7719 20.9544 62.4531 20.0187C62.1416 19.0757 62.0945 17.9369 62.3118 16.6022L64.0941 5.96087H68.0281L66.3545 15.9928C66.1879 17.0519 66.34 17.8933 66.811 18.5172C67.2891 19.141 67.9992 19.4529 68.941 19.4529C69.5206 19.4529 70.1038 19.3115 70.6907 19.0286C71.2848 18.7457 71.8028 18.3249 72.2448 17.7664C72.6867 17.2006 72.9765 16.4934 73.1142 15.6447Z" fill="black"/>
<path d="M91.0483 5.96087L90.5376 9.00745H80.9524L81.4523 5.96087H91.0483ZM84.4735 1.95678H88.4075L85.7993 17.6467C85.7196 18.1762 85.7341 18.5824 85.8428 18.8653C85.9587 19.141 86.1434 19.3296 86.397 19.4311C86.6578 19.5327 86.9513 19.5835 87.2773 19.5835C87.5164 19.5835 87.741 19.5653 87.9511 19.5291C88.1612 19.4855 88.3278 19.4529 88.451 19.4311L88.6249 22.5104C88.3858 22.5829 88.0634 22.6627 87.6577 22.7497C87.2592 22.8368 86.781 22.8876 86.2231 22.9021C85.2233 22.9238 84.3539 22.7715 83.6149 22.4451C82.8832 22.1114 82.347 21.6 82.0065 20.9109C81.6733 20.2146 81.5972 19.3441 81.7783 18.2995L84.4735 1.95678Z" fill="black"/>
<path d="M219.366 8.92369H223.96V22.6595H219.366V8.92369Z" fill="#6B202A"/>
<path d="M227.406 14.6469H232V22.6595H227.406V14.6469Z" fill="#6B202A"/>
<path d="M212.475 6.63439H223.96V10.0683H212.475V6.63439Z" fill="#6B202A"/>
<path d="M102.123 22.6595C102.037 22.6595 101.994 22.6061 101.994 22.4992V4.23062H97.8136C97.7064 4.23062 97.6528 4.17721 97.6528 4.07037L97.6849 0.480752C97.6849 0.395285 97.7278 0.352551 97.8136 0.352551H110.034C110.141 0.352551 110.195 0.395285 110.195 0.480752V4.07037C110.195 4.17721 110.152 4.23062 110.066 4.23062H105.853L105.885 22.4992C105.885 22.6061 105.843 22.6595 105.757 22.6595H102.123Z" fill="black"/>
<path d="M111.733 22.6595C111.647 22.6595 111.605 22.6061 111.605 22.4992L111.669 0.480752C111.669 0.395285 111.712 0.352551 111.797 0.352551H118.294C119.451 0.352551 120.513 0.641003 121.477 1.21791C122.464 1.77344 123.246 2.53196 123.825 3.49347C124.404 4.43361 124.693 5.50195 124.693 6.69849C124.693 7.48906 124.575 8.20485 124.34 8.84585C124.104 9.46549 123.825 9.99966 123.503 10.4484C123.182 10.8757 122.892 11.1962 122.635 11.4099C123.793 12.6919 124.372 14.1982 124.372 15.9289L124.404 22.4992C124.404 22.6061 124.35 22.6595 124.243 22.6595H120.609C120.523 22.6595 120.48 22.6274 120.48 22.5633V15.9289C120.48 15.1597 120.202 14.4974 119.644 13.9418C119.108 13.3649 118.444 13.0765 117.65 13.0765H115.528L115.496 22.4992C115.496 22.6061 115.453 22.6595 115.367 22.6595H111.733ZM115.528 9.23045H118.294C118.958 9.23045 119.548 8.98473 120.062 8.4933C120.577 8.00186 120.834 7.40359 120.834 6.69849C120.834 6.01475 120.577 5.42716 120.062 4.93573C119.569 4.44429 118.98 4.19857 118.294 4.19857H115.528V9.23045Z" fill="black"/>
<path d="M132.857 22.98C131.721 22.98 130.671 22.6915 129.706 22.1146C128.741 21.5164 127.969 20.7258 127.39 19.7429C126.833 18.76 126.554 17.681 126.554 16.5058L126.619 0.480752C126.619 0.395285 126.661 0.352551 126.747 0.352551H130.349C130.435 0.352551 130.478 0.395285 130.478 0.480752V16.5058C130.478 17.2323 130.703 17.852 131.153 18.3648C131.625 18.8562 132.193 19.1019 132.857 19.1019C133.544 19.1019 134.112 18.8562 134.562 18.3648C135.034 17.852 135.269 17.2323 135.269 16.5058V0.480752C135.269 0.395285 135.312 0.352551 135.398 0.352551H139C139.086 0.352551 139.128 0.395285 139.128 0.480752L139.193 16.5058C139.193 17.7024 138.903 18.7921 138.325 19.775C137.767 20.7578 137.006 21.5377 136.041 22.1146C135.098 22.6915 134.037 22.98 132.857 22.98Z" fill="black"/>
<path d="M141.682 22.6595C141.596 22.6595 141.553 22.6061 141.553 22.4992L141.586 0.480752C141.586 0.395285 141.628 0.352551 141.714 0.352551H152.037C152.123 0.352551 152.166 0.405968 152.166 0.512802V4.10242C152.166 4.18789 152.123 4.23062 152.037 4.23062H145.445V9.23045H152.037C152.123 9.23045 152.166 9.27318 152.166 9.35865L152.198 12.9803C152.198 13.0658 152.155 13.1085 152.07 13.1085H145.445V18.7173H152.07C152.155 18.7173 152.198 18.7707 152.198 18.8776V22.5313C152.198 22.6167 152.155 22.6595 152.07 22.6595H141.682Z" fill="black"/>
<path d="M155.169 22.6595C154.997 22.6595 154.911 22.5847 154.911 22.4351L154.879 0.608953C154.879 0.438019 154.965 0.352551 155.136 0.352551H158.031L163.466 12.9803L163.305 0.608953C163.305 0.438019 163.401 0.352551 163.594 0.352551H166.778C166.907 0.352551 166.971 0.438019 166.971 0.608953L167.003 22.4672C167.003 22.5954 166.95 22.6595 166.842 22.6595H164.012L158.449 10.865L158.674 22.4031C158.674 22.574 158.577 22.6595 158.384 22.6595H155.169Z" fill="black"/>
<path d="M175.568 22.98C174.41 22.98 173.349 22.6915 172.384 22.1146C171.44 21.5164 170.679 20.7365 170.1 19.775C169.522 18.7921 169.232 17.7131 169.232 16.5379L169.264 6.37799C169.264 5.20281 169.543 4.13447 170.1 3.17297C170.679 2.21146 171.451 1.44226 172.416 0.865355C173.381 0.288452 174.431 0 175.568 0C176.725 0 177.776 0.288452 178.719 0.865355C179.662 1.44226 180.413 2.21146 180.97 3.17297C181.549 4.13447 181.839 5.20281 181.839 6.37799L181.871 16.5379C181.871 17.7131 181.581 18.7921 181.002 19.775C180.445 20.7365 179.684 21.5164 178.719 22.1146C177.776 22.6915 176.725 22.98 175.568 22.98ZM175.568 19.1019C176.211 19.1019 176.768 18.8455 177.24 18.3327C177.733 17.7985 177.979 17.2003 177.979 16.5379L177.947 6.37799C177.947 5.67288 177.722 5.07461 177.272 4.58318C176.822 4.09174 176.254 3.84602 175.568 3.84602C174.903 3.84602 174.335 4.09174 173.863 4.58318C173.391 5.05324 173.156 5.65151 173.156 6.37799V16.5379C173.156 17.243 173.391 17.852 173.863 18.3648C174.335 18.8562 174.903 19.1019 175.568 19.1019Z" fill="black"/>
<path d="M184.266 22.6595C184.18 22.6595 184.137 22.6061 184.137 22.4992L184.201 0.480752C184.201 0.395285 184.244 0.352551 184.33 0.352551H190.826C191.984 0.352551 193.045 0.641003 194.01 1.21791C194.996 1.77344 195.779 2.53196 196.358 3.49347C196.937 4.43361 197.226 5.50195 197.226 6.69849C197.226 7.48906 197.108 8.20485 196.872 8.84585C196.636 9.46549 196.358 9.99966 196.036 10.4484C195.714 10.8757 195.425 11.1962 195.168 11.4099C196.325 12.6919 196.904 14.1982 196.904 15.9289L196.936 22.4992C196.936 22.6061 196.883 22.6595 196.776 22.6595H193.142C193.056 22.6595 193.013 22.6274 193.013 22.5633V15.9289C193.013 15.1597 192.734 14.4974 192.177 13.9418C191.641 13.3649 190.976 13.0765 190.183 13.0765H188.061L188.028 22.4992C188.028 22.6061 187.986 22.6595 187.9 22.6595H184.266ZM188.061 9.23045H190.826C191.491 9.23045 192.08 8.98473 192.595 8.4933C193.11 8.00186 193.367 7.40359 193.367 6.69849C193.367 6.01475 193.11 5.42716 192.595 4.93573C192.102 4.44429 191.512 4.19857 190.826 4.19857H188.061V9.23045Z" fill="black"/>
<path d="M202.061 22.6595C201.975 22.6595 201.932 22.6061 201.932 22.4992V4.23062H197.751C197.644 4.23062 197.59 4.17721 197.59 4.07037L197.623 0.480752C197.623 0.395285 197.665 0.352551 197.751 0.352551H209.972C210.079 0.352551 210.133 0.395285 210.133 0.480752V4.07037C210.133 4.17721 210.09 4.23062 210.004 4.23062H205.791L205.823 22.4992C205.823 22.6061 205.78 22.6595 205.695 22.6595H202.061Z" fill="black"/>
<path d="M211.703 22.6595C211.596 22.6595 211.542 22.6061 211.542 22.4992L211.574 0.480752C211.574 0.395285 211.617 0.352551 211.703 0.352551H215.305C215.391 0.352551 215.434 0.395285 215.434 0.480752L215.466 22.4992C215.466 22.6061 215.423 22.6595 215.337 22.6595H211.703Z" fill="black"/>
</svg>
