<svg width="29" height="29" viewBox="0 0 29 29" fill="none" xmlns="http://www.w3.org/2000/svg">
<rect width="29" height="29" rx="6" fill="#72383D"/>
<path d="M9.31348 9.38452L20.0635 11.3542L20.0723 11.3552H20.8125C21.291 11.3554 21.6836 11.748 21.6836 12.2263V19.0632C21.6835 19.5418 21.2908 19.9342 20.8125 19.9343H8.51074C8.03216 19.9342 7.63973 19.5416 7.63965 19.0632V12.2263C7.63966 11.7477 8.03254 11.3553 8.51074 11.3552H9.01172V11.2556L9.0127 9.6355V9.63452C9.01297 9.47641 9.15666 9.35606 9.31348 9.38452ZM8.51074 11.8679C8.31358 11.868 8.15235 12.0284 8.15234 12.2263V14.3562H9.45508C9.54448 14.3562 9.60479 14.3891 9.64355 14.4333C9.68394 14.4795 9.70599 14.5441 9.70605 14.6121C9.70605 14.6799 9.68382 14.7446 9.64355 14.7908C9.60479 14.835 9.54448 14.8679 9.45508 14.8679H8.15234V16.4216H9.45508C9.54448 16.4217 9.60479 16.4546 9.64355 16.4988C9.68383 16.5449 9.70605 16.6096 9.70605 16.6775C9.706 16.7454 9.68394 16.8101 9.64355 16.8562C9.60479 16.9004 9.54448 16.9333 9.45508 16.9333H8.15234V19.0632C8.15243 19.2605 8.31281 19.4215 8.51074 19.4216H20.8125C21.0104 19.4215 21.1708 19.2611 21.1709 19.0632V16.9333H19.8682C19.7788 16.9333 19.7184 16.9004 19.6797 16.8562C19.6393 16.8101 19.6172 16.7454 19.6172 16.6775C19.6172 16.6096 19.6394 16.5449 19.6797 16.4988C19.7184 16.4546 19.7788 16.4217 19.8682 16.4216H21.1709V14.8679H19.8682C19.7788 14.8679 19.7184 14.835 19.6797 14.7908C19.6395 14.7446 19.6172 14.6799 19.6172 14.6121C19.6172 14.5442 19.6393 14.4794 19.6797 14.4333C19.7184 14.3891 19.7788 14.3562 19.8682 14.3562H21.1709V12.2263C21.1709 12.0282 21.0101 11.868 20.8125 11.8679H8.51074ZM14.6611 13.1042C14.7292 13.1042 14.7946 13.1263 14.8408 13.1667C14.885 13.2055 14.918 13.2658 14.918 13.3552V13.7527H15.3857C15.475 13.7528 15.5345 13.7857 15.5732 13.8298C15.6137 13.876 15.6367 13.9405 15.6367 14.0085C15.6367 14.0765 15.6137 14.1411 15.5732 14.1873C15.5345 14.2313 15.4748 14.2643 15.3857 14.2644H14.918V15.3884H15.3857C16.0136 15.3886 16.453 15.8493 16.4531 16.4626C16.4531 17.0761 16.0138 17.5367 15.3857 17.5369H14.918V17.9343C14.918 18.0237 14.885 18.084 14.8408 18.1228C14.7946 18.1633 14.7292 18.1853 14.6611 18.1853C14.5932 18.1852 14.5285 18.1632 14.4824 18.1228C14.4382 18.084 14.4053 18.0237 14.4053 17.9343V17.5369H13.9375C13.8482 17.5368 13.7887 17.5038 13.75 17.4597C13.7095 17.4136 13.6865 17.349 13.6865 17.281C13.6866 17.213 13.7095 17.1484 13.75 17.1023C13.7887 17.0583 13.8484 17.0252 13.9375 17.0251H14.4053V15.9011H13.9375C13.3095 15.901 12.8703 15.4401 12.8701 14.8269C12.8701 14.2132 13.3094 13.7529 13.9375 13.7527H14.4053V13.3552C14.4053 13.2658 14.4382 13.2055 14.4824 13.1667C14.5285 13.1264 14.5932 13.1043 14.6611 13.1042ZM14.918 17.0251H15.3857C15.5505 17.0251 15.6921 16.9697 15.792 16.866C15.8915 16.7627 15.9414 16.6201 15.9414 16.4626C15.9413 16.3055 15.8913 16.1635 15.792 16.0603C15.6921 15.9566 15.5505 15.9012 15.3857 15.9011H14.918V17.0251ZM13.9375 14.2644C13.7727 14.2645 13.6312 14.3199 13.5312 14.4236C13.4317 14.5269 13.3818 14.6695 13.3818 14.8269C13.3819 14.9841 13.4318 15.1261 13.5312 15.2292C13.6312 15.333 13.7727 15.3884 13.9375 15.3884H14.4053V14.2644H13.9375ZM9.52441 11.3552H16.1436L16.1611 11.157L9.6416 9.96265L9.52441 9.94116V11.3552Z" fill="white" stroke="#72383D" stroke-width="0.2"/>
</svg>
