<svg width="29" height="29" viewBox="0 0 29 29" fill="none" xmlns="http://www.w3.org/2000/svg">
<path d="M0 6C0 2.68629 2.68629 0 6 0H23C26.3137 0 29 2.68629 29 6V23C29 26.3137 26.3137 29 23 29H6C2.68629 29 0 26.3137 0 23V6Z" fill="#72383D"/>
<path d="M20.8412 8.69995H8.15884C7.99473 8.70014 7.8374 8.76543 7.72138 8.8815C7.60537 8.99757 7.54015 9.15493 7.54004 9.31904V17.4577C7.54015 17.6218 7.60537 17.7792 7.72138 17.8953C7.8374 18.0113 7.99473 18.0766 8.15884 18.0768H13.34V19.8168L11.779 19.8162C11.7021 19.8162 11.6284 19.8467 11.574 19.9011C11.5196 19.9555 11.489 20.0293 11.489 20.1062C11.489 20.1831 11.5196 20.2568 11.574 20.3112C11.6284 20.3656 11.7021 20.3962 11.779 20.3962L13.63 20.3968H15.37L17.3375 20.3962C17.4144 20.3962 17.4881 20.3656 17.5425 20.3112C17.5969 20.2568 17.6275 20.1831 17.6275 20.1062C17.6275 20.0293 17.5969 19.9555 17.5425 19.9011C17.4881 19.8467 17.4144 19.8162 17.3375 19.8162L15.66 19.8168V18.0768H20.8412C21.0053 18.0766 21.1627 18.0113 21.2787 17.8953C21.3947 17.7792 21.4599 17.6218 21.46 17.4577V9.31904C21.4599 9.15493 21.3947 8.99757 21.2787 8.8815C21.1627 8.76543 21.0053 8.70014 20.8412 8.69995ZM8.15884 9.27995H20.8412C20.8464 9.27997 20.8514 9.28099 20.8561 9.28296C20.8609 9.28494 20.8651 9.28782 20.8687 9.29145C20.8723 9.29508 20.8752 9.29939 20.8771 9.30412C20.8791 9.30886 20.8801 9.31393 20.88 9.31904V15.95H8.12172L8.15884 9.27995ZM15.08 19.8168H13.92V18.0768H15.08V19.8168ZM20.871 17.4968L8.12004 17.4577V16.5297H20.871V17.4968Z" fill="white"/>
<path d="M13.4931 14.65C13.455 14.6501 13.4173 14.6426 13.3821 14.628C13.3469 14.6135 13.3149 14.5921 13.288 14.5652C13.261 14.5382 13.2397 14.5062 13.2251 14.471C13.2105 14.4358 13.2031 14.3981 13.2031 14.36V11.1077C13.2031 11.0563 13.2167 11.0059 13.2426 10.9615C13.2685 10.9171 13.3057 10.8804 13.3504 10.8551C13.3953 10.8303 13.4458 10.8177 13.497 10.8184C13.5483 10.8191 13.5985 10.8331 13.6426 10.8591L16.343 12.4852C16.3858 12.511 16.4213 12.5475 16.4459 12.5911C16.4705 12.6346 16.4834 12.6838 16.4834 12.7339C16.4834 12.7839 16.4705 12.8331 16.4459 12.8767C16.4213 12.9202 16.3858 12.9567 16.343 12.9825L13.6426 14.6087C13.5974 14.6356 13.5458 14.6499 13.4931 14.65ZM13.7831 11.6208V13.8468L15.6313 12.7339L13.7831 11.6208Z" fill="white"/>
</svg>
