<svg width="192" height="103" viewBox="0 0 192 103" fill="none" xmlns="http://www.w3.org/2000/svg">
<g clip-path="url(#clip0_1_119)">
<path d="M43.6822 128.814C36.0219 128.814 29.4471 126.876 23.9577 122.999C18.4994 119.092 14.2971 113.463 11.3509 106.113C8.43561 98.7314 6.97798 89.8461 6.97798 79.4567C7.009 69.0672 8.48213 60.2285 11.3974 52.9403C14.3436 45.6212 18.5459 40.0388 24.0043 36.1932C29.4936 32.3475 36.0529 30.4247 43.6822 30.4247C51.3114 30.4247 57.8707 32.3475 63.3601 36.1932C68.8494 40.0388 73.0517 45.6212 75.967 52.9403C78.9132 60.2595 80.3864 69.0982 80.3864 79.4567C80.3864 89.8771 78.9132 98.7779 75.967 106.159C73.0517 113.509 68.8494 119.123 63.3601 122.999C57.9018 126.876 51.3424 128.814 43.6822 128.814ZM43.6822 114.254C49.6367 114.254 54.3352 111.323 57.7777 105.461C61.2512 99.5688 62.9879 90.9006 62.9879 79.4567C62.9879 71.8894 62.1971 65.5317 60.6154 60.3835C59.0337 55.2353 56.8008 51.3587 53.9166 48.7536C51.0323 46.1174 47.6209 44.7994 43.6822 44.7994C37.7586 44.7994 33.0756 47.7456 29.6332 53.6381C26.1907 59.4996 24.454 68.1058 24.4229 79.4567C24.3919 87.0549 25.1518 93.4437 26.7024 98.6229C28.2841 103.802 30.517 107.71 33.4013 110.346C36.2855 112.951 39.7125 114.254 43.6822 114.254ZM94.1214 109.322V95.5991L134.547 31.7273H145.991V51.2656H139.013L111.799 94.3896V95.1339H168.228V109.322H94.1214ZM139.571 127V105.136L139.757 98.995V31.7273H156.039V127H139.571Z" fill="#322D29"/>
</g>
<defs>
<clipPath id="clip0_1_119">
<rect width="192" height="103" fill="white"/>
</clipPath>
</defs>
</svg>
