<svg width="309" height="157" viewBox="0 0 309 157" fill="none" xmlns="http://www.w3.org/2000/svg">
<line x1="0.5" y1="-0.5" x2="308.335" y2="-0.5" transform="matrix(-1 0 0 1 308.835 125)" stroke="#838383" stroke-linecap="round" stroke-dasharray="2 2"/>
<line x1="0.5" y1="-0.5" x2="308.335" y2="-0.5" transform="matrix(-1 0 0 1 308.835 95)" stroke="#838383" stroke-linecap="round" stroke-dasharray="2 2"/>
<line x1="0.5" y1="-0.5" x2="308.335" y2="-0.5" transform="matrix(-1 0 0 1 309 65)" stroke="#838383" stroke-linecap="round" stroke-dasharray="2 2"/>
<line x1="0.5" y1="-0.5" x2="308.335" y2="-0.5" transform="matrix(-1 0 0 1 308.835 35)" stroke="#838383" stroke-linecap="round" stroke-dasharray="2 2"/>
<line y1="-0.5" x2="122" y2="-0.5" transform="matrix(-4.39232e-08 1 1 4.35006e-08 248.196 35)" stroke="#838383" stroke-dasharray="2 2"/>
<line y1="-0.5" x2="122" y2="-0.5" transform="matrix(-4.39232e-08 1 1 4.35006e-08 185.897 35)" stroke="#838383" stroke-dasharray="2 2"/>
<line y1="-0.5" x2="122" y2="-0.5" transform="matrix(-4.39232e-08 1 1 4.35006e-08 124.6 35)" stroke="#838383" stroke-dasharray="2 2"/>
<line y1="-0.5" x2="122" y2="-0.5" transform="matrix(-4.39232e-08 1 1 4.35006e-08 62.3013 35)" stroke="#838383" stroke-dasharray="2 2"/>
<line y1="-0.5" x2="122" y2="-0.5" transform="matrix(-4.39232e-08 1 1 4.35006e-08 1.00439 35)" stroke="#838383" stroke-dasharray="2 2"/>
</svg>
