<svg width="179" height="52" viewBox="0 0 179 52" fill="none" xmlns="http://www.w3.org/2000/svg">
<path d="M0 28.96H28V0.96H0V28.96ZM35.5691 27C35.5131 27 35.4851 26.9627 35.4851 26.888L35.5131 18.936L31.7611 7.624C31.7425 7.54933 31.7705 7.512 31.8451 7.512H34.9531C35.0465 7.512 35.1025 7.54933 35.1211 7.624L37.1931 15.156L39.2931 7.624C39.3118 7.54933 39.3585 7.512 39.4331 7.512H42.5691C42.6438 7.512 42.6718 7.54933 42.6531 7.624L38.8731 18.824L38.9011 26.888C38.9011 26.9627 38.8638 27 38.7891 27H35.5691ZM48.2982 27.28C47.2902 27.28 46.3662 27.028 45.5262 26.524C44.7048 26.0013 44.0422 25.32 43.5382 24.48C43.0342 23.6213 42.7822 22.6787 42.7822 21.652L42.8102 12.776C42.8102 11.7493 43.0528 10.816 43.5382 9.976C44.0422 9.136 44.7142 8.464 45.5542 7.96C46.3942 7.456 47.3088 7.204 48.2982 7.204C49.3062 7.204 50.2208 7.456 51.0422 7.96C51.8635 8.464 52.5168 9.136 53.0022 9.976C53.5062 10.816 53.7582 11.7493 53.7582 12.776L53.7862 21.652C53.7862 22.6787 53.5342 23.6213 53.0302 24.48C52.5448 25.32 51.8822 26.0013 51.0422 26.524C50.2208 27.028 49.3062 27.28 48.2982 27.28ZM48.2982 23.892C48.8582 23.892 49.3435 23.668 49.7542 23.22C50.1835 22.7533 50.3982 22.2307 50.3982 21.652L50.3702 12.776C50.3702 12.16 50.1742 11.6373 49.7822 11.208C49.3902 10.7787 48.8955 10.564 48.2982 10.564C47.7195 10.564 47.2248 10.7787 46.8142 11.208C46.4035 11.6187 46.1982 12.1413 46.1982 12.776V21.652C46.1982 22.268 46.4035 22.8 46.8142 23.248C47.2248 23.6773 47.7195 23.892 48.2982 23.892ZM61.0756 27.28C60.0862 27.28 59.1716 27.028 58.3316 26.524C57.4916 26.0013 56.8196 25.3107 56.3156 24.452C55.8302 23.5933 55.5876 22.6507 55.5876 21.624L55.6436 7.624C55.6436 7.54933 55.6809 7.512 55.7556 7.512H58.8916C58.9662 7.512 59.0036 7.54933 59.0036 7.624V21.624C59.0036 22.2587 59.1996 22.8 59.5916 23.248C60.0022 23.6773 60.4969 23.892 61.0756 23.892C61.6729 23.892 62.1676 23.6773 62.5596 23.248C62.9702 22.8 63.1756 22.2587 63.1756 21.624V7.624C63.1756 7.54933 63.2129 7.512 63.2876 7.512H66.4236C66.4982 7.512 66.5356 7.54933 66.5356 7.624L66.5916 21.624C66.5916 22.6693 66.3396 23.6213 65.8356 24.48C65.3502 25.3387 64.6876 26.02 63.8476 26.524C63.0262 27.028 62.1022 27.28 61.0756 27.28ZM72.3519 26.86L75.8239 7.624C75.8425 7.54933 75.8892 7.512 75.9639 7.512H80.0239C80.0985 7.512 80.1452 7.54933 80.1639 7.624L83.4959 26.86C83.5145 26.9533 83.4772 27 83.3839 27H80.2759C80.2012 27 80.1545 26.9533 80.1359 26.86L79.8279 24.816H76.0199L75.7119 26.86C75.6932 26.9533 75.6465 27 75.5719 27H72.4639C72.3892 27 72.3519 26.9533 72.3519 26.86ZM76.5799 21.82H79.2679L78.1199 13.952L77.9519 12.916L77.8399 13.952L76.5799 21.82ZM85.2095 27C85.1348 27 85.0975 26.9533 85.0975 26.86L85.1535 7.624C85.1535 7.54933 85.1908 7.512 85.2655 7.512H90.9215C91.9295 7.512 92.8535 7.764 93.6935 8.268C94.5522 8.75333 95.2335 9.416 95.7375 10.256C96.2415 11.0773 96.4935 12.0107 96.4935 13.056C96.4935 13.7467 96.3909 14.372 96.1855 14.932C95.9802 15.4733 95.7375 15.94 95.4575 16.332C95.1775 16.7053 94.9255 16.9853 94.7015 17.172C95.7095 18.292 96.2135 19.608 96.2135 21.12L96.2415 26.86C96.2415 26.9533 96.1949 27 96.1015 27H92.9375C92.8628 27 92.8255 26.972 92.8255 26.916V21.12C92.8255 20.448 92.5828 19.8693 92.0975 19.384C91.6308 18.88 91.0522 18.628 90.3615 18.628H88.5135L88.4855 26.86C88.4855 26.9533 88.4482 27 88.3735 27H85.2095ZM88.5135 15.268H90.9215C91.5002 15.268 92.0135 15.0533 92.4615 14.624C92.9095 14.1947 93.1335 13.672 93.1335 13.056C93.1335 12.4587 92.9095 11.9453 92.4615 11.516C92.0322 11.0867 91.5188 10.872 90.9215 10.872H88.5135V15.268ZM98.5618 27C98.4871 27 98.4498 26.9533 98.4498 26.86L98.4778 7.624C98.4778 7.54933 98.5151 7.512 98.5898 7.512H107.578C107.652 7.512 107.69 7.55867 107.69 7.652V10.788C107.69 10.8627 107.652 10.9 107.578 10.9H101.838V15.268H107.578C107.652 15.268 107.69 15.3053 107.69 15.38L107.718 18.544C107.718 18.6187 107.68 18.656 107.606 18.656H101.838V23.556H107.606C107.68 23.556 107.718 23.6027 107.718 23.696V26.888C107.718 26.9627 107.68 27 107.606 27H98.5618ZM114.165 27C114.09 27 114.053 26.9533 114.053 26.86L114.081 7.652C114.081 7.55867 114.127 7.512 114.221 7.512H117.329C117.422 7.512 117.469 7.55867 117.469 7.652L117.441 23.556H123.209C123.302 23.556 123.349 23.6027 123.349 23.696V26.86C123.349 26.9533 123.302 27 123.209 27H114.165ZM129.823 27.28C128.815 27.28 127.891 27.028 127.051 26.524C126.23 26.0013 125.567 25.32 125.063 24.48C124.559 23.6213 124.307 22.6787 124.307 21.652L124.335 12.776C124.335 11.7493 124.578 10.816 125.063 9.976C125.567 9.136 126.239 8.464 127.079 7.96C127.919 7.456 128.834 7.204 129.823 7.204C130.831 7.204 131.746 7.456 132.567 7.96C133.389 8.464 134.042 9.136 134.527 9.976C135.031 10.816 135.283 11.7493 135.283 12.776L135.311 21.652C135.311 22.6787 135.059 23.6213 134.555 24.48C134.07 25.32 133.407 26.0013 132.567 26.524C131.746 27.028 130.831 27.28 129.823 27.28ZM129.823 23.892C130.383 23.892 130.869 23.668 131.279 23.22C131.709 22.7533 131.923 22.2307 131.923 21.652L131.895 12.776C131.895 12.16 131.699 11.6373 131.307 11.208C130.915 10.7787 130.421 10.564 129.823 10.564C129.245 10.564 128.75 10.7787 128.339 11.208C127.929 11.6187 127.723 12.1413 127.723 12.776V21.652C127.723 22.268 127.929 22.8 128.339 23.248C128.75 23.6773 129.245 23.892 129.823 23.892ZM142.045 27.28C141.037 27.28 140.113 27.028 139.273 26.524C138.451 26.0013 137.789 25.32 137.285 24.48C136.799 23.6213 136.557 22.6787 136.557 21.652V20.364C136.557 20.2707 136.603 20.224 136.697 20.224H139.833C139.907 20.224 139.945 20.2707 139.945 20.364V21.652C139.945 22.268 140.15 22.8 140.561 23.248C140.971 23.6773 141.466 23.892 142.045 23.892C142.623 23.892 143.118 23.668 143.529 23.22C143.939 22.772 144.145 22.2493 144.145 21.652C144.145 20.9613 143.697 20.364 142.801 19.86C142.502 19.692 142.035 19.4307 141.401 19.076C140.766 18.7213 140.169 18.3853 139.609 18.068C138.582 17.4707 137.817 16.724 137.313 15.828C136.827 14.9133 136.585 13.8867 136.585 12.748C136.585 11.7027 136.837 10.7693 137.341 9.948C137.845 9.108 138.507 8.44533 139.329 7.96C140.169 7.47467 141.074 7.232 142.045 7.232C143.034 7.232 143.939 7.484 144.761 7.988C145.601 8.47333 146.263 9.136 146.749 9.976C147.253 10.7973 147.505 11.7213 147.505 12.748V15.044C147.505 15.1187 147.467 15.156 147.393 15.156H144.257C144.182 15.156 144.145 15.1187 144.145 15.044L144.117 12.748C144.117 12.0947 143.911 11.5627 143.501 11.152C143.09 10.7413 142.605 10.536 142.045 10.536C141.466 10.536 140.971 10.76 140.561 11.208C140.15 11.6373 139.945 12.1507 139.945 12.748C139.945 13.364 140.075 13.8773 140.337 14.288C140.598 14.6987 141.074 15.0907 141.765 15.464C141.858 15.52 142.035 15.6227 142.297 15.772C142.577 15.9027 142.875 16.0613 143.193 16.248C143.51 16.416 143.79 16.5653 144.033 16.696C144.294 16.8267 144.453 16.9107 144.509 16.948C145.442 17.4707 146.179 18.1147 146.721 18.88C147.262 19.6267 147.533 20.5507 147.533 21.652C147.533 22.716 147.281 23.6773 146.777 24.536C146.291 25.376 145.629 26.048 144.789 26.552C143.967 27.0373 143.053 27.28 142.045 27.28ZM149.464 27C149.371 27 149.324 26.9533 149.324 26.86L149.352 7.624C149.352 7.54933 149.39 7.512 149.464 7.512H152.6C152.675 7.512 152.712 7.54933 152.712 7.624L152.74 26.86C152.74 26.9533 152.703 27 152.628 27H149.464ZM155.3 27C155.15 27 155.076 26.9347 155.076 26.804L155.048 7.736C155.048 7.58667 155.122 7.512 155.272 7.512H157.792L162.524 18.544L162.384 7.736C162.384 7.58667 162.468 7.512 162.636 7.512H165.408C165.52 7.512 165.576 7.58667 165.576 7.736L165.604 26.832C165.604 26.944 165.557 27 165.464 27H163L158.156 16.696L158.352 26.776C158.352 26.9253 158.268 27 158.1 27H155.3ZM173.004 27.28C171.996 27.28 171.082 27.028 170.26 26.524C169.439 26.02 168.776 25.348 168.272 24.508C167.787 23.6493 167.544 22.6973 167.544 21.652V12.776C167.544 11.768 167.787 10.844 168.272 10.004C168.776 9.14533 169.439 8.464 170.26 7.96C171.1 7.456 172.015 7.204 173.004 7.204C174.031 7.204 174.955 7.456 175.776 7.96C176.616 8.44533 177.279 9.108 177.764 9.948C178.25 10.788 178.492 11.7307 178.492 12.776V14.064C178.492 14.1387 178.446 14.176 178.352 14.176H175.216C175.142 14.176 175.104 14.1387 175.104 14.064V13C175.104 12.2907 174.899 11.7027 174.488 11.236C174.096 10.7693 173.602 10.536 173.004 10.536C172.463 10.536 171.978 10.76 171.548 11.208C171.138 11.656 170.932 12.1787 170.932 12.776V21.652C170.932 22.268 171.138 22.8 171.548 23.248C171.959 23.6773 172.444 23.892 173.004 23.892C173.602 23.892 174.096 23.6773 174.488 23.248C174.899 22.8187 175.104 22.2867 175.104 21.652V20.28H173.144C173.051 20.28 173.004 20.2333 173.004 20.14V17.004C173.004 16.9107 173.051 16.864 173.144 16.864H178.38C178.455 16.864 178.492 16.9107 178.492 17.004V21.652C178.492 22.6973 178.24 23.6493 177.736 24.508C177.251 25.348 176.598 26.02 175.776 26.524C174.955 27.028 174.031 27.28 173.004 27.28ZM3.696 51C3.62133 51 3.57467 50.9533 3.556 50.86L0.252 31.624C0.233333 31.5493 0.261333 31.512 0.336 31.512H3.472C3.54667 31.512 3.59333 31.5493 3.612 31.624L5.404 44.28L7.252 31.624C7.27067 31.5493 7.32667 31.512 7.42 31.512H9.94C10.0147 31.512 10.0613 31.5493 10.08 31.624L11.9 44.28L13.72 31.624C13.7387 31.5493 13.7853 31.512 13.86 31.512H16.968C17.0613 31.512 17.0987 31.5493 17.08 31.624L13.748 50.86C13.7293 50.8973 13.7013 50.9347 13.664 50.972C13.6267 50.9907 13.608 51 13.608 51H10.22C10.164 51 10.1173 50.9533 10.08 50.86L8.652 40.808L7.224 50.86C7.20533 50.9533 7.15867 51 7.084 51H3.696ZM18.7138 51C18.6205 51 18.5738 50.9533 18.5738 50.86L18.6018 31.624C18.6018 31.5493 18.6392 31.512 18.7138 31.512H21.8498C21.9245 31.512 21.9618 31.5493 21.9618 31.624L21.9898 50.86C21.9898 50.9533 21.9525 51 21.8778 51H18.7138ZM27.0972 51C27.0225 51 26.9852 50.9533 26.9852 50.86V34.9H23.3452C23.2518 34.9 23.2052 34.8533 23.2052 34.76L23.2332 31.624C23.2332 31.5493 23.2705 31.512 23.3452 31.512H33.9852C34.0785 31.512 34.1252 31.5493 34.1252 31.624V34.76C34.1252 34.8533 34.0878 34.9 34.0132 34.9H30.3452L30.3732 50.86C30.3732 50.9533 30.3358 51 30.2612 51H27.0972ZM35.4646 51C35.3899 51 35.3526 50.9533 35.3526 50.86L35.3806 31.624C35.3806 31.5493 35.4272 31.512 35.5206 31.512H38.6286C38.7219 31.512 38.7686 31.5493 38.7686 31.624L38.7406 39.24H42.9406V31.624C42.9406 31.5493 42.9779 31.512 43.0526 31.512H46.1606C46.2539 31.512 46.3006 31.5493 46.3006 31.624L46.3566 50.86C46.3566 50.9533 46.3099 51 46.2166 51H43.0806C42.9872 51 42.9406 50.9533 42.9406 50.86V42.628H38.7406V50.86C38.7406 50.9533 38.7032 51 38.6286 51H35.4646ZM53.6661 51.28C52.6581 51.28 51.7341 51.028 50.8941 50.524C50.0727 50.0013 49.4101 49.32 48.9061 48.48C48.4021 47.6213 48.1501 46.6787 48.1501 45.652L48.1781 36.776C48.1781 35.7493 48.4207 34.816 48.9061 33.976C49.4101 33.136 50.0821 32.464 50.9221 31.96C51.7621 31.456 52.6767 31.204 53.6661 31.204C54.6741 31.204 55.5887 31.456 56.4101 31.96C57.2314 32.464 57.8847 33.136 58.3701 33.976C58.8741 34.816 59.1261 35.7493 59.1261 36.776L59.1541 45.652C59.1541 46.6787 58.9021 47.6213 58.3981 48.48C57.9127 49.32 57.2501 50.0013 56.4101 50.524C55.5887 51.028 54.6741 51.28 53.6661 51.28ZM53.6661 47.892C54.2261 47.892 54.7114 47.668 55.1221 47.22C55.5514 46.7533 55.7661 46.2307 55.7661 45.652L55.7381 36.776C55.7381 36.16 55.5421 35.6373 55.1501 35.208C54.7581 34.7787 54.2634 34.564 53.6661 34.564C53.0874 34.564 52.5927 34.7787 52.1821 35.208C51.7714 35.6187 51.5661 36.1413 51.5661 36.776V45.652C51.5661 46.268 51.7714 46.8 52.1821 47.248C52.5927 47.6773 53.0874 47.892 53.6661 47.892ZM66.4434 51.28C65.4541 51.28 64.5394 51.028 63.6994 50.524C62.8594 50.0013 62.1874 49.3107 61.6834 48.452C61.1981 47.5933 60.9554 46.6507 60.9554 45.624L61.0114 31.624C61.0114 31.5493 61.0488 31.512 61.1234 31.512H64.2594C64.3341 31.512 64.3714 31.5493 64.3714 31.624V45.624C64.3714 46.2587 64.5674 46.8 64.9594 47.248C65.3701 47.6773 65.8648 47.892 66.4434 47.892C67.0408 47.892 67.5354 47.6773 67.9274 47.248C68.3381 46.8 68.5434 46.2587 68.5434 45.624V31.624C68.5434 31.5493 68.5808 31.512 68.6554 31.512H71.7914C71.8661 31.512 71.9034 31.5493 71.9034 31.624L71.9594 45.624C71.9594 46.6693 71.7074 47.6213 71.2034 48.48C70.7181 49.3387 70.0554 50.02 69.2154 50.524C68.3941 51.028 67.4701 51.28 66.4434 51.28ZM76.8148 51C76.7401 51 76.7028 50.9533 76.7028 50.86V34.9H73.0628C72.9695 34.9 72.9228 34.8533 72.9228 34.76L72.9508 31.624C72.9508 31.5493 72.9881 31.512 73.0628 31.512H83.7028C83.7961 31.512 83.8428 31.5493 83.8428 31.624V34.76C83.8428 34.8533 83.8055 34.9 83.7308 34.9H80.0628L80.0908 50.86C80.0908 50.9533 80.0535 51 79.9788 51H76.8148ZM94.2229 51.28C93.2335 51.28 92.3189 51.028 91.4789 50.524C90.6389 50.0013 89.9669 49.3107 89.4629 48.452C88.9775 47.5933 88.7349 46.6507 88.7349 45.624L88.7909 31.624C88.7909 31.5493 88.8282 31.512 88.9029 31.512H92.0389C92.1135 31.512 92.1509 31.5493 92.1509 31.624V45.624C92.1509 46.2587 92.3469 46.8 92.7389 47.248C93.1495 47.6773 93.6442 47.892 94.2229 47.892C94.8202 47.892 95.3149 47.6773 95.7069 47.248C96.1175 46.8 96.3229 46.2587 96.3229 45.624V31.624C96.3229 31.5493 96.3602 31.512 96.4349 31.512H99.5709C99.6455 31.512 99.6829 31.5493 99.6829 31.624L99.7389 45.624C99.7389 46.6693 99.4869 47.6213 98.9829 48.48C98.4975 49.3387 97.8349 50.02 96.9949 50.524C96.1735 51.028 95.2495 51.28 94.2229 51.28ZM106.554 51.28C105.546 51.28 104.622 51.028 103.782 50.524C102.961 50.0013 102.298 49.32 101.794 48.48C101.309 47.6213 101.066 46.6787 101.066 45.652V44.364C101.066 44.2707 101.113 44.224 101.206 44.224H104.342C104.417 44.224 104.454 44.2707 104.454 44.364V45.652C104.454 46.268 104.66 46.8 105.07 47.248C105.481 47.6773 105.976 47.892 106.554 47.892C107.133 47.892 107.628 47.668 108.038 47.22C108.449 46.772 108.654 46.2493 108.654 45.652C108.654 44.9613 108.206 44.364 107.31 43.86C107.012 43.692 106.545 43.4307 105.91 43.076C105.276 42.7213 104.678 42.3853 104.118 42.068C103.092 41.4707 102.326 40.724 101.822 39.828C101.337 38.9133 101.094 37.8867 101.094 36.748C101.094 35.7027 101.346 34.7693 101.85 33.948C102.354 33.108 103.017 32.4453 103.838 31.96C104.678 31.4747 105.584 31.232 106.554 31.232C107.544 31.232 108.449 31.484 109.27 31.988C110.11 32.4733 110.773 33.136 111.258 33.976C111.762 34.7973 112.014 35.7213 112.014 36.748V39.044C112.014 39.1187 111.977 39.156 111.902 39.156H108.766C108.692 39.156 108.654 39.1187 108.654 39.044L108.626 36.748C108.626 36.0947 108.421 35.5627 108.01 35.152C107.6 34.7413 107.114 34.536 106.554 34.536C105.976 34.536 105.481 34.76 105.07 35.208C104.66 35.6373 104.454 36.1507 104.454 36.748C104.454 37.364 104.585 37.8773 104.846 38.288C105.108 38.6987 105.584 39.0907 106.274 39.464C106.368 39.52 106.545 39.6227 106.806 39.772C107.086 39.9027 107.385 40.0613 107.702 40.248C108.02 40.416 108.3 40.5653 108.542 40.696C108.804 40.8267 108.962 40.9107 109.018 40.948C109.952 41.4707 110.689 42.1147 111.23 42.88C111.772 43.6267 112.042 44.5507 112.042 45.652C112.042 46.716 111.79 47.6773 111.286 48.536C110.801 49.376 110.138 50.048 109.298 50.552C108.477 51.0373 107.562 51.28 106.554 51.28Z" fill="black"/>
</svg>
