<svg width="153" height="26" viewBox="0 0 153 26" fill="none" xmlns="http://www.w3.org/2000/svg">
<path d="M138.612 10.0964H143.844V25.6374H138.612V10.0964Z" fill="#6B202A"/>
<path d="M147.768 16.5718H153V25.6374H147.768V16.5718Z" fill="#6B202A"/>
<path d="M130.764 7.50628H143.844V11.3915H130.764V7.50628Z" fill="#6B202A"/>
<path d="M5.09076 25.6374C4.99309 25.6374 4.94426 25.5769 4.94426 25.4561V4.78661H0.183121C0.0610402 4.78661 0 4.72617 0 4.6053L0.0366242 0.543932C0.0366242 0.447233 0.0854564 0.398883 0.183121 0.398883H14.1003C14.2224 0.398883 14.2834 0.447233 14.2834 0.543932V4.6053C14.2834 4.72617 14.2346 4.78661 14.1369 4.78661H9.33916L9.37578 25.4561C9.37578 25.5769 9.32695 25.6374 9.22929 25.6374H5.09076Z" fill="black"/>
<path d="M16.0353 25.6374C15.9377 25.6374 15.8888 25.5769 15.8888 25.4561L15.9621 0.543932C15.9621 0.447233 16.0109 0.398883 16.1086 0.398883H23.5067C24.8251 0.398883 26.0337 0.725243 27.1325 1.37796C28.2556 2.00651 29.1468 2.86471 29.806 3.95258C30.4653 5.01627 30.7949 6.22501 30.7949 7.5788C30.7949 8.47327 30.6606 9.28312 30.392 10.0084C30.1234 10.7094 29.806 11.3138 29.4398 11.8215C29.0735 12.305 28.7439 12.6676 28.4509 12.9093C29.7694 14.3598 30.4286 16.0642 30.4286 18.0223L30.4653 25.4561C30.4653 25.5769 30.4042 25.6374 30.2821 25.6374H26.1436C26.0459 25.6374 25.9971 25.6011 25.9971 25.5286V18.0223C25.9971 17.152 25.6797 16.4026 25.0449 15.7741C24.4345 15.1213 23.6776 14.795 22.7742 14.795H20.357L20.3204 25.4561C20.3204 25.5769 20.2715 25.6374 20.1739 25.6374H16.0353ZM20.357 10.4435H23.5067C24.2636 10.4435 24.935 10.1655 25.521 9.60948C26.107 9.05346 26.4 8.37657 26.4 7.5788C26.4 6.80521 26.107 6.1404 25.521 5.58438C24.9594 5.02836 24.288 4.75035 23.5067 4.75035H20.357V10.4435Z" fill="black"/>
<path d="M40.0925 26C38.7985 26 37.6021 25.6736 36.5033 25.0209C35.4046 24.344 34.5256 23.4496 33.8664 22.3375C33.2316 21.2255 32.9142 20.0046 32.9142 18.675L32.9874 0.543932C32.9874 0.447233 33.0363 0.398883 33.1339 0.398883H37.2358C37.3335 0.398883 37.3823 0.447233 37.3823 0.543932V18.675C37.3823 19.497 37.6387 20.198 38.1514 20.7782C38.6886 21.3343 39.3356 21.6123 40.0925 21.6123C40.8738 21.6123 41.5209 21.3343 42.0336 20.7782C42.5707 20.198 42.8393 19.497 42.8393 18.675V0.543932C42.8393 0.447233 42.8882 0.398883 42.9858 0.398883H47.0877C47.1854 0.398883 47.2342 0.447233 47.2342 0.543932L47.3075 18.675C47.3075 20.0288 46.9778 21.2617 46.3186 22.3738C45.6838 23.4858 44.817 24.3682 43.7183 25.0209C42.644 25.6736 41.4354 26 40.0925 26Z" fill="black"/>
<path d="M50.1424 25.6374C50.0447 25.6374 49.9959 25.5769 49.9959 25.4561L50.0325 0.543932C50.0325 0.447233 50.0813 0.398883 50.179 0.398883H61.9353C62.033 0.398883 62.0818 0.45932 62.0818 0.580194V4.64156C62.0818 4.73826 62.033 4.78661 61.9353 4.78661H54.4274V10.4435H61.9353C62.033 10.4435 62.0818 10.4919 62.0818 10.5886L62.1185 14.6862C62.1185 14.7829 62.0696 14.8312 61.972 14.8312H54.4274V21.1771H61.972C62.0696 21.1771 62.1185 21.2376 62.1185 21.3584V25.4923C62.1185 25.589 62.0696 25.6374 61.972 25.6374H50.1424Z" fill="black"/>
<path d="M65.5013 25.6374C65.306 25.6374 65.2083 25.5528 65.2083 25.3835L65.1717 0.688982C65.1717 0.495583 65.2694 0.398883 65.4647 0.398883H68.7608L74.9503 14.6862L74.7672 0.688982C74.7672 0.495583 74.8771 0.398883 75.0968 0.398883H78.7226C78.8691 0.398883 78.9424 0.495583 78.9424 0.688982L78.979 25.4198C78.979 25.5649 78.918 25.6374 78.7959 25.6374H75.5729L69.237 12.2929L69.4933 25.3473C69.4933 25.5407 69.3835 25.6374 69.1637 25.6374H65.5013Z" fill="black"/>
<path d="M88.7324 26C87.414 26 86.2054 25.6736 85.1066 25.0209C84.0323 24.344 83.1656 23.4616 82.5063 22.3738C81.8471 21.2617 81.5175 20.0409 81.5175 18.7113L81.5541 7.21618C81.5541 5.88656 81.8715 4.67782 82.5063 3.58996C83.1656 2.50209 84.0445 1.6318 85.1433 0.97908C86.242 0.32636 87.4384 0 88.7324 0C90.0509 0 91.2473 0.32636 92.3216 0.97908C93.3959 1.6318 94.2505 2.50209 94.8853 3.58996C95.5445 4.67782 95.8741 5.88656 95.8741 7.21618L95.9108 18.7113C95.9108 20.0409 95.5811 21.2617 94.9219 22.3738C94.2871 23.4616 93.4203 24.344 92.3216 25.0209C91.2473 25.6736 90.0509 26 88.7324 26ZM88.7324 21.6123C89.4649 21.6123 90.0997 21.3222 90.6369 20.742C91.1984 20.1376 91.4792 19.4607 91.4792 18.7113L91.4426 7.21618C91.4426 6.41841 91.1862 5.74152 90.6735 5.18549C90.1608 4.62947 89.5137 4.35146 88.7324 4.35146C87.9755 4.35146 87.3285 4.62947 86.7914 5.18549C86.2542 5.71734 85.9856 6.39423 85.9856 7.21618V18.7113C85.9856 19.5091 86.2542 20.198 86.7914 20.7782C87.3285 21.3343 87.9755 21.6123 88.7324 21.6123Z" fill="black"/>
<path d="M98.6384 25.6374C98.5407 25.6374 98.4919 25.5769 98.4919 25.4561L98.5651 0.543932C98.5651 0.447233 98.614 0.398883 98.7116 0.398883H106.11C107.428 0.398883 108.637 0.725243 109.735 1.37796C110.859 2.00651 111.75 2.86471 112.409 3.95258C113.068 5.01627 113.398 6.22501 113.398 7.5788C113.398 8.47327 113.264 9.28312 112.995 10.0084C112.726 10.7094 112.409 11.3138 112.043 11.8215C111.677 12.305 111.347 12.6676 111.054 12.9093C112.372 14.3598 113.032 16.0642 113.032 18.0223L113.068 25.4561C113.068 25.5769 113.007 25.6374 112.885 25.6374H108.747C108.649 25.6374 108.6 25.6011 108.6 25.5286V18.0223C108.6 17.152 108.283 16.4026 107.648 15.7741C107.038 15.1213 106.281 14.795 105.377 14.795H102.96L102.923 25.4561C102.923 25.5769 102.875 25.6374 102.777 25.6374H98.6384ZM102.96 10.4435H106.11C106.867 10.4435 107.538 10.1655 108.124 9.60948C108.71 9.05346 109.003 8.37657 109.003 7.5788C109.003 6.80521 108.71 6.1404 108.124 5.58438C107.562 5.02836 106.891 4.75035 106.11 4.75035H102.96V10.4435Z" fill="black"/>
<path d="M118.904 25.6374C118.806 25.6374 118.757 25.5769 118.757 25.4561V4.78661H113.996C113.874 4.78661 113.813 4.72617 113.813 4.6053L113.85 0.543932C113.85 0.447233 113.898 0.398883 113.996 0.398883H127.913C128.035 0.398883 128.096 0.447233 128.096 0.543932V4.6053C128.096 4.72617 128.048 4.78661 127.95 4.78661H123.152L123.189 25.4561C123.189 25.5769 123.14 25.6374 123.042 25.6374H118.904Z" fill="black"/>
<path d="M129.885 25.6374C129.763 25.6374 129.702 25.5769 129.702 25.4561L129.739 0.543932C129.739 0.447233 129.787 0.398883 129.885 0.398883H133.987C134.085 0.398883 134.133 0.447233 134.133 0.543932L134.17 25.4561C134.17 25.5769 134.121 25.6374 134.024 25.6374H129.885Z" fill="black"/>
</svg>
