<svg width="117" height="21" viewBox="0 0 117 21" fill="none" xmlns="http://www.w3.org/2000/svg">
<path d="M106 7.99998H110V20H106V7.99998Z" fill="#6B202A"/>
<path d="M113 13H117V20H113V13Z" fill="#6B202A"/>
<path d="M100 5.99998H110V8.99998H100V5.99998Z" fill="#6B202A"/>
<path d="M3.91983 20C3.84517 20 3.80783 19.9533 3.80783 19.86V3.89998H0.167832C0.0744987 3.89998 0.027832 3.85331 0.027832 3.75998L0.055832 0.623979C0.055832 0.549312 0.0931654 0.511979 0.167832 0.511979H10.8078C10.9012 0.511979 10.9478 0.549312 10.9478 0.623979V3.75998C10.9478 3.85331 10.9105 3.89998 10.8358 3.89998H7.16783L7.19583 19.86C7.19583 19.9533 7.1585 20 7.08383 20H3.91983Z" fill="white"/>
<path d="M12.2872 20C12.2125 20 12.1752 19.9533 12.1752 19.86L12.2312 0.623979C12.2312 0.549312 12.2685 0.511979 12.3432 0.511979H17.9992C19.0072 0.511979 19.9312 0.763979 20.7712 1.26798C21.6299 1.75331 22.3112 2.41598 22.8152 3.25598C23.3192 4.07731 23.5712 5.01065 23.5712 6.05598C23.5712 6.74665 23.4685 7.37198 23.2632 7.93198C23.0579 8.47331 22.8152 8.93998 22.5352 9.33198C22.2552 9.70531 22.0032 9.98531 21.7792 10.172C22.7872 11.292 23.2912 12.608 23.2912 14.12L23.3192 19.86C23.3192 19.9533 23.2725 20 23.1792 20H20.0152C19.9405 20 19.9032 19.972 19.9032 19.916V14.12C19.9032 13.448 19.6605 12.8693 19.1752 12.384C18.7085 11.88 18.1299 11.628 17.4392 11.628H15.5912L15.5632 19.86C15.5632 19.9533 15.5259 20 15.4512 20H12.2872ZM15.5912 8.26798H17.9992C18.5779 8.26798 19.0912 8.05331 19.5392 7.62398C19.9872 7.19465 20.2112 6.67198 20.2112 6.05598C20.2112 5.45865 19.9872 4.94531 19.5392 4.51598C19.1099 4.08665 18.5965 3.87198 17.9992 3.87198H15.5912V8.26798Z" fill="white"/>
<path d="M30.6795 20.28C29.6901 20.28 28.7755 20.028 27.9355 19.524C27.0955 19.0013 26.4235 18.3106 25.9195 17.452C25.4341 16.5933 25.1915 15.6506 25.1915 14.624L25.2475 0.623979C25.2475 0.549312 25.2848 0.511979 25.3595 0.511979H28.4955C28.5701 0.511979 28.6075 0.549312 28.6075 0.623979V14.624C28.6075 15.2586 28.8035 15.8 29.1955 16.248C29.6061 16.6773 30.1008 16.892 30.6795 16.892C31.2768 16.892 31.7715 16.6773 32.1635 16.248C32.5741 15.8 32.7795 15.2586 32.7795 14.624V0.623979C32.7795 0.549312 32.8168 0.511979 32.8915 0.511979H36.0275C36.1021 0.511979 36.1395 0.549312 36.1395 0.623979L36.1955 14.624C36.1955 15.6693 35.9435 16.6213 35.4395 17.48C34.9541 18.3386 34.2915 19.02 33.4515 19.524C32.6301 20.028 31.7061 20.28 30.6795 20.28Z" fill="white"/>
<path d="M38.3628 20C38.2882 20 38.2508 19.9533 38.2508 19.86L38.2788 0.623979C38.2788 0.549312 38.3162 0.511979 38.3908 0.511979H47.3788C47.4535 0.511979 47.4908 0.558645 47.4908 0.651979V3.78798C47.4908 3.86265 47.4535 3.89998 47.3788 3.89998H41.6388V8.26798H47.3788C47.4535 8.26798 47.4908 8.30531 47.4908 8.37998L47.5188 11.544C47.5188 11.6186 47.4815 11.656 47.4068 11.656H41.6388V16.556H47.4068C47.4815 16.556 47.5188 16.6026 47.5188 16.696V19.888C47.5188 19.9626 47.4815 20 47.4068 20H38.3628Z" fill="white"/>
<path d="M50.1051 20C49.9557 20 49.8811 19.9346 49.8811 19.804L49.8531 0.735979C49.8531 0.586646 49.9277 0.511979 50.0771 0.511979H52.5971L57.3291 11.544L57.1891 0.735979C57.1891 0.586646 57.2731 0.511979 57.4411 0.511979H60.2131C60.3251 0.511979 60.3811 0.586646 60.3811 0.735979L60.4091 19.832C60.4091 19.944 60.3624 20 60.2691 20H57.8051L52.9611 9.69598L53.1571 19.776C53.1571 19.9253 53.0731 20 52.9051 20H50.1051Z" fill="white"/>
<path d="M67.8658 20.28C66.8578 20.28 65.9338 20.028 65.0938 19.524C64.2725 19.0013 63.6098 18.32 63.1058 17.48C62.6018 16.6213 62.3498 15.6786 62.3498 14.652L62.3778 5.77598C62.3778 4.74931 62.6205 3.81598 63.1058 2.97598C63.6098 2.13598 64.2818 1.46398 65.1218 0.95998C65.9618 0.45598 66.8765 0.203979 67.8658 0.203979C68.8738 0.203979 69.7885 0.45598 70.6098 0.95998C71.4311 1.46398 72.0845 2.13598 72.5698 2.97598C73.0738 3.81598 73.3258 4.74931 73.3258 5.77598L73.3538 14.652C73.3538 15.6786 73.1018 16.6213 72.5978 17.48C72.1125 18.32 71.4498 19.0013 70.6098 19.524C69.7885 20.028 68.8738 20.28 67.8658 20.28ZM67.8658 16.892C68.4258 16.892 68.9111 16.668 69.3218 16.22C69.7511 15.7533 69.9658 15.2306 69.9658 14.652L69.9378 5.77598C69.9378 5.15998 69.7418 4.63731 69.3498 4.20798C68.9578 3.77865 68.4631 3.56398 67.8658 3.56398C67.2871 3.56398 66.7925 3.77865 66.3818 4.20798C65.9711 4.61865 65.7658 5.14131 65.7658 5.77598V14.652C65.7658 15.268 65.9711 15.8 66.3818 16.248C66.7925 16.6773 67.2871 16.892 67.8658 16.892Z" fill="white"/>
<path d="M75.4391 20C75.3645 20 75.3271 19.9533 75.3271 19.86L75.3831 0.623979C75.3831 0.549312 75.4205 0.511979 75.4951 0.511979H81.1511C82.1591 0.511979 83.0831 0.763979 83.9231 1.26798C84.7818 1.75331 85.4631 2.41598 85.9671 3.25598C86.4711 4.07731 86.7231 5.01065 86.7231 6.05598C86.7231 6.74665 86.6205 7.37198 86.4151 7.93198C86.2098 8.47331 85.9671 8.93998 85.6871 9.33198C85.4071 9.70531 85.1551 9.98531 84.9311 10.172C85.9391 11.292 86.4431 12.608 86.4431 14.12L86.4711 19.86C86.4711 19.9533 86.4245 20 86.3311 20H83.1671C83.0925 20 83.0551 19.972 83.0551 19.916V14.12C83.0551 13.448 82.8125 12.8693 82.3271 12.384C81.8605 11.88 81.2818 11.628 80.5911 11.628H78.7431L78.7151 19.86C78.7151 19.9533 78.6778 20 78.6031 20H75.4391ZM78.7431 8.26798H81.1511C81.7298 8.26798 82.2431 8.05331 82.6911 7.62398C83.1391 7.19465 83.3631 6.67198 83.3631 6.05598C83.3631 5.45865 83.1391 4.94531 82.6911 4.51598C82.2618 4.08665 81.7485 3.87198 81.1511 3.87198H78.7431V8.26798Z" fill="white"/>
<path d="M90.9325 20C90.8578 20 90.8205 19.9533 90.8205 19.86V3.89998H87.1805C87.0872 3.89998 87.0405 3.85331 87.0405 3.75998L87.0685 0.623979C87.0685 0.549312 87.1058 0.511979 87.1805 0.511979H97.8205C97.9138 0.511979 97.9605 0.549312 97.9605 0.623979V3.75998C97.9605 3.85331 97.9232 3.89998 97.8485 3.89998H94.1805L94.2085 19.86C94.2085 19.9533 94.1712 20 94.0965 20H90.9325Z" fill="white"/>
<path d="M99.3279 20C99.2346 20 99.1879 19.9533 99.1879 19.86L99.2159 0.623979C99.2159 0.549312 99.2532 0.511979 99.3279 0.511979H102.464C102.539 0.511979 102.576 0.549312 102.576 0.623979L102.604 19.86C102.604 19.9533 102.567 20 102.492 20H99.3279Z" fill="white"/>
</svg>
