<svg width="38" height="27" viewBox="0 0 38 27" fill="none" xmlns="http://www.w3.org/2000/svg">
<mask id="path-1-outside-1_1_3851" maskUnits="userSpaceOnUse" x="0" y="0" width="38" height="27" fill="black">
<rect fill="white" width="38" height="27"/>
<path d="M11.6818 25.6364C9.56818 25.6288 7.74242 25.1402 6.20455 24.1705C4.66667 23.2008 3.48106 21.803 2.64773 19.9773C1.81439 18.1515 1.40152 15.9621 1.40909 13.4091C1.41667 10.8485 1.83333 8.67424 2.65909 6.88636C3.49242 5.09848 4.67424 3.73864 6.20455 2.80682C7.74242 1.875 9.56818 1.40909 11.6818 1.40909C13.7955 1.40909 15.6212 1.87879 17.1591 2.81818C18.697 3.75 19.8826 5.10985 20.7159 6.89773C21.5492 8.68561 21.9621 10.8561 21.9545 13.4091C21.9545 15.9773 21.5379 18.1742 20.7045 20C19.8712 21.8258 18.6856 23.2235 17.1477 24.1932C15.6174 25.1553 13.7955 25.6364 11.6818 25.6364ZM11.6818 20.5C12.7727 20.5 13.6667 19.9318 14.3636 18.7955C15.0682 17.6515 15.4167 15.8561 15.4091 13.4091C15.4091 11.8106 15.25 10.5038 14.9318 9.48864C14.6136 8.47348 14.1742 7.72348 13.6136 7.23864C13.053 6.74621 12.4091 6.5 11.6818 6.5C10.5909 6.5 9.70076 7.05303 9.01136 8.15909C8.32197 9.26515 7.9697 11.0152 7.95455 13.4091C7.94697 15.0379 8.10227 16.3788 8.42045 17.4318C8.73864 18.4773 9.17803 19.25 9.73864 19.75C10.3068 20.25 10.9545 20.5 11.6818 20.5ZM36.3295 1.72727V25H30.0114V7.54545H29.875L24.7841 10.5909V5.22727L30.5114 1.72727H36.3295Z"/>
</mask>
<path d="M11.6818 25.6364L11.6782 26.6364H11.6818V25.6364ZM6.20455 24.1705L5.67118 25.0163L6.20455 24.1705ZM2.64773 19.9773L1.73801 20.3925L2.64773 19.9773ZM1.40909 13.4091L2.40909 13.4121V13.4121L1.40909 13.4091ZM2.65909 6.88636L1.75271 6.4639L1.75124 6.46706L2.65909 6.88636ZM6.20455 2.80682L5.68634 1.95156L5.68446 1.9527L6.20455 2.80682ZM17.1591 2.81818L16.6378 3.67157L16.6409 3.67344L17.1591 2.81818ZM20.7159 6.89773L21.6223 6.47526V6.47526L20.7159 6.89773ZM21.9545 13.4091L20.9545 13.4061V13.4091H21.9545ZM20.7045 20L21.6143 20.4152L20.7045 20ZM17.1477 24.1932L17.68 25.0398L17.6811 25.0391L17.1477 24.1932ZM14.3636 18.7955L13.5122 18.271L13.5112 18.2726L14.3636 18.7955ZM15.4091 13.4091H14.4091L14.4091 13.4122L15.4091 13.4091ZM14.9318 9.48864L15.886 9.18955L14.9318 9.48864ZM13.6136 7.23864L12.9537 7.98998L12.9595 7.995L13.6136 7.23864ZM9.01136 8.15909L8.16271 7.63014L9.01136 8.15909ZM7.95455 13.4091L6.95456 13.4028L6.95456 13.4044L7.95455 13.4091ZM8.42045 17.4318L7.4632 17.7211L7.46378 17.723L8.42045 17.4318ZM9.73864 19.75L9.07301 20.4963L9.07801 20.5007L9.73864 19.75ZM11.6818 25.6364L11.6854 24.6364C9.72827 24.6294 8.09278 24.1789 6.73791 23.3246L6.20455 24.1705L5.67118 25.0163C7.39207 26.1014 9.40809 26.6282 11.6782 26.6364L11.6818 25.6364ZM6.20455 24.1705L6.73791 23.3246C5.38165 22.4694 4.31865 21.2298 3.55745 19.562L2.64773 19.9773L1.73801 20.3925C2.64347 22.3763 3.95168 23.9321 5.67118 25.0163L6.20455 24.1705ZM2.64773 19.9773L3.55745 19.562C2.79799 17.8981 2.40183 15.8587 2.40909 13.4121L1.40909 13.4091L0.409095 13.4061C0.401204 16.0655 0.830799 18.4049 1.73801 20.3925L2.64773 19.9773ZM1.40909 13.4091L2.40909 13.4121C2.41636 10.9538 2.8167 8.93003 3.56694 7.30567L2.65909 6.88636L1.75124 6.46706C0.849965 8.41846 0.416974 10.7431 0.409095 13.4061L1.40909 13.4091ZM2.65909 6.88636L3.56547 7.30883C4.32421 5.681 5.37974 4.47985 6.72463 3.66094L6.20455 2.80682L5.68446 1.9527C3.96875 2.99742 2.66064 4.51597 1.75271 6.4639L2.65909 6.88636ZM6.20455 2.80682L6.72275 3.66207C8.07877 2.84044 9.71846 2.40909 11.6818 2.40909V1.40909V0.40909C9.4179 0.40909 7.40607 0.909555 5.68634 1.95156L6.20455 2.80682ZM11.6818 1.40909V2.40909C13.6437 2.40909 15.2823 2.84357 16.6378 3.67157L17.1591 2.81818L17.6804 1.9648C15.9601 0.914009 13.9472 0.40909 11.6818 0.40909V1.40909ZM17.1591 2.81818L16.6409 3.67344C17.993 4.4927 19.0514 5.69368 19.8095 7.32019L20.7159 6.89773L21.6223 6.47526C20.7137 4.52602 19.4009 3.00729 17.6773 1.96293L17.1591 2.81818ZM20.7159 6.89773L19.8095 7.32019C20.5653 8.9417 20.9618 10.9585 20.9545 13.4061L21.9545 13.4091L22.9545 13.4121C22.9624 10.7537 22.5332 8.42951 21.6223 6.47526L20.7159 6.89773ZM21.9545 13.4091H20.9545C20.9545 15.8726 20.5545 17.9204 19.7948 19.5848L20.7045 20L21.6143 20.4152C22.5213 18.4281 22.9545 16.0819 22.9545 13.4091H21.9545ZM20.7045 20L19.7948 19.5848C19.0336 21.2525 17.9706 22.4921 16.6144 23.3473L17.1477 24.1932L17.6811 25.0391C19.4006 23.9549 20.7088 22.399 21.6143 20.4152L20.7045 20ZM17.1477 24.1932L16.6155 23.3466C15.27 24.1925 13.6396 24.6364 11.6818 24.6364V25.6364V26.6364C13.9514 26.6364 15.9649 26.1181 17.68 25.0398L17.1477 24.1932ZM11.6818 20.5V21.5C13.2016 21.5 14.3841 20.6748 15.2161 19.3183L14.3636 18.7955L13.5112 18.2726C12.9492 19.1889 12.3439 19.5 11.6818 19.5V20.5ZM14.3636 18.7955L15.2151 19.3199C16.0687 17.934 16.4168 15.9079 16.4091 13.406L15.4091 13.4091L14.4091 13.4122C14.4165 15.8042 14.0677 17.3691 13.5122 18.271L14.3636 18.7955ZM15.4091 13.4091H16.4091C16.4091 11.7548 16.2457 10.3371 15.886 9.18955L14.9318 9.48864L13.9776 9.78772C14.2543 10.6705 14.4091 11.8664 14.4091 13.4091H15.4091ZM14.9318 9.48864L15.886 9.18955C15.5352 8.07018 15.0174 7.13061 14.2678 6.48227L13.6136 7.23864L12.9595 7.995C13.3311 8.31635 13.6921 8.87679 13.9776 9.78772L14.9318 9.48864ZM13.6136 7.23864L14.2736 6.48732C13.5357 5.83918 12.6588 5.5 11.6818 5.5V6.5V7.5C12.1594 7.5 12.5704 7.65324 12.9537 7.98995L13.6136 7.23864ZM11.6818 6.5V5.5C10.174 5.5 8.99329 6.29757 8.16271 7.63014L9.01136 8.15909L9.86001 8.68804C10.4082 7.80849 11.0078 7.5 11.6818 7.5V6.5ZM9.01136 8.15909L8.16271 7.63014C7.3236 8.97641 6.97005 10.9561 6.95457 13.4028L7.95455 13.4091L8.95452 13.4154C8.96934 11.0742 9.32034 9.55389 9.86001 8.68804L9.01136 8.15909ZM7.95455 13.4091L6.95456 13.4044C6.94672 15.0898 7.10598 16.5388 7.4632 17.7211L8.42045 17.4318L9.37771 17.1426C9.09857 16.2187 8.94722 14.986 8.95453 13.4137L7.95455 13.4091ZM8.42045 17.4318L7.46378 17.723C7.81252 18.8688 8.3268 19.8307 9.07302 20.4963L9.73864 19.75L10.4043 19.0037C10.0293 18.6693 9.66475 18.0857 9.37713 17.1407L8.42045 17.4318ZM9.73864 19.75L9.07801 20.5007C9.82063 21.1542 10.7007 21.5 11.6818 21.5V20.5V19.5C11.2084 19.5 10.793 19.3458 10.3993 18.9993L9.73864 19.75ZM36.3295 1.72727H37.3295V0.727272H36.3295V1.72727ZM36.3295 25V26H37.3295V25H36.3295ZM30.0114 25H29.0114V26H30.0114V25ZM30.0114 7.54545H31.0114V6.54545H30.0114V7.54545ZM29.875 7.54545V6.54545H29.5987L29.3616 6.68729L29.875 7.54545ZM24.7841 10.5909H23.7841V12.3544L25.2975 11.4491L24.7841 10.5909ZM24.7841 5.22727L24.2626 4.37399L23.7841 4.66644V5.22727H24.7841ZM30.5114 1.72727V0.727272H30.23L29.9899 0.87399L30.5114 1.72727ZM36.3295 1.72727H35.3295V25H36.3295H37.3295V1.72727H36.3295ZM36.3295 25V24H30.0114V25V26H36.3295V25ZM30.0114 25H31.0114V7.54545H30.0114H29.0114V25H30.0114ZM30.0114 7.54545V6.54545H29.875V7.54545V8.54545H30.0114V7.54545ZM29.875 7.54545L29.3616 6.68729L24.2707 9.73274L24.7841 10.5909L25.2975 11.4491L30.3884 8.40362L29.875 7.54545ZM24.7841 10.5909H25.7841V5.22727H24.7841H23.7841V10.5909H24.7841ZM24.7841 5.22727L25.3055 6.08055L31.0328 2.58055L30.5114 1.72727L29.9899 0.87399L24.2626 4.37399L24.7841 5.22727ZM30.5114 1.72727V2.72727H36.3295V1.72727V0.727272H30.5114V1.72727Z" fill="#72383D" fill-opacity="0.4" mask="url(#path-1-outside-1_1_3851)"/>
</svg>
