<svg width="80" height="49" viewBox="0 0 80 49" fill="none" xmlns="http://www.w3.org/2000/svg">
<mask id="path-1-outside-1_1_221" maskUnits="userSpaceOnUse" x="-0.248047" y="0" width="81" height="49" fill="black">
<rect fill="white" x="-0.248047" width="81" height="49"/>
<path d="M20.6554 47.1932C16.6923 47.179 13.269 46.2628 10.3855 44.4446C7.50195 42.6264 5.27894 40.0057 3.71644 36.5824C2.15394 33.1591 1.37979 29.054 1.394 24.267C1.4082 19.4659 2.18945 15.3892 3.73775 12.0369C5.30025 8.68466 7.51616 6.13494 10.3855 4.38778C13.269 2.64062 16.6923 1.76704 20.6554 1.76704C24.6184 1.76704 28.0417 2.64773 30.9253 4.40909C33.8088 6.15625 36.0318 8.70596 37.5943 12.0582C39.1568 15.4105 39.9309 19.4801 39.9167 24.267C39.9167 29.0824 39.1355 33.2017 37.573 36.625C36.0105 40.0483 33.7875 42.669 30.9039 44.4872C28.0346 46.2912 24.6184 47.1932 20.6554 47.1932ZM20.6554 37.5625C22.7008 37.5625 24.377 36.4972 25.6838 34.3665C27.0048 32.2216 27.6582 28.8551 27.644 24.267C27.644 21.2699 27.3457 18.8196 26.7491 16.9162C26.1525 15.0128 25.3287 13.6065 24.2775 12.6974C23.2264 11.7741 22.019 11.3125 20.6554 11.3125C18.6099 11.3125 16.9409 12.3494 15.6483 14.4233C14.3556 16.4972 13.6951 19.7784 13.6667 24.267C13.6525 27.321 13.9437 29.8352 14.5403 31.8097C15.1369 33.7699 15.9608 35.2188 17.0119 36.1562C18.0772 37.0938 19.2917 37.5625 20.6554 37.5625ZM45.4778 46V37.4773L61.7562 24.0114C62.8358 23.1165 63.7591 22.2784 64.5261 21.4972C65.3074 20.7017 65.9039 19.8849 66.3159 19.0469C66.742 18.2088 66.9551 17.2784 66.9551 16.2557C66.9551 15.1335 66.7136 14.1747 66.2306 13.3793C65.7619 12.5838 65.1085 11.973 64.2704 11.5469C63.4324 11.1065 62.4664 10.8864 61.3727 10.8864C60.2789 10.8864 59.313 11.1065 58.475 11.5469C57.6511 11.9872 57.0119 12.6335 56.5574 13.4858C56.1028 14.3381 55.8755 15.375 55.8755 16.5966H44.6255C44.6255 13.5284 45.3145 10.8864 46.6923 8.67045C48.0701 6.45455 50.0162 4.75 52.5304 3.55682C55.0446 2.36364 57.992 1.76704 61.3727 1.76704C64.867 1.76704 67.8926 2.32812 70.4494 3.45028C73.0204 4.55824 75.002 6.12074 76.394 8.13778C77.8003 10.1548 78.5034 12.5199 78.5034 15.233C78.5034 16.9091 78.1554 18.5781 77.4593 20.2401C76.7633 21.8878 75.5133 23.7131 73.7093 25.7159C71.9054 27.7188 69.3414 30.1051 66.0176 32.875L61.9267 36.2841V36.5398H78.9721V46H45.4778Z"/>
</mask>
<path d="M20.6554 47.1932L20.6518 48.1932H20.6554V47.1932ZM10.3855 44.4446L9.85211 45.2905L10.3855 44.4446ZM3.71644 36.5824L2.80672 36.9976L3.71644 36.5824ZM1.394 24.267L2.39399 24.27V24.27L1.394 24.267ZM3.73775 12.0369L2.83136 11.6145L2.8299 11.6176L3.73775 12.0369ZM10.3855 4.38778L9.86727 3.53253L9.8654 3.53367L10.3855 4.38778ZM30.9253 4.40909L30.404 5.26248L30.407 5.26435L30.9253 4.40909ZM37.5943 12.0582L38.5007 11.6358L37.5943 12.0582ZM39.9167 24.267L38.9167 24.2641V24.267H39.9167ZM37.573 36.625L38.4827 37.0402L37.573 36.625ZM30.9039 44.4872L31.4362 45.3338L31.4373 45.3331L30.9039 44.4872ZM25.6838 34.3665L24.8323 33.8421L24.8313 33.8436L25.6838 34.3665ZM27.644 24.267H26.644L26.644 24.2701L27.644 24.267ZM26.7491 16.9162L27.7033 16.6171L26.7491 16.9162ZM24.2775 12.6974L23.6176 13.4488L23.6234 13.4538L24.2775 12.6974ZM15.6483 14.4233L14.7996 13.8943L15.6483 14.4233ZM13.6667 24.267L12.6667 24.2607L12.6667 24.2624L13.6667 24.267ZM14.5403 31.8097L13.583 32.0989L13.5836 32.1008L14.5403 31.8097ZM17.0119 36.1562L16.3463 36.9026L16.3513 36.907L17.0119 36.1562ZM20.6554 47.1932L20.6589 46.1932C16.8524 46.1795 13.6194 45.3015 10.9188 43.5987L10.3855 44.4446L9.85211 45.2905C12.9186 47.2241 16.5322 48.1784 20.6518 48.1932L20.6554 47.1932ZM10.3855 44.4446L10.9188 43.5987C8.21694 41.8951 6.11654 39.4324 4.62616 36.1672L3.71644 36.5824L2.80672 36.9976C4.44135 40.5789 6.78697 43.3578 9.85211 45.2905L10.3855 44.4446ZM3.71644 36.5824L4.62616 36.1672C3.13754 32.9057 2.38011 28.9506 2.39399 24.27L1.394 24.267L0.394003 24.2641C0.379483 29.1574 1.17035 33.4125 2.80672 36.9976L3.71644 36.5824ZM1.394 24.267L2.39399 24.27C2.4079 19.5713 3.17282 15.645 4.6456 12.4562L3.73775 12.0369L2.8299 11.6176C1.20608 15.1334 0.408511 19.3605 0.394003 24.2641L1.394 24.267ZM3.73775 12.0369L4.64413 12.4594C6.13203 9.26717 8.22165 6.87616 10.9056 5.2419L10.3855 4.38778L9.8654 3.53367C6.81066 5.39373 4.46847 8.10215 2.83137 11.6145L3.73775 12.0369ZM10.3855 4.38778L10.9037 5.24304C13.6053 3.60607 16.8426 2.76704 20.6554 2.76704V1.76704V0.767044C16.542 0.767044 12.9326 1.67518 9.86727 3.53253L10.3855 4.38778ZM20.6554 1.76704V2.76704C24.4667 2.76704 27.7028 3.6125 30.404 5.26248L30.9253 4.40909L31.4465 3.55571C28.3806 1.68295 24.7701 0.767044 20.6554 0.767044V1.76704ZM30.9253 4.40909L30.407 5.26435C33.1048 6.89895 35.2006 9.28979 36.6879 12.4807L37.5943 12.0582L38.5007 11.6358C36.8629 8.12213 34.5127 5.41354 31.4435 3.55384L30.9253 4.40909ZM37.5943 12.0582L36.6879 12.4807C38.1729 15.6666 38.9306 19.5825 38.9167 24.2641L39.9167 24.267L40.9167 24.27C40.9312 19.3777 40.1407 15.1544 38.5007 11.6358L37.5943 12.0582ZM39.9167 24.267H38.9167C38.9167 28.9777 38.1521 32.9479 36.6633 36.2098L37.573 36.625L38.4827 37.0402C40.1189 33.4555 40.9167 29.1871 40.9167 24.267H39.9167ZM37.573 36.625L36.6633 36.2098C35.1729 39.4751 33.0725 41.9377 30.3706 43.6413L30.9039 44.4872L31.4373 45.3331C34.5024 43.4004 36.8481 40.6215 38.4827 37.0402L37.573 36.625ZM30.9039 44.4872L30.3717 43.6406C27.6872 45.3284 24.4625 46.1932 20.6554 46.1932V47.1932V48.1932C24.7743 48.1932 28.3821 47.254 31.4362 45.3338L30.9039 44.4872ZM20.6554 37.5625V38.5625C23.1297 38.5625 25.0944 37.2401 26.5362 34.8893L25.6838 34.3665L24.8313 33.8436C23.6595 35.7542 22.272 36.5625 20.6554 36.5625V37.5625ZM25.6838 34.3665L26.5352 34.8909C28.0053 32.504 28.6584 28.907 28.644 24.264L27.644 24.267L26.644 24.2701C26.658 28.8032 26.0043 31.9392 24.8323 33.8421L25.6838 34.3665ZM27.644 24.267H28.644C28.644 21.214 28.3414 18.6529 27.7033 16.6171L26.7491 16.9162L25.7949 17.2153C26.35 18.9863 26.644 21.3257 26.644 24.267H27.644ZM26.7491 16.9162L27.7033 16.6171C27.0741 14.6095 26.1718 13.0137 24.9317 11.9411L24.2775 12.6974L23.6234 13.4538C24.4855 14.1994 25.231 15.4161 25.7949 17.2153L26.7491 16.9162ZM24.2775 12.6974L24.9375 11.9461C23.7091 10.8671 22.2687 10.3125 20.6554 10.3125V11.3125V12.3125C21.7693 12.3125 22.7437 12.6812 23.6176 13.4488L24.2775 12.6974ZM20.6554 11.3125V10.3125C18.193 10.3125 16.2334 11.594 14.7996 13.8943L15.6483 14.4233L16.4969 14.9522C17.6483 13.1049 19.0268 12.3125 20.6554 12.3125V11.3125ZM15.6483 14.4233L14.7996 13.8943C13.3573 16.2084 12.6955 19.7193 12.6667 24.2607L13.6667 24.267L14.6667 24.2734C14.6948 19.8375 15.354 16.7859 16.4969 14.9522L15.6483 14.4233ZM13.6667 24.267L12.6667 24.2624C12.6523 27.3729 12.9474 29.9953 13.5831 32.0989L14.5403 31.8097L15.4976 31.5204C14.94 29.6752 14.6528 27.2691 14.6667 24.2717L13.6667 24.267ZM14.5403 31.8097L13.5836 32.1008C14.2108 34.1615 15.1095 35.7995 16.3463 36.9025L17.0119 36.1562L17.6775 35.41C16.812 34.638 16.063 33.3783 15.497 31.5185L14.5403 31.8097ZM17.0119 36.1562L16.3513 36.907C17.5911 37.998 19.0379 38.5625 20.6554 38.5625V37.5625V36.5625C19.5455 36.5625 18.5634 36.1895 17.6725 35.4055L17.0119 36.1562ZM45.4778 46H44.4778V47H45.4778V46ZM45.4778 37.4773L44.8404 36.7067L44.4778 37.0067V37.4773H45.4778ZM61.7562 24.0114L62.3936 24.7819L62.3944 24.7812L61.7562 24.0114ZM64.5261 21.4972L63.8127 20.7965L63.8125 20.7966L64.5261 21.4972ZM66.3159 19.0469L65.4244 18.5936L65.4184 18.6058L66.3159 19.0469ZM66.2306 13.3793L65.369 13.887L65.3759 13.8982L66.2306 13.3793ZM64.2704 11.5469L63.8053 12.4322L63.8172 12.4383L64.2704 11.5469ZM58.475 11.5469L58.0098 10.6616L58.0036 10.6649L58.475 11.5469ZM56.5574 13.4858L55.675 13.0152L56.5574 13.4858ZM55.8755 16.5966V17.5966H56.8755V16.5966H55.8755ZM44.6255 16.5966H43.6255V17.5966H44.6255V16.5966ZM46.6923 8.67045L45.8431 8.14241L46.6923 8.67045ZM52.5304 3.55682L52.9591 4.46024L52.5304 3.55682ZM70.4494 3.45028L70.0475 4.36599L70.0536 4.36864L70.4494 3.45028ZM76.394 8.13778L75.571 8.70579L75.5737 8.70969L76.394 8.13778ZM77.4593 20.2401L78.3805 20.6292L78.3817 20.6264L77.4593 20.2401ZM73.7093 25.7159L74.4524 26.3852L73.7093 25.7159ZM66.0176 32.875L66.6578 33.6432L66.0176 32.875ZM61.9267 36.2841L61.2865 35.5159L60.9267 35.8157V36.2841H61.9267ZM61.9267 36.5398H60.9267V37.5398H61.9267V36.5398ZM78.9721 36.5398H79.9721V35.5398H78.9721V36.5398ZM78.9721 46V47H79.9721V46H78.9721ZM45.4778 46H46.4778V37.4773H45.4778H44.4778V46H45.4778ZM45.4778 37.4773L46.1152 38.2478L62.3936 24.7819L61.7562 24.0114L61.1188 23.2408L44.8404 36.7067L45.4778 37.4773ZM61.7562 24.0114L62.3944 24.7812C63.4934 23.8703 64.4432 23.009 65.2397 22.1978L64.5261 21.4972L63.8125 20.7966C63.075 21.5478 62.1782 22.3627 61.118 23.2415L61.7562 24.0114ZM64.5261 21.4972L65.2395 22.1979C66.0815 21.3406 66.7462 20.4384 67.2133 19.488L66.3159 19.0469L65.4184 18.6058C65.0617 19.3315 64.5332 20.0628 63.8127 20.7965L64.5261 21.4972ZM66.3159 19.0469L67.2073 19.5001C67.7109 18.5096 67.9551 17.4218 67.9551 16.2557H66.9551H65.9551C65.9551 17.135 65.7731 17.908 65.4245 18.5936L66.3159 19.0469ZM66.9551 16.2557H67.9551C67.9551 14.9883 67.6813 13.8416 67.0854 12.8603L66.2306 13.3793L65.3759 13.8982C65.7459 14.5078 65.9551 15.2787 65.9551 16.2557H66.9551ZM66.2306 13.3793L67.0922 12.8716C66.5248 11.9088 65.7283 11.1663 64.7237 10.6555L64.2704 11.5469L63.8172 12.4383C64.4887 12.7797 64.999 13.2588 65.3691 13.887L66.2306 13.3793ZM64.2704 11.5469L64.7355 10.6616C63.7332 10.135 62.6032 9.88636 61.3727 9.88636V10.8864V11.8864C62.3297 11.8864 63.1315 12.0781 63.8053 12.4321L64.2704 11.5469ZM61.3727 10.8864V9.88636C60.1422 9.88636 59.0122 10.135 58.0098 10.6616L58.475 11.5469L58.9401 12.4321C59.6139 12.0781 60.4157 11.8864 61.3727 11.8864V10.8864ZM58.475 11.5469L58.0036 10.6649C56.9988 11.202 56.2194 11.9944 55.675 13.0152L56.5574 13.4858L57.4397 13.9564C57.8044 13.2726 58.3034 12.7725 58.9463 12.4288L58.475 11.5469ZM56.5574 13.4858L55.675 13.0152C55.1254 14.0457 54.8755 15.2533 54.8755 16.5966H55.8755H56.8755C56.8755 15.4967 57.0802 14.6305 57.4397 13.9564L56.5574 13.4858ZM55.8755 16.5966V15.5966H44.6255V16.5966V17.5966H55.8755V16.5966ZM44.6255 16.5966H45.6255C45.6255 13.6818 46.2784 11.2298 47.5415 9.19849L46.6923 8.67045L45.8431 8.14241C44.3505 10.5429 43.6255 13.3751 43.6255 16.5966H44.6255ZM46.6923 8.67045L47.5415 9.19849C48.8113 7.15642 50.6061 5.57693 52.9591 4.46024L52.5304 3.55682L52.1016 2.65339C49.4262 3.92307 47.329 5.75267 45.8431 8.14241L46.6923 8.67045ZM52.5304 3.55682L52.9591 4.46024C55.3137 3.34282 58.109 2.76704 61.3727 2.76704V1.76704V0.767044C57.875 0.767044 54.7755 1.38445 52.1016 2.65339L52.5304 3.55682ZM61.3727 1.76704V2.76704C64.7624 2.76704 67.645 3.31152 70.0475 4.36597L70.4494 3.45028L70.8513 2.53459C68.1402 1.34472 64.9717 0.767044 61.3727 0.767044V1.76704ZM70.4494 3.45028L70.0536 4.36864C72.4773 5.41309 74.3002 6.86442 75.571 8.70579L76.394 8.13778L77.217 7.56978C75.7037 5.37706 73.5635 3.70339 70.8452 2.53193L70.4494 3.45028ZM76.394 8.13778L75.5737 8.70969C76.8509 10.5417 77.5034 12.7023 77.5034 15.233H78.5034H79.5034C79.5034 12.3375 78.7496 9.76796 77.2143 7.56587L76.394 8.13778ZM78.5034 15.233H77.5034C77.5034 16.7668 77.1856 18.3049 76.537 19.8538L77.4593 20.2401L78.3817 20.6264C79.1251 18.8513 79.5034 17.0514 79.5034 15.233H78.5034ZM77.4593 20.2401L76.5382 19.8509C75.9016 21.3579 74.7296 23.089 72.9663 25.0467L73.7093 25.7159L74.4524 26.3852C76.297 24.3372 77.6251 22.4176 78.3805 20.6292L77.4593 20.2401ZM73.7093 25.7159L72.9663 25.0467C71.2074 26.9995 68.6837 29.3515 65.3774 32.1068L66.0176 32.875L66.6578 33.6432C69.9992 30.8587 72.6034 28.438 74.4524 26.3852L73.7093 25.7159ZM66.0176 32.875L65.3774 32.1068L61.2865 35.5159L61.9267 36.2841L62.5669 37.0523L66.6578 33.6432L66.0176 32.875ZM61.9267 36.2841H60.9267V36.5398H61.9267H62.9267V36.2841H61.9267ZM61.9267 36.5398V37.5398H78.9721V36.5398V35.5398H61.9267V36.5398ZM78.9721 36.5398H77.9721V46H78.9721H79.9721V36.5398H78.9721ZM78.9721 46V45H45.4778V46V47H78.9721V46Z" fill="#B49894" mask="url(#path-1-outside-1_1_221)"/>
</svg>
