<svg width="44" height="27" viewBox="0 0 44 27" fill="none" xmlns="http://www.w3.org/2000/svg">
<mask id="path-1-outside-1_1_3857" maskUnits="userSpaceOnUse" x="0" y="0" width="44" height="27" fill="black">
<rect fill="white" width="44" height="27"/>
<path d="M11.6818 25.6364C9.56818 25.6288 7.74242 25.1402 6.20455 24.1705C4.66667 23.2008 3.48106 21.803 2.64773 19.9773C1.81439 18.1515 1.40152 15.9621 1.40909 13.4091C1.41667 10.8485 1.83333 8.67424 2.65909 6.88636C3.49242 5.09848 4.67424 3.73864 6.20455 2.80682C7.74242 1.875 9.56818 1.40909 11.6818 1.40909C13.7955 1.40909 15.6212 1.87879 17.1591 2.81818C18.697 3.75 19.8826 5.10985 20.7159 6.89773C21.5492 8.68561 21.9621 10.8561 21.9545 13.4091C21.9545 15.9773 21.5379 18.1742 20.7045 20C19.8712 21.8258 18.6856 23.2235 17.1477 24.1932C15.6174 25.1553 13.7955 25.6364 11.6818 25.6364ZM11.6818 20.5C12.7727 20.5 13.6667 19.9318 14.3636 18.7955C15.0682 17.6515 15.4167 15.8561 15.4091 13.4091C15.4091 11.8106 15.25 10.5038 14.9318 9.48864C14.6136 8.47348 14.1742 7.72348 13.6136 7.23864C13.053 6.74621 12.4091 6.5 11.6818 6.5C10.5909 6.5 9.70076 7.05303 9.01136 8.15909C8.32197 9.26515 7.9697 11.0152 7.95455 13.4091C7.94697 15.0379 8.10227 16.3788 8.42045 17.4318C8.73864 18.4773 9.17803 19.25 9.73864 19.75C10.3068 20.25 10.9545 20.5 11.6818 20.5ZM24.9205 25V20.4545L33.6023 13.2727C34.178 12.7955 34.6705 12.3485 35.0795 11.9318C35.4962 11.5076 35.8144 11.072 36.0341 10.625C36.2614 10.178 36.375 9.68182 36.375 9.13636C36.375 8.53788 36.2462 8.02651 35.9886 7.60227C35.7386 7.17803 35.3902 6.85227 34.9432 6.625C34.4962 6.39015 33.9811 6.27273 33.3977 6.27273C32.8144 6.27273 32.2992 6.39015 31.8523 6.625C31.4129 6.85985 31.072 7.20454 30.8295 7.65909C30.5871 8.11364 30.4659 8.66667 30.4659 9.31818H24.4659C24.4659 7.68182 24.8333 6.27273 25.5682 5.09091C26.303 3.90909 27.3409 3 28.6818 2.36364C30.0227 1.72727 31.5947 1.40909 33.3977 1.40909C35.2614 1.40909 36.875 1.70833 38.2386 2.30682C39.6098 2.89773 40.6667 3.73106 41.4091 4.80682C42.1591 5.88258 42.5341 7.14394 42.5341 8.59091C42.5341 9.48485 42.3485 10.375 41.9773 11.2614C41.6061 12.1402 40.9394 13.1136 39.9773 14.1818C39.0152 15.25 37.6477 16.5227 35.875 18L33.6932 19.8182V19.9545H42.7841V25H24.9205Z"/>
</mask>
<path d="M11.6818 25.6364L11.6782 26.6364H11.6818V25.6364ZM6.20455 24.1705L5.67118 25.0163L6.20455 24.1705ZM2.64773 19.9773L1.73801 20.3925L2.64773 19.9773ZM1.40909 13.4091L2.40909 13.4121V13.4121L1.40909 13.4091ZM2.65909 6.88636L1.75271 6.4639L1.75124 6.46706L2.65909 6.88636ZM6.20455 2.80682L5.68634 1.95156L5.68446 1.9527L6.20455 2.80682ZM17.1591 2.81818L16.6378 3.67157L16.6409 3.67344L17.1591 2.81818ZM20.7159 6.89773L21.6223 6.47526V6.47526L20.7159 6.89773ZM21.9545 13.4091L20.9545 13.4061V13.4091H21.9545ZM20.7045 20L21.6143 20.4152L20.7045 20ZM17.1477 24.1932L17.68 25.0398L17.6811 25.0391L17.1477 24.1932ZM14.3636 18.7955L13.5122 18.271L13.5112 18.2726L14.3636 18.7955ZM15.4091 13.4091H14.4091L14.4091 13.4122L15.4091 13.4091ZM14.9318 9.48864L15.886 9.18955L14.9318 9.48864ZM13.6136 7.23864L12.9537 7.98998L12.9595 7.995L13.6136 7.23864ZM9.01136 8.15909L8.16271 7.63014L9.01136 8.15909ZM7.95455 13.4091L6.95456 13.4028L6.95456 13.4044L7.95455 13.4091ZM8.42045 17.4318L7.4632 17.7211L7.46378 17.723L8.42045 17.4318ZM9.73864 19.75L9.07301 20.4963L9.07801 20.5007L9.73864 19.75ZM11.6818 25.6364L11.6854 24.6364C9.72827 24.6294 8.09278 24.1789 6.73791 23.3246L6.20455 24.1705L5.67118 25.0163C7.39207 26.1014 9.40809 26.6282 11.6782 26.6364L11.6818 25.6364ZM6.20455 24.1705L6.73791 23.3246C5.38165 22.4694 4.31865 21.2298 3.55745 19.562L2.64773 19.9773L1.73801 20.3925C2.64347 22.3763 3.95168 23.9321 5.67118 25.0163L6.20455 24.1705ZM2.64773 19.9773L3.55745 19.562C2.79799 17.8981 2.40183 15.8587 2.40909 13.4121L1.40909 13.4091L0.409095 13.4061C0.401204 16.0655 0.830799 18.4049 1.73801 20.3925L2.64773 19.9773ZM1.40909 13.4091L2.40909 13.4121C2.41636 10.9538 2.8167 8.93003 3.56694 7.30567L2.65909 6.88636L1.75124 6.46706C0.849965 8.41846 0.416974 10.7431 0.409095 13.4061L1.40909 13.4091ZM2.65909 6.88636L3.56547 7.30883C4.32421 5.681 5.37974 4.47985 6.72463 3.66094L6.20455 2.80682L5.68446 1.9527C3.96875 2.99742 2.66064 4.51597 1.75271 6.4639L2.65909 6.88636ZM6.20455 2.80682L6.72275 3.66207C8.07877 2.84044 9.71846 2.40909 11.6818 2.40909V1.40909V0.40909C9.4179 0.40909 7.40607 0.909555 5.68634 1.95156L6.20455 2.80682ZM11.6818 1.40909V2.40909C13.6437 2.40909 15.2823 2.84357 16.6378 3.67157L17.1591 2.81818L17.6804 1.9648C15.9601 0.914009 13.9472 0.40909 11.6818 0.40909V1.40909ZM17.1591 2.81818L16.6409 3.67344C17.993 4.4927 19.0514 5.69368 19.8095 7.32019L20.7159 6.89773L21.6223 6.47526C20.7137 4.52602 19.4009 3.00729 17.6773 1.96293L17.1591 2.81818ZM20.7159 6.89773L19.8095 7.32019C20.5653 8.9417 20.9618 10.9585 20.9545 13.4061L21.9545 13.4091L22.9545 13.4121C22.9624 10.7537 22.5332 8.42951 21.6223 6.47526L20.7159 6.89773ZM21.9545 13.4091H20.9545C20.9545 15.8726 20.5545 17.9204 19.7948 19.5848L20.7045 20L21.6143 20.4152C22.5213 18.4281 22.9545 16.0819 22.9545 13.4091H21.9545ZM20.7045 20L19.7948 19.5848C19.0336 21.2525 17.9706 22.4921 16.6144 23.3473L17.1477 24.1932L17.6811 25.0391C19.4006 23.9549 20.7088 22.399 21.6143 20.4152L20.7045 20ZM17.1477 24.1932L16.6155 23.3466C15.27 24.1925 13.6396 24.6364 11.6818 24.6364V25.6364V26.6364C13.9514 26.6364 15.9649 26.1181 17.68 25.0398L17.1477 24.1932ZM11.6818 20.5V21.5C13.2016 21.5 14.3841 20.6748 15.2161 19.3183L14.3636 18.7955L13.5112 18.2726C12.9492 19.1889 12.3439 19.5 11.6818 19.5V20.5ZM14.3636 18.7955L15.2151 19.3199C16.0687 17.934 16.4168 15.9079 16.4091 13.406L15.4091 13.4091L14.4091 13.4122C14.4165 15.8042 14.0677 17.3691 13.5122 18.271L14.3636 18.7955ZM15.4091 13.4091H16.4091C16.4091 11.7548 16.2457 10.3371 15.886 9.18955L14.9318 9.48864L13.9776 9.78772C14.2543 10.6705 14.4091 11.8664 14.4091 13.4091H15.4091ZM14.9318 9.48864L15.886 9.18955C15.5352 8.07018 15.0174 7.13061 14.2678 6.48227L13.6136 7.23864L12.9595 7.995C13.3311 8.31635 13.6921 8.87679 13.9776 9.78772L14.9318 9.48864ZM13.6136 7.23864L14.2736 6.48732C13.5357 5.83918 12.6588 5.5 11.6818 5.5V6.5V7.5C12.1594 7.5 12.5704 7.65324 12.9537 7.98995L13.6136 7.23864ZM11.6818 6.5V5.5C10.174 5.5 8.99329 6.29757 8.16271 7.63014L9.01136 8.15909L9.86001 8.68804C10.4082 7.80849 11.0078 7.5 11.6818 7.5V6.5ZM9.01136 8.15909L8.16271 7.63014C7.3236 8.97641 6.97005 10.9561 6.95457 13.4028L7.95455 13.4091L8.95452 13.4154C8.96934 11.0742 9.32034 9.55389 9.86001 8.68804L9.01136 8.15909ZM7.95455 13.4091L6.95456 13.4044C6.94672 15.0898 7.10598 16.5388 7.4632 17.7211L8.42045 17.4318L9.37771 17.1426C9.09857 16.2187 8.94722 14.986 8.95453 13.4137L7.95455 13.4091ZM8.42045 17.4318L7.46378 17.723C7.81252 18.8688 8.3268 19.8307 9.07302 20.4963L9.73864 19.75L10.4043 19.0037C10.0293 18.6693 9.66475 18.0857 9.37713 17.1407L8.42045 17.4318ZM9.73864 19.75L9.07801 20.5007C9.82063 21.1542 10.7007 21.5 11.6818 21.5V20.5V19.5C11.2084 19.5 10.793 19.3458 10.3993 18.9993L9.73864 19.75ZM24.9205 25H23.9205V26H24.9205V25ZM24.9205 20.4545L24.2831 19.684L23.9205 19.984V20.4545H24.9205ZM33.6023 13.2727L34.2397 14.0433L34.2405 14.0426L33.6023 13.2727ZM35.0795 11.9318L34.3661 11.2311L34.366 11.2312L35.0795 11.9318ZM36.0341 10.625L35.1426 10.1717L35.1366 10.1839L36.0341 10.625ZM35.9886 7.60227L35.127 8.11001L35.1339 8.12125L35.9886 7.60227ZM34.9432 6.625L34.478 7.51032L34.4899 7.51639L34.9432 6.625ZM31.8523 6.625L31.3871 5.73973L31.3809 5.74307L31.8523 6.625ZM30.8295 7.65909L29.9472 7.1885V7.1885L30.8295 7.65909ZM30.4659 9.31818V10.3182H31.4659V9.31818H30.4659ZM24.4659 9.31818H23.4659V10.3182H24.4659V9.31818ZM25.5682 5.09091L24.719 4.56287L24.719 4.56287L25.5682 5.09091ZM28.6818 2.36364L29.1106 3.26706L28.6818 2.36364ZM38.2386 2.30682L37.8367 3.22253L37.8429 3.22517L38.2386 2.30682ZM41.4091 4.80682L40.5861 5.37483L40.5888 5.37873L41.4091 4.80682ZM41.9773 11.2614L42.8985 11.6505L42.8997 11.6477L41.9773 11.2614ZM39.9773 14.1818L40.7203 14.8511L39.9773 14.1818ZM35.875 18L36.5152 18.7682L35.875 18ZM33.6932 19.8182L33.053 19.05L32.6932 19.3498V19.8182H33.6932ZM33.6932 19.9545H32.6932V20.9545H33.6932V19.9545ZM42.7841 19.9545H43.7841V18.9545H42.7841V19.9545ZM42.7841 25V26H43.7841V25H42.7841ZM24.9205 25H25.9205V20.4545H24.9205H23.9205V25H24.9205ZM24.9205 20.4545L25.5579 21.2251L34.2397 14.0433L33.6023 13.2727L32.9649 12.5022L24.2831 19.684L24.9205 20.4545ZM33.6023 13.2727L34.2405 14.0426C34.8356 13.5492 35.3546 13.0791 35.7931 12.6324L35.0795 11.9318L34.366 11.2312C33.9864 11.6179 33.5204 12.0417 32.9641 12.5028L33.6023 13.2727ZM35.0795 11.9318L35.793 12.6325C36.2704 12.1465 36.6566 11.6254 36.9315 11.0661L36.0341 10.625L35.1366 10.1839C34.9721 10.5186 34.722 10.8687 34.3661 11.2311L35.0795 11.9318ZM36.0341 10.625L36.9255 11.0782C37.2303 10.4788 37.375 9.82524 37.375 9.13636H36.375H35.375C35.375 9.53839 35.2924 9.87726 35.1427 10.1718L36.0341 10.625ZM36.375 9.13636H37.375C37.375 8.39268 37.2139 7.69343 36.8434 7.08329L35.9886 7.60227L35.1339 8.12125C35.2786 8.3596 35.375 8.68307 35.375 9.13636H36.375ZM35.9886 7.60227L36.8502 7.09458C36.5016 6.503 36.01 6.04559 35.3964 5.73361L34.9432 6.625L34.4899 7.51639C34.7703 7.65895 34.9757 7.85306 35.1271 8.10996L35.9886 7.60227ZM34.9432 6.625L35.4083 5.73976C34.7971 5.41859 34.1178 5.27273 33.3977 5.27273V6.27273V7.27273C33.8443 7.27273 34.1954 7.36171 34.4781 7.51024L34.9432 6.625ZM33.3977 6.27273V5.27273C32.6776 5.27273 31.9984 5.41859 31.3871 5.73976L31.8523 6.625L32.3174 7.51024C32.6001 7.36171 32.9512 7.27273 33.3977 7.27273V6.27273ZM31.8523 6.625L31.3809 5.74307C30.7606 6.0746 30.2795 6.56546 29.9472 7.1885L30.8295 7.65909L31.7119 8.12968C31.8645 7.84363 32.0652 7.64509 32.3237 7.50693L31.8523 6.625ZM30.8295 7.65909L29.9472 7.1885C29.6097 7.82123 29.4659 8.54501 29.4659 9.31818H30.4659H31.4659C31.4659 8.78832 31.5645 8.40604 31.7119 8.12968L30.8295 7.65909ZM30.4659 9.31818V8.31818H24.4659V9.31818V10.3182H30.4659V9.31818ZM24.4659 9.31818H25.4659C25.4659 7.83517 25.7973 6.6162 26.4174 5.61895L25.5682 5.09091L24.719 4.56287C23.8694 5.92925 23.4659 7.52847 23.4659 9.31818H24.4659ZM25.5682 5.09091L26.4174 5.61895C27.0442 4.61097 27.9308 3.82693 29.1106 3.26706L28.6818 2.36364L28.2531 1.46021C26.751 2.17307 25.5619 3.20721 24.719 4.56287L25.5682 5.09091ZM28.6818 2.36364L29.1106 3.26706C30.2918 2.70646 31.7117 2.40909 33.3977 2.40909V1.40909V0.40909C31.4777 0.40909 29.7536 0.748084 28.2531 1.46021L28.6818 2.36364ZM33.3977 1.40909V2.40909C35.1567 2.40909 36.6274 2.69173 37.8368 3.22251L38.2386 2.30682L38.6405 1.39113C37.1226 0.724933 35.366 0.40909 33.3977 0.40909V1.40909ZM38.2386 2.30682L37.8429 3.22517C39.0667 3.75258 39.9649 4.47474 40.5861 5.37482L41.4091 4.80682L42.2321 4.23881C41.3685 2.98738 40.153 2.04288 38.6344 1.38846L38.2386 2.30682ZM41.4091 4.80682L40.5888 5.37873C41.2098 6.26944 41.5341 7.32635 41.5341 8.59091H42.5341H43.5341C43.5341 6.96152 43.1084 5.49571 42.2294 4.23491L41.4091 4.80682ZM42.5341 8.59091H41.5341C41.5341 9.34251 41.3788 10.1018 41.0549 10.8751L41.9773 11.2614L42.8997 11.6477C43.3182 10.6482 43.5341 9.62718 43.5341 8.59091H42.5341ZM41.9773 11.2614L41.0561 10.8722C40.7443 11.6103 40.1557 12.4895 39.2342 13.5126L39.9773 14.1818L40.7203 14.8511C41.7231 13.7377 42.4678 12.67 42.8985 11.6505L41.9773 11.2614ZM39.9773 14.1818L39.2342 13.5126C38.3171 14.5308 36.99 15.7691 35.2348 17.2318L35.875 18L36.5152 18.7682C38.3055 17.2763 39.7132 15.9692 40.7203 14.8511L39.9773 14.1818ZM35.875 18L35.2348 17.2318L33.053 19.05L33.6932 19.8182L34.3334 20.5864L36.5152 18.7682L35.875 18ZM33.6932 19.8182H32.6932V19.9545H33.6932H34.6932V19.8182H33.6932ZM33.6932 19.9545V20.9545H42.7841V19.9545V18.9545H33.6932V19.9545ZM42.7841 19.9545H41.7841V25H42.7841H43.7841V19.9545H42.7841ZM42.7841 25V24H24.9205V25V26H42.7841V25Z" fill="#72383D" fill-opacity="0.4" mask="url(#path-1-outside-1_1_3857)"/>
</svg>
