<svg width="82" height="49" viewBox="0 0 82 49" fill="none" xmlns="http://www.w3.org/2000/svg">
<mask id="path-1-outside-1_1_227" maskUnits="userSpaceOnUse" x="-0.429688" y="0" width="82" height="49" fill="black">
<rect fill="white" x="-0.429688" width="82" height="49"/>
<path d="M20.4737 47.1932C16.5107 47.179 13.0874 46.2628 10.2038 44.4446C7.32031 42.6264 5.0973 40.0057 3.5348 36.5824C1.9723 33.1591 1.19815 29.054 1.21236 24.267C1.22656 19.4659 2.00781 15.3892 3.55611 12.0369C5.11861 8.68466 7.33452 6.13494 10.2038 4.38778C13.0874 2.64062 16.5107 1.76704 20.4737 1.76704C24.4368 1.76704 27.8601 2.64773 30.7436 4.40909C33.6271 6.15625 35.8501 8.70596 37.4126 12.0582C38.9751 15.4105 39.7493 19.4801 39.7351 24.267C39.7351 29.0824 38.9538 33.2017 37.3913 36.625C35.8288 40.0483 33.6058 42.669 30.7223 44.4872C27.853 46.2912 24.4368 47.1932 20.4737 47.1932ZM20.4737 37.5625C22.5192 37.5625 24.1953 36.4972 25.5021 34.3665C26.8232 32.2216 27.4766 28.8551 27.4624 24.267C27.4624 21.2699 27.1641 18.8196 26.5675 16.9162C25.9709 15.0128 25.147 13.6065 24.0959 12.6974C23.0447 11.7741 21.8374 11.3125 20.4737 11.3125C18.4283 11.3125 16.7592 12.3494 15.4666 14.4233C14.174 16.4972 13.5135 19.7784 13.4851 24.267C13.4709 27.321 13.7621 29.8352 14.3587 31.8097C14.9553 33.7699 15.7791 35.2188 16.8303 36.1562C17.8956 37.0938 19.1101 37.5625 20.4737 37.5625ZM62.3416 46.5966C58.9041 46.5966 55.8501 46.0071 53.1797 44.8281C50.5234 43.6349 48.4354 41.9943 46.9155 39.9062C45.3956 37.8182 44.6286 35.4176 44.6143 32.7045H56.5462C56.5604 33.5426 56.8161 34.2955 57.3132 34.9631C57.8246 35.6165 58.5206 36.1278 59.4013 36.4972C60.282 36.8665 61.2905 37.0511 62.4268 37.0511C63.5206 37.0511 64.4865 36.8594 65.3246 36.4759C66.1626 36.0781 66.8161 35.5312 67.2848 34.8352C67.7536 34.1392 67.9808 33.3437 67.9666 32.4489C67.9808 31.5682 67.7109 30.7869 67.157 30.1051C66.6172 29.4233 65.8572 28.8906 64.8771 28.5071C63.897 28.1236 62.7678 27.9318 61.4893 27.9318H57.0575V19.75H61.4893C62.6683 19.75 63.7053 19.5582 64.6001 19.1747C65.5092 18.7912 66.2124 18.2585 66.7095 17.5767C67.2209 16.8949 67.4695 16.1136 67.4553 15.233C67.4695 14.3807 67.2635 13.6278 66.8374 12.9744C66.4112 12.321 65.8146 11.8097 65.0476 11.4403C64.2947 11.071 63.4212 10.8864 62.4268 10.8864C61.3473 10.8864 60.3814 11.0781 59.5291 11.4616C58.6911 11.8452 58.0305 12.3778 57.5476 13.0597C57.0646 13.7415 56.8161 14.5227 56.8018 15.4034H45.4666C45.4808 12.733 46.2124 10.375 47.6612 8.32954C49.1243 6.28409 51.1271 4.67898 53.6697 3.5142C56.2124 2.34943 59.1314 1.76704 62.4268 1.76704C65.6513 1.76704 68.4993 2.31392 70.9709 3.40767C73.4567 4.50142 75.3956 6.0071 76.7876 7.92472C78.1939 9.82812 78.8899 12.0085 78.8757 14.4659C78.9041 16.9091 78.0661 18.9119 76.3615 20.4744C74.6712 22.0369 72.5263 22.9602 69.9268 23.2443V23.5852C73.4496 23.9687 76.0987 25.0483 77.8743 26.8239C79.6499 28.5852 80.5234 30.8011 80.495 33.4716C80.5092 36.0284 79.7422 38.294 78.1939 40.2685C76.6598 42.2429 74.522 43.7912 71.7805 44.9134C69.0533 46.0355 65.907 46.5966 62.3416 46.5966Z"/>
</mask>
<path d="M20.4737 47.1932L20.4701 48.1932H20.4737V47.1932ZM10.2038 44.4446L9.67047 45.2905L10.2038 44.4446ZM3.5348 36.5824L2.62508 36.9976L3.5348 36.5824ZM1.21236 24.267L2.21235 24.27V24.27L1.21236 24.267ZM3.55611 12.0369L2.64972 11.6145L2.64826 11.6176L3.55611 12.0369ZM10.2038 4.38778L9.68563 3.53253L9.68375 3.53367L10.2038 4.38778ZM30.7436 4.40909L30.2223 5.26248L30.2254 5.26435L30.7436 4.40909ZM37.4126 12.0582L38.319 11.6358L37.4126 12.0582ZM39.7351 24.267L38.7351 24.2641V24.267H39.7351ZM37.3913 36.625L38.3011 37.0402L37.3913 36.625ZM30.7223 44.4872L31.2546 45.3338L31.2557 45.3331L30.7223 44.4872ZM25.5021 34.3665L24.6507 33.8421L24.6497 33.8436L25.5021 34.3665ZM27.4624 24.267H26.4624L26.4624 24.2701L27.4624 24.267ZM26.5675 16.9162L27.5217 16.6171L26.5675 16.9162ZM24.0959 12.6974L23.4359 13.4488L23.4417 13.4538L24.0959 12.6974ZM15.4666 14.4233L14.618 13.8943L15.4666 14.4233ZM13.4851 24.267L12.4851 24.2607L12.4851 24.2624L13.4851 24.267ZM14.3587 31.8097L13.4014 32.0989L13.402 32.1008L14.3587 31.8097ZM16.8303 36.1562L16.1646 36.9026L16.1696 36.907L16.8303 36.1562ZM20.4737 47.1932L20.4773 46.1932C16.6707 46.1795 13.4377 45.3015 10.7372 43.5987L10.2038 44.4446L9.67047 45.2905C12.737 47.2241 16.3506 48.1784 20.4701 48.1932L20.4737 47.1932ZM10.2038 44.4446L10.7372 43.5987C8.0353 41.8951 5.9349 39.4324 4.44452 36.1672L3.5348 36.5824L2.62508 36.9976C4.25971 40.5789 6.60533 43.3578 9.67047 45.2905L10.2038 44.4446ZM3.5348 36.5824L4.44452 36.1672C2.9559 32.9057 2.19846 28.9506 2.21235 24.27L1.21236 24.267L0.212363 24.2641C0.197842 29.1574 0.988706 33.4125 2.62508 36.9976L3.5348 36.5824ZM1.21236 24.267L2.21235 24.27C2.22626 19.5713 2.99118 15.645 4.46395 12.4562L3.55611 12.0369L2.64826 11.6176C1.02444 15.1334 0.22687 19.3605 0.212363 24.2641L1.21236 24.267ZM3.55611 12.0369L4.46249 12.4594C5.95039 9.26717 8.04001 6.87616 10.7239 5.2419L10.2038 4.38778L9.68375 3.53367C6.62902 5.39373 4.28683 8.10215 2.64973 11.6145L3.55611 12.0369ZM10.2038 4.38778L10.722 5.24304C13.4237 3.60607 16.6609 2.76704 20.4737 2.76704V1.76704V0.767044C16.3604 0.767044 12.751 1.67518 9.68563 3.53253L10.2038 4.38778ZM20.4737 1.76704V2.76704C24.2851 2.76704 27.5212 3.6125 30.2223 5.26248L30.7436 4.40909L31.2649 3.55571C28.199 1.68295 24.5885 0.767044 20.4737 0.767044V1.76704ZM30.7436 4.40909L30.2254 5.26435C32.9232 6.89895 35.019 9.28979 36.5063 12.4807L37.4126 12.0582L38.319 11.6358C36.6813 8.12213 34.3311 5.41354 31.2618 3.55384L30.7436 4.40909ZM37.4126 12.0582L36.5063 12.4807C37.9912 15.6666 38.749 19.5825 38.7351 24.2641L39.7351 24.267L40.7351 24.27C40.7496 19.3777 39.9591 15.1544 38.319 11.6358L37.4126 12.0582ZM39.7351 24.267H38.7351C38.7351 28.9777 37.9704 32.9479 36.4816 36.2098L37.3913 36.625L38.3011 37.0402C39.9372 33.4555 40.7351 29.1871 40.7351 24.267H39.7351ZM37.3913 36.625L36.4816 36.2098C34.9912 39.4751 32.8908 41.9377 30.1889 43.6413L30.7223 44.4872L31.2557 45.3331C34.3208 43.4004 36.6664 40.6215 38.3011 37.0402L37.3913 36.625ZM30.7223 44.4872L30.19 43.6406C27.5055 45.3284 24.2809 46.1932 20.4737 46.1932V47.1932V48.1932C24.5927 48.1932 28.2004 47.254 31.2546 45.3338L30.7223 44.4872ZM20.4737 37.5625V38.5625C22.948 38.5625 24.9128 37.2401 26.3546 34.8893L25.5021 34.3665L24.6497 33.8436C23.4779 35.7542 22.0903 36.5625 20.4737 36.5625V37.5625ZM25.5021 34.3665L26.3536 34.8909C27.8236 32.504 28.4767 28.907 28.4624 24.264L27.4624 24.267L26.4624 24.2701C26.4764 28.8032 25.8227 31.9392 24.6507 33.8421L25.5021 34.3665ZM27.4624 24.267H28.4624C28.4624 21.214 28.1598 18.6529 27.5217 16.6171L26.5675 16.9162L25.6132 17.2153C26.1683 18.9863 26.4624 21.3257 26.4624 24.267H27.4624ZM26.5675 16.9162L27.5217 16.6171C26.8924 14.6095 25.9902 13.0137 24.75 11.9411L24.0959 12.6974L23.4417 13.4538C24.3038 14.1994 25.0493 15.4161 25.6132 17.2153L26.5675 16.9162ZM24.0959 12.6974L24.7558 11.9461C23.5274 10.8671 22.0871 10.3125 20.4737 10.3125V11.3125V12.3125C21.5876 12.3125 22.5621 12.6812 23.4359 13.4488L24.0959 12.6974ZM20.4737 11.3125V10.3125C18.0114 10.3125 16.0518 11.594 14.618 13.8943L15.4666 14.4233L16.3153 14.9522C17.4667 13.1049 18.8452 12.3125 20.4737 12.3125V11.3125ZM15.4666 14.4233L14.618 13.8943C13.1756 16.2084 12.5138 19.7193 12.4851 24.2607L13.4851 24.267L14.4851 24.2734C14.5131 19.8375 15.1724 16.7859 16.3153 14.9522L15.4666 14.4233ZM13.4851 24.267L12.4851 24.2624C12.4706 27.3729 12.7658 29.9953 13.4014 32.0989L14.3587 31.8097L15.3159 31.5204C14.7584 29.6752 14.4711 27.2691 14.4851 24.2717L13.4851 24.267ZM14.3587 31.8097L13.402 32.1008C14.0291 34.1615 14.9279 35.7995 16.1646 36.9025L16.8303 36.1562L17.4959 35.41C16.6304 34.638 15.8814 33.3783 15.3153 31.5185L14.3587 31.8097ZM16.8303 36.1562L16.1696 36.907C17.4094 37.998 18.8563 38.5625 20.4737 38.5625V37.5625V36.5625C19.3639 36.5625 18.3818 36.1895 17.4909 35.4055L16.8303 36.1562ZM53.1797 44.8281L52.7699 45.7403L52.7758 45.7429L53.1797 44.8281ZM46.9155 39.9062L47.724 39.3178L46.9155 39.9062ZM44.6143 32.7045V31.7045H43.6091L43.6144 32.7098L44.6143 32.7045ZM56.5462 32.7045L57.546 32.6876L57.5294 31.7045H56.5462V32.7045ZM57.3132 34.9631L56.5112 35.5603L56.5183 35.5699L56.5257 35.5794L57.3132 34.9631ZM59.4013 36.4972L59.0146 37.4194L59.4013 36.4972ZM65.3246 36.4759L65.7407 37.3853L65.7533 37.3793L65.3246 36.4759ZM67.2848 34.8352L68.1142 35.3938V35.3938L67.2848 34.8352ZM67.9666 32.4489L66.9668 32.4327L66.9665 32.4487L66.9667 32.4647L67.9666 32.4489ZM67.157 30.1051L66.3728 30.7259L66.3808 30.7357L67.157 30.1051ZM57.0575 27.9318H56.0575V28.9318H57.0575V27.9318ZM57.0575 19.75V18.75H56.0575V19.75H57.0575ZM64.6001 19.1747L64.2114 18.2533L64.2062 18.2556L64.6001 19.1747ZM66.7095 17.5767L65.9094 16.9767L65.9015 16.9875L66.7095 17.5767ZM67.4553 15.233L66.4554 15.2163L66.4551 15.2327L66.4554 15.2491L67.4553 15.233ZM66.8374 12.9744L65.9997 13.5207L66.8374 12.9744ZM65.0476 11.4403L64.6071 12.3382L64.6138 12.3413L65.0476 11.4403ZM59.5291 11.4616L59.1187 10.5497L59.113 10.5523L59.5291 11.4616ZM57.5476 13.0597L58.3636 13.6377L57.5476 13.0597ZM56.8018 15.4034V16.4034H57.7858L57.8017 15.4195L56.8018 15.4034ZM45.4666 15.4034L44.4666 15.3981L44.4613 16.4034H45.4666V15.4034ZM47.6612 8.32954L46.8479 7.74776L46.8452 7.75153L47.6612 8.32954ZM53.6697 3.5142L54.0862 4.42335L53.6697 3.5142ZM70.9709 3.40767L70.5662 4.32213L70.5681 4.32298L70.9709 3.40767ZM76.7876 7.92472L75.9784 8.5122L75.9833 8.51894L76.7876 7.92472ZM78.8757 14.4659L77.8757 14.4601L77.8757 14.4688L77.8758 14.4775L78.8757 14.4659ZM76.3615 20.4744L75.6858 19.7373L75.6827 19.7401L76.3615 20.4744ZM69.9268 23.2443L69.8182 22.2502L68.9268 22.3477V23.2443H69.9268ZM69.9268 23.5852H68.9268V24.4823L69.8186 24.5794L69.9268 23.5852ZM77.8743 26.8239L77.1672 27.531L77.17 27.5338L77.8743 26.8239ZM80.495 33.4716L79.4951 33.461L79.495 33.469L79.495 33.4771L80.495 33.4716ZM78.1939 40.2685L77.407 39.6514L77.4042 39.6549L78.1939 40.2685ZM71.7805 44.9134L71.4017 43.9879L71.4 43.9886L71.7805 44.9134ZM62.3416 46.5966V45.5966C59.0188 45.5966 56.1062 45.027 53.5836 43.9133L53.1797 44.8281L52.7758 45.7429C55.5941 46.9872 58.7894 47.5966 62.3416 47.5966V46.5966ZM53.1797 44.8281L53.5894 43.9159C51.0714 42.7848 49.1289 41.2478 47.724 39.3178L46.9155 39.9062L46.107 40.4947C47.7419 42.7408 49.9755 44.4851 52.7699 45.7403L53.1797 44.8281ZM46.9155 39.9062L47.724 39.3178C46.334 37.4081 45.6275 35.214 45.6143 32.6993L44.6143 32.7045L43.6144 32.7098C43.6296 35.6213 44.4572 38.2283 46.107 40.4947L46.9155 39.9062ZM44.6143 32.7045V33.7045H56.5462V32.7045V31.7045H44.6143V32.7045ZM56.5462 32.7045L55.5463 32.7215C55.564 33.7674 55.888 34.7235 56.5112 35.5603L57.3132 34.9631L58.1153 34.3658C57.7441 33.8674 57.5567 33.3179 57.546 32.6876L56.5462 32.7045ZM57.3132 34.9631L56.5257 35.5794C57.1573 36.3864 58.0004 36.9941 59.0146 37.4194L59.4013 36.4972L59.788 35.575C59.0408 35.2616 58.4918 34.8465 58.1007 34.3468L57.3132 34.9631ZM59.4013 36.4972L59.0146 37.4194C60.0386 37.8488 61.1824 38.0511 62.4268 38.0511V37.0511V36.0511C61.3985 36.0511 60.5253 35.8841 59.788 35.575L59.4013 36.4972ZM62.4268 37.0511V38.0511C63.6377 38.0511 64.7499 37.8386 65.7407 37.3852L65.3246 36.4759L64.9084 35.5665C64.2231 35.8802 63.4035 36.0511 62.4268 36.0511V37.0511ZM65.3246 36.4759L65.7533 37.3793C66.7359 36.913 67.5349 36.254 68.1142 35.3938L67.2848 34.8352L66.4554 34.2766C66.0972 34.8085 65.5894 35.2433 64.8958 35.5724L65.3246 36.4759ZM67.2848 34.8352L68.1142 35.3938C68.705 34.5167 68.9837 33.5179 68.9665 32.433L67.9666 32.4489L66.9667 32.4647C66.9779 33.1696 66.8021 33.7617 66.4554 34.2766L67.2848 34.8352ZM67.9666 32.4489L68.9665 32.465C68.9845 31.3498 68.6358 30.3394 67.9331 29.4745L67.157 30.1051L66.3808 30.7357C66.7861 31.2345 66.9772 31.7866 66.9668 32.4327L67.9666 32.4489ZM67.157 30.1051L67.941 29.4844C67.2703 28.6372 66.3519 28.0104 65.2415 27.5759L64.8771 28.5071L64.5127 29.4383C65.3626 29.7709 65.9641 30.2094 66.3729 30.7258L67.157 30.1051ZM64.8771 28.5071L65.2415 27.5759C64.1233 27.1383 62.8664 26.9318 61.4893 26.9318V27.9318V28.9318C62.6691 28.9318 63.6707 29.1089 64.5127 29.4383L64.8771 28.5071ZM61.4893 27.9318V26.9318H57.0575V27.9318V28.9318H61.4893V27.9318ZM57.0575 27.9318H58.0575V19.75H57.0575H56.0575V27.9318H57.0575ZM57.0575 19.75V20.75H61.4893V19.75V18.75H57.0575V19.75ZM61.4893 19.75V20.75C62.7758 20.75 63.9514 20.5407 64.9941 20.0939L64.6001 19.1747L64.2062 18.2556C63.4591 18.5757 62.5608 18.75 61.4893 18.75V19.75ZM64.6001 19.1747L64.9888 20.0961C66.0366 19.6541 66.8964 19.0177 67.5175 18.1659L66.7095 17.5767L65.9015 16.9875C65.5283 17.4993 64.9819 17.9283 64.2114 18.2533L64.6001 19.1747ZM66.7095 17.5767L67.5095 18.1767C68.1587 17.3111 68.4728 16.3114 68.4551 15.2168L67.4553 15.233L66.4554 15.2491C66.4661 15.9159 66.283 16.4787 65.9095 16.9767L66.7095 17.5767ZM67.4553 15.233L68.4551 15.2496C68.4723 14.217 68.2203 13.2643 67.675 12.4282L66.8374 12.9744L65.9997 13.5207C66.3067 13.9914 66.4666 14.5443 66.4554 15.2163L67.4553 15.233ZM66.8374 12.9744L67.675 12.4282C67.1401 11.6081 66.3974 10.9804 65.4814 10.5393L65.0476 11.4403L64.6138 12.3413C65.2319 12.639 65.6823 13.034 65.9997 13.5207L66.8374 12.9744ZM65.0476 11.4403L65.488 10.5426C64.5749 10.0946 63.5457 9.88636 62.4268 9.88636V10.8864V11.8864C63.2966 11.8864 64.0146 12.0474 64.6072 12.3381L65.0476 11.4403ZM62.4268 10.8864V9.88636C61.2276 9.88636 60.1186 10.0998 59.1188 10.5497L59.5291 11.4616L59.9395 12.3736C60.6442 12.0564 61.467 11.8864 62.4268 11.8864V10.8864ZM59.5291 11.4616L59.113 10.5523C58.1317 11.0014 57.3266 11.6416 56.7316 12.4816L57.5476 13.0597L58.3636 13.6377C58.7345 13.1141 59.2504 12.6889 59.9452 12.371L59.5291 11.4616ZM57.5476 13.0597L56.7316 12.4816C56.1256 13.3371 55.8192 14.3166 55.802 15.3873L56.8018 15.4034L57.8017 15.4195C57.8129 14.7289 58.0037 14.1458 58.3636 13.6377L57.5476 13.0597ZM56.8018 15.4034V14.4034H45.4666V15.4034V16.4034H56.8018V15.4034ZM45.4666 15.4034L46.4666 15.4087C46.4798 12.9294 47.155 10.7743 48.4772 8.90756L47.6612 8.32954L46.8452 7.75153C45.2698 9.97569 44.4819 12.5366 44.4666 15.3981L45.4666 15.4034ZM47.6612 8.32954L48.4746 8.91132C49.8251 7.02316 51.684 5.52381 54.0862 4.42335L53.6697 3.5142L53.2533 2.60506C50.5703 3.83414 48.4235 5.54502 46.8479 7.74777L47.6612 8.32954ZM53.6697 3.5142L54.0862 4.42335C56.4769 3.32817 59.2498 2.76704 62.4268 2.76704V1.76704V0.767044C59.013 0.767044 55.9478 1.37069 53.2533 2.60506L53.6697 3.5142ZM62.4268 1.76704V2.76704C65.5384 2.76704 68.2442 3.29459 70.5662 4.32213L70.9709 3.40767L71.3756 2.49321C68.7543 1.33325 65.7642 0.767044 62.4268 0.767044V1.76704ZM70.9709 3.40767L70.5681 4.32298C72.9159 5.35598 74.7048 6.7578 75.9784 8.51217L76.7876 7.92472L77.5969 7.33726C76.0863 5.2564 73.9975 3.64686 71.3736 2.49235L70.9709 3.40767ZM76.7876 7.92472L75.9833 8.51894C77.2561 10.2417 77.8887 12.2097 77.8757 14.4601L78.8757 14.4659L79.8757 14.4717C79.8911 11.8073 79.1317 9.41455 77.5919 7.33049L76.7876 7.92472ZM78.8757 14.4659L77.8758 14.4775C77.9011 16.6546 77.1676 18.3789 75.6858 19.7373L76.3615 20.4744L77.0372 21.2116C78.9645 19.445 79.9072 17.1636 79.8756 14.4543L78.8757 14.4659ZM76.3615 20.4744L75.6827 19.7401C74.1706 21.1378 72.2349 21.9861 69.8182 22.2502L69.9268 23.2443L70.0355 24.2384C72.8176 23.9343 75.1717 22.9361 77.0403 21.2088L76.3615 20.4744ZM69.9268 23.2443H68.9268V23.5852H69.9268H70.9268V23.2443H69.9268ZM69.9268 23.5852L69.8186 24.5794C73.2062 24.9482 75.6075 25.9713 77.1672 27.531L77.8743 26.8239L78.5814 26.1168C76.5899 24.1253 73.6929 22.9893 70.0351 22.5911L69.9268 23.5852ZM77.8743 26.8239L77.17 27.5338C78.7397 29.0909 79.5208 31.0404 79.4951 33.461L80.495 33.4716L81.495 33.4822C81.526 30.5619 80.56 28.0796 78.5786 26.1139L77.8743 26.8239ZM80.495 33.4716L79.495 33.4771C79.508 35.813 78.8132 37.8582 77.407 39.6514L78.1939 40.2685L78.9808 40.8855C80.6712 38.7299 81.5104 36.2438 81.495 33.466L80.495 33.4716ZM78.1939 40.2685L77.4042 39.6549C75.9958 41.4677 74.0114 42.9197 71.4017 43.9879L71.7805 44.9134L72.1594 45.8388C75.0327 44.6627 77.3238 43.0181 78.9836 40.882L78.1939 40.2685ZM71.7805 44.9134L71.4 43.9886C68.8159 45.0519 65.803 45.5966 62.3416 45.5966V46.5966V47.5966C66.0109 47.5966 69.2907 47.0192 72.161 45.8381L71.7805 44.9134Z" fill="#72383D" fill-opacity="0.4" mask="url(#path-1-outside-1_1_227)"/>
</svg>
