<svg width="45" height="27" viewBox="0 0 45 27" fill="none" xmlns="http://www.w3.org/2000/svg">
<mask id="path-1-outside-1_1_3863" maskUnits="userSpaceOnUse" x="0" y="0" width="45" height="27" fill="black">
<rect fill="white" width="45" height="27"/>
<path d="M11.6818 25.6364C9.56818 25.6288 7.74242 25.1402 6.20455 24.1705C4.66667 23.2008 3.48106 21.803 2.64773 19.9773C1.81439 18.1515 1.40152 15.9621 1.40909 13.4091C1.41667 10.8485 1.83333 8.67424 2.65909 6.88636C3.49242 5.09848 4.67424 3.73864 6.20455 2.80682C7.74242 1.875 9.56818 1.40909 11.6818 1.40909C13.7955 1.40909 15.6212 1.87879 17.1591 2.81818C18.697 3.75 19.8826 5.10985 20.7159 6.89773C21.5492 8.68561 21.9621 10.8561 21.9545 13.4091C21.9545 15.9773 21.5379 18.1742 20.7045 20C19.8712 21.8258 18.6856 23.2235 17.1477 24.1932C15.6174 25.1553 13.7955 25.6364 11.6818 25.6364ZM11.6818 20.5C12.7727 20.5 13.6667 19.9318 14.3636 18.7955C15.0682 17.6515 15.4167 15.8561 15.4091 13.4091C15.4091 11.8106 15.25 10.5038 14.9318 9.48864C14.6136 8.47348 14.1742 7.72348 13.6136 7.23864C13.053 6.74621 12.4091 6.5 11.6818 6.5C10.5909 6.5 9.70076 7.05303 9.01136 8.15909C8.32197 9.26515 7.9697 11.0152 7.95455 13.4091C7.94697 15.0379 8.10227 16.3788 8.42045 17.4318C8.73864 18.4773 9.17803 19.25 9.73864 19.75C10.3068 20.25 10.9545 20.5 11.6818 20.5ZM34.0114 25.3182C32.178 25.3182 30.5492 25.0038 29.125 24.375C27.7083 23.7386 26.5947 22.8636 25.7841 21.75C24.9735 20.6364 24.5644 19.3561 24.5568 17.9091H30.9205C30.928 18.3561 31.0644 18.7576 31.3295 19.1136C31.6023 19.4621 31.9735 19.7348 32.4432 19.9318C32.9129 20.1288 33.4508 20.2273 34.0568 20.2273C34.6402 20.2273 35.1553 20.125 35.6023 19.9205C36.0492 19.7083 36.3977 19.4167 36.6477 19.0455C36.8977 18.6742 37.0189 18.25 37.0114 17.7727C37.0189 17.303 36.875 16.8864 36.5795 16.5227C36.2917 16.1591 35.8864 15.875 35.3636 15.6705C34.8409 15.4659 34.2386 15.3636 33.5568 15.3636H31.1932V11H33.5568C34.1856 11 34.7386 10.8977 35.2159 10.6932C35.7008 10.4886 36.0758 10.2045 36.3409 9.84091C36.6136 9.47727 36.7462 9.06061 36.7386 8.59091C36.7462 8.13636 36.6364 7.73485 36.4091 7.38636C36.1818 7.03788 35.8636 6.76515 35.4545 6.56818C35.053 6.37121 34.5871 6.27273 34.0568 6.27273C33.4811 6.27273 32.9659 6.375 32.5114 6.57954C32.0644 6.78409 31.7121 7.06818 31.4545 7.43182C31.197 7.79545 31.0644 8.21212 31.0568 8.68182H25.0114C25.0189 7.25758 25.4091 6 26.1818 4.90909C26.9621 3.81818 28.0303 2.96212 29.3864 2.34091C30.7424 1.7197 32.2992 1.40909 34.0568 1.40909C35.7765 1.40909 37.2955 1.70076 38.6136 2.28409C39.9394 2.86742 40.9735 3.67045 41.7159 4.69318C42.4659 5.70833 42.8371 6.87121 42.8295 8.18182C42.8447 9.48485 42.3977 10.553 41.4886 11.3864C40.5871 12.2197 39.4432 12.7121 38.0568 12.8636V13.0455C39.9356 13.25 41.3485 13.8258 42.2955 14.7727C43.2424 15.7121 43.7083 16.8939 43.6932 18.3182C43.7008 19.6818 43.2917 20.8902 42.4659 21.9432C41.6477 22.9962 40.5076 23.822 39.0455 24.4205C37.5909 25.0189 35.9129 25.3182 34.0114 25.3182Z"/>
</mask>
<path d="M11.6818 25.6364L11.6782 26.6364H11.6818V25.6364ZM6.20455 24.1705L5.67118 25.0163L6.20455 24.1705ZM2.64773 19.9773L1.73801 20.3925L2.64773 19.9773ZM1.40909 13.4091L2.40909 13.4121V13.4121L1.40909 13.4091ZM2.65909 6.88636L1.75271 6.4639L1.75124 6.46706L2.65909 6.88636ZM6.20455 2.80682L5.68634 1.95156L5.68446 1.9527L6.20455 2.80682ZM17.1591 2.81818L16.6378 3.67157L16.6409 3.67344L17.1591 2.81818ZM20.7159 6.89773L21.6223 6.47526V6.47526L20.7159 6.89773ZM21.9545 13.4091L20.9545 13.4061V13.4091H21.9545ZM20.7045 20L21.6143 20.4152L20.7045 20ZM17.1477 24.1932L17.68 25.0398L17.6811 25.0391L17.1477 24.1932ZM14.3636 18.7955L13.5122 18.271L13.5112 18.2726L14.3636 18.7955ZM15.4091 13.4091H14.4091L14.4091 13.4122L15.4091 13.4091ZM14.9318 9.48864L15.886 9.18955L14.9318 9.48864ZM13.6136 7.23864L12.9537 7.98998L12.9595 7.995L13.6136 7.23864ZM9.01136 8.15909L8.16271 7.63014L9.01136 8.15909ZM7.95455 13.4091L6.95456 13.4028L6.95456 13.4044L7.95455 13.4091ZM8.42045 17.4318L7.4632 17.7211L7.46378 17.723L8.42045 17.4318ZM9.73864 19.75L9.07301 20.4963L9.07801 20.5007L9.73864 19.75ZM11.6818 25.6364L11.6854 24.6364C9.72827 24.6294 8.09278 24.1789 6.73791 23.3246L6.20455 24.1705L5.67118 25.0163C7.39207 26.1014 9.40809 26.6282 11.6782 26.6364L11.6818 25.6364ZM6.20455 24.1705L6.73791 23.3246C5.38165 22.4694 4.31865 21.2298 3.55745 19.562L2.64773 19.9773L1.73801 20.3925C2.64347 22.3763 3.95168 23.9321 5.67118 25.0163L6.20455 24.1705ZM2.64773 19.9773L3.55745 19.562C2.79799 17.8981 2.40183 15.8587 2.40909 13.4121L1.40909 13.4091L0.409095 13.4061C0.401204 16.0655 0.830799 18.4049 1.73801 20.3925L2.64773 19.9773ZM1.40909 13.4091L2.40909 13.4121C2.41636 10.9538 2.8167 8.93003 3.56694 7.30567L2.65909 6.88636L1.75124 6.46706C0.849965 8.41846 0.416974 10.7431 0.409095 13.4061L1.40909 13.4091ZM2.65909 6.88636L3.56547 7.30883C4.32421 5.681 5.37974 4.47985 6.72463 3.66094L6.20455 2.80682L5.68446 1.9527C3.96875 2.99742 2.66064 4.51597 1.75271 6.4639L2.65909 6.88636ZM6.20455 2.80682L6.72275 3.66207C8.07877 2.84044 9.71846 2.40909 11.6818 2.40909V1.40909V0.40909C9.4179 0.40909 7.40607 0.909555 5.68634 1.95156L6.20455 2.80682ZM11.6818 1.40909V2.40909C13.6437 2.40909 15.2823 2.84357 16.6378 3.67157L17.1591 2.81818L17.6804 1.9648C15.9601 0.914009 13.9472 0.40909 11.6818 0.40909V1.40909ZM17.1591 2.81818L16.6409 3.67344C17.993 4.4927 19.0514 5.69368 19.8095 7.32019L20.7159 6.89773L21.6223 6.47526C20.7137 4.52602 19.4009 3.00729 17.6773 1.96293L17.1591 2.81818ZM20.7159 6.89773L19.8095 7.32019C20.5653 8.9417 20.9618 10.9585 20.9545 13.4061L21.9545 13.4091L22.9545 13.4121C22.9624 10.7537 22.5332 8.42951 21.6223 6.47526L20.7159 6.89773ZM21.9545 13.4091H20.9545C20.9545 15.8726 20.5545 17.9204 19.7948 19.5848L20.7045 20L21.6143 20.4152C22.5213 18.4281 22.9545 16.0819 22.9545 13.4091H21.9545ZM20.7045 20L19.7948 19.5848C19.0336 21.2525 17.9706 22.4921 16.6144 23.3473L17.1477 24.1932L17.6811 25.0391C19.4006 23.9549 20.7088 22.399 21.6143 20.4152L20.7045 20ZM17.1477 24.1932L16.6155 23.3466C15.27 24.1925 13.6396 24.6364 11.6818 24.6364V25.6364V26.6364C13.9514 26.6364 15.9649 26.1181 17.68 25.0398L17.1477 24.1932ZM11.6818 20.5V21.5C13.2016 21.5 14.3841 20.6748 15.2161 19.3183L14.3636 18.7955L13.5112 18.2726C12.9492 19.1889 12.3439 19.5 11.6818 19.5V20.5ZM14.3636 18.7955L15.2151 19.3199C16.0687 17.934 16.4168 15.9079 16.4091 13.406L15.4091 13.4091L14.4091 13.4122C14.4165 15.8042 14.0677 17.3691 13.5122 18.271L14.3636 18.7955ZM15.4091 13.4091H16.4091C16.4091 11.7548 16.2457 10.3371 15.886 9.18955L14.9318 9.48864L13.9776 9.78772C14.2543 10.6705 14.4091 11.8664 14.4091 13.4091H15.4091ZM14.9318 9.48864L15.886 9.18955C15.5352 8.07018 15.0174 7.13061 14.2678 6.48227L13.6136 7.23864L12.9595 7.995C13.3311 8.31635 13.6921 8.87679 13.9776 9.78772L14.9318 9.48864ZM13.6136 7.23864L14.2736 6.48732C13.5357 5.83918 12.6588 5.5 11.6818 5.5V6.5V7.5C12.1594 7.5 12.5704 7.65324 12.9537 7.98995L13.6136 7.23864ZM11.6818 6.5V5.5C10.174 5.5 8.99329 6.29757 8.16271 7.63014L9.01136 8.15909L9.86001 8.68804C10.4082 7.80849 11.0078 7.5 11.6818 7.5V6.5ZM9.01136 8.15909L8.16271 7.63014C7.3236 8.97641 6.97005 10.9561 6.95457 13.4028L7.95455 13.4091L8.95452 13.4154C8.96934 11.0742 9.32034 9.55389 9.86001 8.68804L9.01136 8.15909ZM7.95455 13.4091L6.95456 13.4044C6.94672 15.0898 7.10598 16.5388 7.4632 17.7211L8.42045 17.4318L9.37771 17.1426C9.09857 16.2187 8.94722 14.986 8.95453 13.4137L7.95455 13.4091ZM8.42045 17.4318L7.46378 17.723C7.81252 18.8688 8.3268 19.8307 9.07302 20.4963L9.73864 19.75L10.4043 19.0037C10.0293 18.6693 9.66475 18.0857 9.37713 17.1407L8.42045 17.4318ZM9.73864 19.75L9.07801 20.5007C9.82063 21.1542 10.7007 21.5 11.6818 21.5V20.5V19.5C11.2084 19.5 10.793 19.3458 10.3993 18.9993L9.73864 19.75ZM29.125 24.375L28.7152 25.2872L28.7211 25.2898L29.125 24.375ZM25.7841 21.75L26.5926 21.1615L25.7841 21.75ZM24.5568 17.9091V16.9091H23.5516L23.5568 17.9143L24.5568 17.9091ZM30.9205 17.9091L31.9203 17.8921L31.9037 16.9091H30.9205V17.9091ZM31.3295 19.1136L30.5275 19.7109L30.5347 19.7205L30.542 19.7299L31.3295 19.1136ZM32.4432 19.9318L32.0565 20.854V20.854L32.4432 19.9318ZM35.6023 19.9205L36.0184 20.8299L36.031 20.8239L35.6023 19.9205ZM36.6477 19.0455L37.4772 19.6041L36.6477 19.0455ZM37.0114 17.7727L36.0115 17.7566L36.0112 17.7726L36.0115 17.7886L37.0114 17.7727ZM36.5795 16.5227L35.7954 17.1435L35.8034 17.1533L36.5795 16.5227ZM31.1932 15.3636H30.1932V16.3636H31.1932V15.3636ZM31.1932 11V10H30.1932V11H31.1932ZM35.2159 10.6932L34.8272 9.7718L34.822 9.77404L35.2159 10.6932ZM36.3409 9.84091L35.5408 9.24086L35.5329 9.25174L36.3409 9.84091ZM36.7386 8.59091L35.7388 8.57424L35.7385 8.59064L35.7388 8.60703L36.7386 8.59091ZM36.4091 7.38636L35.5715 7.93263V7.93263L36.4091 7.38636ZM35.4545 6.56818L35.0141 7.46599L35.0207 7.46918L35.4545 6.56818ZM32.5114 6.57954L32.101 5.6676L32.0952 5.67024L32.5114 6.57954ZM31.4545 7.43182L32.2706 8.00984V8.00984L31.4545 7.43182ZM31.0568 8.68182V9.68182H32.0408L32.0567 8.69794L31.0568 8.68182ZM25.0114 8.68182L24.0114 8.6765L24.006 9.68182H25.0114V8.68182ZM26.1818 4.90909L25.3685 4.32731L25.3658 4.33107L26.1818 4.90909ZM29.3864 2.34091L29.8028 3.25005L29.3864 2.34091ZM38.6136 2.28409L38.209 3.19855L38.2109 3.1994L38.6136 2.28409ZM41.7159 4.69318L40.9066 5.28066L40.9116 5.28741L41.7159 4.69318ZM42.8295 8.18182L41.8296 8.17604L41.8295 8.18474L41.8296 8.19345L42.8295 8.18182ZM41.4886 11.3864L40.8129 10.6492L40.8098 10.652L41.4886 11.3864ZM38.0568 12.8636L37.9482 11.8696L37.0568 11.967V12.8636H38.0568ZM38.0568 13.0455H37.0568V13.9425L37.9486 14.0396L38.0568 13.0455ZM42.2955 14.7727L41.5883 15.4798L41.5912 15.4827L42.2955 14.7727ZM43.6932 18.3182L42.6932 18.3075L42.6932 18.3156L42.6932 18.3237L43.6932 18.3182ZM42.4659 21.9432L41.679 21.3261L41.6763 21.3296L42.4659 21.9432ZM39.0455 24.4205L38.6666 23.495L38.6649 23.4957L39.0455 24.4205ZM34.0114 25.3182V24.3182C32.2927 24.3182 30.8053 24.0237 29.5289 23.4602L29.125 24.375L28.7211 25.2898C30.2932 25.9839 32.0633 26.3182 34.0114 26.3182V25.3182ZM29.125 24.375L29.5348 23.4628C28.2563 22.8885 27.2882 22.1171 26.5926 21.1615L25.7841 21.75L24.9756 22.3385C25.9012 23.6101 27.1604 24.5888 28.7152 25.2872L29.125 24.375ZM25.7841 21.75L26.5926 21.1615C25.9119 20.2263 25.5633 19.1524 25.5568 17.9039L24.5568 17.9091L23.5568 17.9143C23.5654 19.5597 24.0351 21.0464 24.9756 22.3385L25.7841 21.75ZM24.5568 17.9091V18.9091H30.9205V17.9091V16.9091H24.5568V17.9091ZM30.9205 17.9091L29.9206 17.926C29.9317 18.5808 30.1363 19.1856 30.5275 19.7109L31.3295 19.1136L32.1316 18.5164C31.9924 18.3295 31.9244 18.1313 31.9203 17.8921L30.9205 17.9091ZM31.3295 19.1136L30.542 19.7299C30.935 20.2321 31.4533 20.6011 32.0565 20.854L32.4432 19.9318L32.8299 19.0096C32.4937 18.8686 32.2695 18.6922 32.1171 18.4973L31.3295 19.1136ZM32.4432 19.9318L32.0565 20.854C32.6695 21.1111 33.3427 21.2273 34.0568 21.2273V20.2273V19.2273C33.5588 19.2273 33.1562 19.1465 32.8299 19.0096L32.4432 19.9318ZM34.0568 20.2273V21.2273C34.7573 21.2273 35.4187 21.1042 36.0184 20.8298L35.6023 19.9205L35.1861 19.0111C34.8919 19.1458 34.523 19.2273 34.0568 19.2273V20.2273ZM35.6023 19.9205L36.031 20.8239C36.6225 20.5432 37.1166 20.1394 37.4772 19.6041L36.6477 19.0455L35.8183 18.4869C35.6788 18.6939 35.476 18.8735 35.1735 19.017L35.6023 19.9205ZM36.6477 19.0455L37.4772 19.6041C37.8491 19.0517 38.0218 18.4242 38.0112 17.7569L37.0114 17.7727L36.0115 17.7886C36.016 18.0758 35.9463 18.2967 35.8183 18.4869L36.6477 19.0455ZM37.0114 17.7727L38.0112 17.7889C38.0226 17.0847 37.7999 16.4388 37.3557 15.8921L36.5795 16.5227L35.8034 17.1533C35.9501 17.3339 36.0153 17.5214 36.0115 17.7566L37.0114 17.7727ZM36.5795 16.5227L37.3636 15.902C36.9448 15.373 36.381 14.9947 35.728 14.7392L35.3636 15.6705L34.9992 16.6017C35.3917 16.7553 35.6385 16.9452 35.7955 17.1434L36.5795 16.5227ZM35.3636 15.6705L35.728 14.7392C35.0672 14.4806 34.3373 14.3636 33.5568 14.3636V15.3636V16.3636C34.14 16.3636 34.6146 16.4512 34.9992 16.6017L35.3636 15.6705ZM33.5568 15.3636V14.3636H31.1932V15.3636V16.3636H33.5568V15.3636ZM31.1932 15.3636H32.1932V11H31.1932H30.1932V15.3636H31.1932ZM31.1932 11V12H33.5568V11V10H31.1932V11ZM33.5568 11V12C34.2931 12 34.9848 11.8802 35.6098 11.6123L35.2159 10.6932L34.822 9.77404C34.4925 9.91524 34.0781 10 33.5568 10V11ZM35.2159 10.6932L35.6046 11.6145C36.2281 11.3515 36.7598 10.9637 37.1489 10.4301L36.3409 9.84091L35.5329 9.25174C35.3917 9.44535 35.1734 9.62577 34.8272 9.77182L35.2159 10.6932ZM36.3409 9.84091L37.1409 10.4409C37.5515 9.89346 37.7495 9.25834 37.7385 8.57478L36.7386 8.59091L35.7388 8.60703C35.7429 8.86287 35.6758 9.06108 35.5409 9.24091L36.3409 9.84091ZM36.7386 8.59091L37.7385 8.60757C37.7491 7.97273 37.5932 7.37132 37.2467 6.8401L36.4091 7.38636L35.5715 7.93263C35.6796 8.09838 35.7433 8.3 35.7388 8.57424L36.7386 8.59091ZM36.4091 7.38636L37.2467 6.8401C36.9107 6.32492 36.4464 5.93585 35.8884 5.66718L35.4545 6.56818L35.0207 7.46918C35.2809 7.59445 35.4529 7.75084 35.5715 7.93263L36.4091 7.38636ZM35.4545 6.56818L35.895 5.67039C35.3332 5.39479 34.7117 5.27273 34.0568 5.27273V6.27273V7.27273C34.4626 7.27273 34.7729 7.34763 35.0141 7.46597L35.4545 6.56818ZM34.0568 6.27273V5.27273C33.3614 5.27273 32.7031 5.39669 32.101 5.66762L32.5114 6.57954L32.9217 7.49147C33.2287 7.35331 33.6007 7.27273 34.0568 7.27273V6.27273ZM32.5114 6.57954L32.0952 5.67024C31.5051 5.94032 31.0082 6.33196 30.6385 6.8538L31.4545 7.43182L32.2706 8.00984C32.4161 7.8044 32.6237 7.62787 32.9275 7.48885L32.5114 6.57954ZM31.4545 7.43182L30.6385 6.8538C30.2579 7.39109 30.0676 8.00599 30.0569 8.66569L31.0568 8.68182L32.0567 8.69794C32.0612 8.41826 32.136 8.19981 32.2706 8.00984L31.4545 7.43182ZM31.0568 8.68182V7.68182H25.0114V8.68182V9.68182H31.0568V8.68182ZM25.0114 8.68182L26.0113 8.68714C26.0179 7.45397 26.3517 6.39931 26.9978 5.48711L26.1818 4.90909L25.3658 4.33107C24.4665 5.60069 24.02 7.06118 24.0114 8.6765L25.0114 8.68182ZM26.1818 4.90909L26.9952 5.49086C27.663 4.55725 28.5872 3.80695 29.8028 3.25005L29.3864 2.34091L28.9699 1.43176C27.4734 2.11729 26.2613 3.07911 25.3685 4.32732L26.1818 4.90909ZM29.3864 2.34091L29.8028 3.25005C31.007 2.69844 32.4176 2.40909 34.0568 2.40909V1.40909V0.40909C32.1809 0.40909 30.4779 0.740952 28.9699 1.43176L29.3864 2.34091ZM34.0568 1.40909V2.40909C35.6636 2.40909 37.0404 2.68143 38.209 3.19855L38.6136 2.28409L39.0183 1.36963C37.5505 0.720087 35.8894 0.40909 34.0568 0.40909V1.40909ZM38.6136 2.28409L38.2109 3.1994C39.3986 3.72198 40.2827 4.42116 40.9067 5.28064L41.7159 4.69318L42.5252 4.10572C41.6642 2.91975 40.4802 2.01287 39.0164 1.36877L38.6136 2.28409ZM41.7159 4.69318L40.9116 5.28741C41.5281 6.12191 41.8359 7.07242 41.8296 8.17604L42.8295 8.18182L43.8295 8.1876C43.8383 6.67 43.4037 5.29476 42.5202 4.09896L41.7159 4.69318ZM42.8295 8.18182L41.8296 8.19345C41.8417 9.23036 41.4993 10.02 40.8129 10.6492L41.4886 11.3864L42.1644 12.1235C43.2961 11.0861 43.8477 9.73933 43.8295 8.17019L42.8295 8.18182ZM41.4886 11.3864L40.8098 10.652C40.0866 11.3206 39.1518 11.738 37.9482 11.8696L38.0568 12.8636L38.1655 13.8577C39.7346 13.6862 41.0876 13.1188 42.1674 12.1207L41.4886 11.3864ZM38.0568 12.8636H37.0568V13.0455H38.0568H39.0568V12.8636H38.0568ZM38.0568 13.0455L37.9486 14.0396C39.6923 14.2294 40.8573 14.7488 41.5883 15.4798L42.2955 14.7727L43.0026 14.0656C41.8397 12.9028 40.1789 12.2706 38.1651 12.0513L38.0568 13.0455ZM42.2955 14.7727L41.5912 15.4827C42.3323 16.2178 42.7057 17.1332 42.6932 18.3075L43.6932 18.3182L44.6931 18.3288C44.7109 16.6547 44.1526 15.2064 42.9997 14.0628L42.2955 14.7727ZM43.6932 18.3182L42.6932 18.3237C42.6995 19.4664 42.3627 20.4543 41.679 21.3261L42.4659 21.9432L43.2528 22.5603C44.2207 21.326 44.702 19.8972 44.6932 18.3126L43.6932 18.3182ZM42.4659 21.9432L41.6763 21.3296C40.9837 22.221 39.9969 22.9505 38.6666 23.495L39.0455 24.4205L39.4243 25.3459C41.0182 24.6935 42.3118 23.7714 43.2556 22.5567L42.4659 21.9432ZM39.0455 24.4205L38.6649 23.4957C37.3535 24.0353 35.809 24.3182 34.0114 24.3182V25.3182V26.3182C36.0168 26.3182 37.8283 26.0026 39.426 25.3452L39.0455 24.4205Z" fill="#72383D" fill-opacity="0.4" mask="url(#path-1-outside-1_1_3863)"/>
</svg>
