<svg width="84" height="48" viewBox="0 0 84 48" fill="none" xmlns="http://www.w3.org/2000/svg">
<mask id="path-1-outside-1_1_234" maskUnits="userSpaceOnUse" x="-0.5" y="-0.6875" width="84" height="49" fill="black">
<rect fill="white" x="-0.5" y="-0.6875" width="84" height="49"/>
<path d="M20.4034 46.5057C16.4403 46.4915 13.017 45.5753 10.1335 43.7571C7.25 41.9389 5.02699 39.3182 3.46449 35.8949C1.90199 32.4716 1.12784 28.3665 1.14205 23.5795C1.15625 18.7784 1.9375 14.7017 3.4858 11.3494C5.0483 7.99716 7.2642 5.44744 10.1335 3.70028C13.017 1.95312 16.4403 1.07954 20.4034 1.07954C24.3665 1.07954 27.7898 1.96023 30.6733 3.72159C33.5568 5.46875 35.7798 8.01846 37.3423 11.3707C38.9048 14.723 39.679 18.7926 39.6648 23.5795C39.6648 28.3949 38.8835 32.5142 37.321 35.9375C35.7585 39.3608 33.5355 41.9815 30.652 43.7997C27.7827 45.6037 24.3665 46.5057 20.4034 46.5057ZM20.4034 36.875C22.4489 36.875 24.125 35.8097 25.4318 33.679C26.7528 31.5341 27.4063 28.1676 27.392 23.5795C27.392 20.5824 27.0938 18.1321 26.4972 16.2287C25.9006 14.3253 25.0767 12.919 24.0256 12.0099C22.9744 11.0866 21.767 10.625 20.4034 10.625C18.358 10.625 16.6889 11.6619 15.3963 13.7358C14.1037 15.8097 13.4432 19.0909 13.4148 23.5795C13.4006 26.6335 13.6918 29.1477 14.2884 31.1222C14.8849 33.0824 15.7088 34.5312 16.7599 35.4688C17.8253 36.4062 19.0398 36.875 20.4034 36.875ZM44.7997 38.4943V29.2898L62.3565 1.67614H70.7088V13.9489H65.9361L56.4759 28.9489V29.2898H82.3849V38.4943H44.7997ZM66.0213 45.3125V35.6818L66.277 31.6761V1.67614H77.3565V45.3125H66.0213Z"/>
</mask>
<path d="M20.4034 46.5057L20.3998 47.5057H20.4034V46.5057ZM10.1335 43.7571L9.60016 44.603L10.1335 43.7571ZM3.46449 35.8949L2.55477 36.3101L3.46449 35.8949ZM1.14205 23.5795L2.14204 23.5825V23.5825L1.14205 23.5795ZM3.4858 11.3494L2.57941 10.927L2.57795 10.9301L3.4858 11.3494ZM10.1335 3.70028L9.61531 2.84503L9.61344 2.84617L10.1335 3.70028ZM30.6733 3.72159L30.152 4.57498L30.1551 4.57685L30.6733 3.72159ZM37.3423 11.3707L38.2487 10.9483L37.3423 11.3707ZM39.6648 23.5795L38.6648 23.5766V23.5795H39.6648ZM37.321 35.9375L38.2307 36.3527L37.321 35.9375ZM30.652 43.7997L31.1842 44.6463L31.1854 44.6456L30.652 43.7997ZM25.4318 33.679L24.5804 33.1546L24.5794 33.1561L25.4318 33.679ZM27.392 23.5795H26.392L26.392 23.5826L27.392 23.5795ZM26.4972 16.2287L27.4514 15.9296L26.4972 16.2287ZM24.0256 12.0099L23.3656 12.7613L23.3714 12.7663L24.0256 12.0099ZM15.3963 13.7358L14.5477 13.2068L15.3963 13.7358ZM13.4148 23.5795L12.4148 23.5732L12.4148 23.5749L13.4148 23.5795ZM14.2884 31.1222L13.3311 31.4114L13.3317 31.4133L14.2884 31.1222ZM16.7599 35.4688L16.0943 36.2151L16.0993 36.2195L16.7599 35.4688ZM20.4034 46.5057L20.407 45.5057C16.6004 45.492 13.3674 44.614 10.6669 42.9112L10.1335 43.7571L9.60016 44.603C12.6667 46.5366 16.2803 47.4909 20.3998 47.5057L20.4034 46.5057ZM10.1335 43.7571L10.6669 42.9112C7.96498 41.2076 5.86458 38.7449 4.37421 35.4797L3.46449 35.8949L2.55477 36.3101C4.1894 39.8914 6.53502 42.6703 9.60016 44.603L10.1335 43.7571ZM3.46449 35.8949L4.37421 35.4797C2.88558 32.2182 2.12815 28.2631 2.14204 23.5825L1.14205 23.5795L0.14205 23.5766C0.12753 28.4699 0.918394 32.725 2.55477 36.3101L3.46449 35.8949ZM1.14205 23.5795L2.14204 23.5825C2.15594 18.8838 2.92087 14.9575 4.39364 11.7687L3.4858 11.3494L2.57795 10.9301C0.954132 14.4459 0.156557 18.673 0.14205 23.5766L1.14205 23.5795ZM3.4858 11.3494L4.39218 11.7719C5.88008 8.57967 7.9697 6.18866 10.6536 4.5544L10.1335 3.70028L9.61344 2.84617C6.55871 4.70623 4.21651 7.41465 2.57942 10.927L3.4858 11.3494ZM10.1335 3.70028L10.6517 4.55554C13.3534 2.91857 16.5906 2.07954 20.4034 2.07954V1.07954V0.0795441C16.2901 0.0795441 12.6807 0.987679 9.61531 2.84503L10.1335 3.70028ZM20.4034 1.07954V2.07954C24.2148 2.07954 27.4509 2.925 30.152 4.57498L30.6733 3.72159L31.1946 2.86821C28.1287 0.995448 24.5182 0.0795441 20.4034 0.0795441V1.07954ZM30.6733 3.72159L30.1551 4.57685C32.8529 6.21145 34.9487 8.60229 36.436 11.7932L37.3423 11.3707L38.2487 10.9483C36.611 7.43463 34.2608 4.72604 31.1915 2.86634L30.6733 3.72159ZM37.3423 11.3707L36.436 11.7932C37.9209 14.9791 38.6787 18.895 38.6648 23.5766L39.6648 23.5795L40.6648 23.5825C40.6793 18.6902 39.8888 14.4669 38.2487 10.9483L37.3423 11.3707ZM39.6648 23.5795H38.6648C38.6648 28.2902 37.9001 32.2604 36.4113 35.5223L37.321 35.9375L38.2307 36.3527C39.8669 32.768 40.6648 28.4996 40.6648 23.5795H39.6648ZM37.321 35.9375L36.4113 35.5223C34.9209 38.7876 32.8205 41.2502 30.1186 42.9538L30.652 43.7997L31.1854 44.6456C34.2505 42.7129 36.5961 39.934 38.2307 36.3527L37.321 35.9375ZM30.652 43.7997L30.1197 42.9531C27.4352 44.6409 24.2106 45.5057 20.4034 45.5057V46.5057V47.5057C24.5224 47.5057 28.1301 46.5665 31.1842 44.6463L30.652 43.7997ZM20.4034 36.875V37.875C22.8777 37.875 24.8424 36.5526 26.2843 34.2018L25.4318 33.679L24.5794 33.1561C23.4076 35.0667 22.02 35.875 20.4034 35.875V36.875ZM25.4318 33.679L26.2833 34.2034C27.7533 31.8165 28.4064 28.2195 28.392 23.5765L27.392 23.5795L26.392 23.5826C26.4061 28.1157 25.7523 31.2517 24.5804 33.1546L25.4318 33.679ZM27.392 23.5795H28.392C28.392 20.5265 28.0895 17.9654 27.4514 15.9296L26.4972 16.2287L25.5429 16.5278C26.098 18.2988 26.392 20.6382 26.392 23.5795H27.392ZM26.4972 16.2287L27.4514 15.9296C26.8221 13.922 25.9199 12.3262 24.6797 11.2536L24.0256 12.0099L23.3714 12.7663C24.2335 13.5119 24.979 14.7286 25.5429 16.5278L26.4972 16.2287ZM24.0256 12.0099L24.6855 11.2586C23.4571 10.1796 22.0168 9.625 20.4034 9.625V10.625V11.625C21.5173 11.625 22.4918 11.9937 23.3656 12.7613L24.0256 12.0099ZM20.4034 10.625V9.625C17.9411 9.625 15.9814 10.9065 14.5477 13.2068L15.3963 13.7358L16.245 14.2647C17.3964 12.4174 18.7749 11.625 20.4034 11.625V10.625ZM15.3963 13.7358L14.5477 13.2068C13.1053 15.5209 12.4435 19.0318 12.4148 23.5732L13.4148 23.5795L14.4148 23.5859C14.4428 19.15 15.1021 16.0984 16.245 14.2647L15.3963 13.7358ZM13.4148 23.5795L12.4148 23.5749C12.4003 26.6854 12.6955 29.3078 13.3311 31.4114L14.2884 31.1222L15.2456 30.8329C14.6881 28.9877 14.4008 26.5816 14.4148 23.5842L13.4148 23.5795ZM14.2884 31.1222L13.3317 31.4133C13.9588 33.474 14.8576 35.112 16.0943 36.215L16.7599 35.4688L17.4256 34.7225C16.56 33.9505 15.8111 32.6908 15.245 30.831L14.2884 31.1222ZM16.7599 35.4688L16.0993 36.2195C17.3391 37.3105 18.786 37.875 20.4034 37.875V36.875V35.875C19.2936 35.875 18.3115 35.502 17.4206 34.718L16.7599 35.4688ZM44.7997 38.4943H43.7997V39.4943H44.7997V38.4943ZM44.7997 29.2898L43.9558 28.7532L43.7997 28.9988V29.2898H44.7997ZM62.3565 1.67614V0.676135H61.8073L61.5127 1.1396L62.3565 1.67614ZM70.7088 1.67614H71.7088V0.676135H70.7088V1.67614ZM70.7088 13.9489V14.9489H71.7088V13.9489H70.7088ZM65.9361 13.9489V12.9489H65.3845L65.0902 13.4154L65.9361 13.9489ZM56.4759 28.9489L55.63 28.4154L55.4759 28.6599V28.9489H56.4759ZM56.4759 29.2898H55.4759V30.2898H56.4759V29.2898ZM82.3849 29.2898H83.3849V28.2898H82.3849V29.2898ZM82.3849 38.4943V39.4943H83.3849V38.4943H82.3849ZM66.0213 45.3125H65.0213V46.3125H66.0213V45.3125ZM66.0213 35.6818L65.0233 35.6181L65.0213 35.6499V35.6818H66.0213ZM66.277 31.6761L67.275 31.7398L67.277 31.708V31.6761H66.277ZM66.277 1.67614V0.676135H65.277V1.67614H66.277ZM77.3565 1.67614H78.3565V0.676135H77.3565V1.67614ZM77.3565 45.3125V46.3125H78.3565V45.3125H77.3565ZM44.7997 38.4943H45.7997V29.2898H44.7997H43.7997V38.4943H44.7997ZM44.7997 29.2898L45.6436 29.8263L63.2004 2.21267L62.3565 1.67614L61.5127 1.1396L43.9558 28.7532L44.7997 29.2898ZM62.3565 1.67614V2.67614H70.7088V1.67614V0.676135H62.3565V1.67614ZM70.7088 1.67614H69.7088V13.9489H70.7088H71.7088V1.67614H70.7088ZM70.7088 13.9489V12.9489H65.9361V13.9489V14.9489H70.7088V13.9489ZM65.9361 13.9489L65.0902 13.4154L55.63 28.4154L56.4759 28.9489L57.3217 29.4823L66.7819 14.4823L65.9361 13.9489ZM56.4759 28.9489H55.4759V29.2898H56.4759H57.4759V28.9489H56.4759ZM56.4759 29.2898V30.2898H82.3849V29.2898V28.2898H56.4759V29.2898ZM82.3849 29.2898H81.3849V38.4943H82.3849H83.3849V29.2898H82.3849ZM82.3849 38.4943V37.4943H44.7997V38.4943V39.4943H82.3849V38.4943ZM66.0213 45.3125H67.0213V35.6818H66.0213H65.0213V45.3125H66.0213ZM66.0213 35.6818L67.0193 35.7455L67.275 31.7398L66.277 31.6761L65.279 31.6124L65.0233 35.6181L66.0213 35.6818ZM66.277 31.6761H67.277V1.67614H66.277H65.277V31.6761H66.277ZM66.277 1.67614V2.67614H77.3565V1.67614V0.676135H66.277V1.67614ZM77.3565 1.67614H76.3565V45.3125H77.3565H78.3565V1.67614H77.3565ZM77.3565 45.3125V44.3125H66.0213V45.3125V46.3125H77.3565V45.3125Z" fill="#72383D" fill-opacity="0.4" mask="url(#path-1-outside-1_1_234)"/>
</svg>
