<svg width="82" height="49" viewBox="0 0 82 49" fill="none" xmlns="http://www.w3.org/2000/svg">
<mask id="path-1-outside-1_1_240" maskUnits="userSpaceOnUse" x="-0.248047" y="0" width="82" height="49" fill="black">
<rect fill="white" x="-0.248047" width="82" height="49"/>
<path d="M20.6554 47.1932C16.6923 47.179 13.269 46.2628 10.3855 44.4446C7.50195 42.6264 5.27894 40.0057 3.71644 36.5824C2.15394 33.1591 1.37979 29.054 1.394 24.267C1.4082 19.4659 2.18945 15.3892 3.73775 12.0369C5.30025 8.68466 7.51616 6.13494 10.3855 4.38778C13.269 2.64062 16.6923 1.76704 20.6554 1.76704C24.6184 1.76704 28.0417 2.64773 30.9253 4.40909C33.8088 6.15625 36.0318 8.70596 37.5943 12.0582C39.1568 15.4105 39.9309 19.4801 39.9167 24.267C39.9167 29.0824 39.1355 33.2017 37.573 36.625C36.0105 40.0483 33.7875 42.669 30.9039 44.4872C28.0346 46.2912 24.6184 47.1932 20.6554 47.1932ZM20.6554 37.5625C22.7008 37.5625 24.377 36.4972 25.6838 34.3665C27.0048 32.2216 27.6582 28.8551 27.644 24.267C27.644 21.2699 27.3457 18.8196 26.7491 16.9162C26.1525 15.0128 25.3287 13.6065 24.2775 12.6974C23.2264 11.7741 22.019 11.3125 20.6554 11.3125C18.6099 11.3125 16.9409 12.3494 15.6483 14.4233C14.3556 16.4972 13.6951 19.7784 13.6667 24.267C13.6525 27.321 13.9437 29.8352 14.5403 31.8097C15.1369 33.7699 15.9608 35.2188 17.0119 36.1562C18.0772 37.0938 19.2917 37.5625 20.6554 37.5625ZM62.9494 46.5966C59.5971 46.5966 56.6213 46.0071 54.0218 44.8281C51.4366 43.6349 49.3983 41.9943 47.9068 39.9062C46.4295 37.8182 45.6767 35.4176 45.6483 32.7045H57.1539C57.1966 34.2102 57.7789 35.4105 58.9011 36.3054C60.0375 37.2003 61.3869 37.6477 62.9494 37.6477C64.1568 37.6477 65.2221 37.392 66.1454 36.8807C67.0687 36.3551 67.7931 35.6165 68.3187 34.6648C68.8443 33.7131 69.1 32.6051 69.0858 31.3409C69.1 30.0625 68.8443 28.9545 68.3187 28.017C67.7931 27.0653 67.0687 26.3338 66.1454 25.8224C65.2221 25.2969 64.1568 25.0341 62.9494 25.0341C61.6994 25.0341 60.5417 25.3395 59.4764 25.9503C58.4252 26.5469 57.6511 27.3778 57.1539 28.4432L46.7562 26.3977L48.4608 2.36364H77.7789V11.8239H58.1767L57.3244 21.4545H57.5801C58.2619 20.1335 59.4409 19.0398 61.117 18.1733C62.7931 17.2926 64.7392 16.8523 66.9551 16.8523C69.5545 16.8523 71.8699 17.456 73.9011 18.6634C75.9466 19.8707 77.5588 21.5398 78.7378 23.6705C79.9309 25.7869 80.5204 28.2301 80.5062 31C80.5204 34.0398 79.796 36.7386 78.3329 39.0966C76.8841 41.4403 74.8457 43.2798 72.2179 44.6151C69.59 45.9361 66.5005 46.5966 62.9494 46.5966Z"/>
</mask>
<path d="M20.6554 47.1932L20.6518 48.1932H20.6554V47.1932ZM10.3855 44.4446L9.85211 45.2905L10.3855 44.4446ZM3.71644 36.5824L2.80672 36.9976L3.71644 36.5824ZM1.394 24.267L2.39399 24.27V24.27L1.394 24.267ZM3.73775 12.0369L2.83136 11.6145L2.8299 11.6176L3.73775 12.0369ZM10.3855 4.38778L9.86727 3.53253L9.8654 3.53367L10.3855 4.38778ZM30.9253 4.40909L30.404 5.26248L30.407 5.26435L30.9253 4.40909ZM37.5943 12.0582L38.5007 11.6358L37.5943 12.0582ZM39.9167 24.267L38.9167 24.2641V24.267H39.9167ZM37.573 36.625L38.4827 37.0402L37.573 36.625ZM30.9039 44.4872L31.4362 45.3338L31.4373 45.3331L30.9039 44.4872ZM25.6838 34.3665L24.8323 33.8421L24.8313 33.8436L25.6838 34.3665ZM27.644 24.267H26.644L26.644 24.2701L27.644 24.267ZM26.7491 16.9162L27.7033 16.6171L26.7491 16.9162ZM24.2775 12.6974L23.6176 13.4488L23.6234 13.4538L24.2775 12.6974ZM15.6483 14.4233L14.7996 13.8943L15.6483 14.4233ZM13.6667 24.267L12.6667 24.2607L12.6667 24.2624L13.6667 24.267ZM14.5403 31.8097L13.583 32.0989L13.5836 32.1008L14.5403 31.8097ZM17.0119 36.1562L16.3463 36.9026L16.3513 36.907L17.0119 36.1562ZM20.6554 47.1932L20.6589 46.1932C16.8524 46.1795 13.6194 45.3015 10.9188 43.5987L10.3855 44.4446L9.85211 45.2905C12.9186 47.2241 16.5322 48.1784 20.6518 48.1932L20.6554 47.1932ZM10.3855 44.4446L10.9188 43.5987C8.21694 41.8951 6.11654 39.4324 4.62616 36.1672L3.71644 36.5824L2.80672 36.9976C4.44135 40.5789 6.78697 43.3578 9.85211 45.2905L10.3855 44.4446ZM3.71644 36.5824L4.62616 36.1672C3.13754 32.9057 2.38011 28.9506 2.39399 24.27L1.394 24.267L0.394003 24.2641C0.379483 29.1574 1.17035 33.4125 2.80672 36.9976L3.71644 36.5824ZM1.394 24.267L2.39399 24.27C2.4079 19.5713 3.17282 15.645 4.6456 12.4562L3.73775 12.0369L2.8299 11.6176C1.20608 15.1334 0.408511 19.3605 0.394003 24.2641L1.394 24.267ZM3.73775 12.0369L4.64413 12.4594C6.13203 9.26717 8.22165 6.87616 10.9056 5.2419L10.3855 4.38778L9.8654 3.53367C6.81066 5.39373 4.46847 8.10215 2.83137 11.6145L3.73775 12.0369ZM10.3855 4.38778L10.9037 5.24304C13.6053 3.60607 16.8426 2.76704 20.6554 2.76704V1.76704V0.767044C16.542 0.767044 12.9326 1.67518 9.86727 3.53253L10.3855 4.38778ZM20.6554 1.76704V2.76704C24.4667 2.76704 27.7028 3.6125 30.404 5.26248L30.9253 4.40909L31.4465 3.55571C28.3806 1.68295 24.7701 0.767044 20.6554 0.767044V1.76704ZM30.9253 4.40909L30.407 5.26435C33.1048 6.89895 35.2006 9.28979 36.6879 12.4807L37.5943 12.0582L38.5007 11.6358C36.8629 8.12213 34.5127 5.41354 31.4435 3.55384L30.9253 4.40909ZM37.5943 12.0582L36.6879 12.4807C38.1729 15.6666 38.9306 19.5825 38.9167 24.2641L39.9167 24.267L40.9167 24.27C40.9312 19.3777 40.1407 15.1544 38.5007 11.6358L37.5943 12.0582ZM39.9167 24.267H38.9167C38.9167 28.9777 38.1521 32.9479 36.6633 36.2098L37.573 36.625L38.4827 37.0402C40.1189 33.4555 40.9167 29.1871 40.9167 24.267H39.9167ZM37.573 36.625L36.6633 36.2098C35.1729 39.4751 33.0725 41.9377 30.3706 43.6413L30.9039 44.4872L31.4373 45.3331C34.5024 43.4004 36.8481 40.6215 38.4827 37.0402L37.573 36.625ZM30.9039 44.4872L30.3717 43.6406C27.6872 45.3284 24.4625 46.1932 20.6554 46.1932V47.1932V48.1932C24.7743 48.1932 28.3821 47.254 31.4362 45.3338L30.9039 44.4872ZM20.6554 37.5625V38.5625C23.1297 38.5625 25.0944 37.2401 26.5362 34.8893L25.6838 34.3665L24.8313 33.8436C23.6595 35.7542 22.272 36.5625 20.6554 36.5625V37.5625ZM25.6838 34.3665L26.5352 34.8909C28.0053 32.504 28.6584 28.907 28.644 24.264L27.644 24.267L26.644 24.2701C26.658 28.8032 26.0043 31.9392 24.8323 33.8421L25.6838 34.3665ZM27.644 24.267H28.644C28.644 21.214 28.3414 18.6529 27.7033 16.6171L26.7491 16.9162L25.7949 17.2153C26.35 18.9863 26.644 21.3257 26.644 24.267H27.644ZM26.7491 16.9162L27.7033 16.6171C27.0741 14.6095 26.1718 13.0137 24.9317 11.9411L24.2775 12.6974L23.6234 13.4538C24.4855 14.1994 25.231 15.4161 25.7949 17.2153L26.7491 16.9162ZM24.2775 12.6974L24.9375 11.9461C23.7091 10.8671 22.2687 10.3125 20.6554 10.3125V11.3125V12.3125C21.7693 12.3125 22.7437 12.6812 23.6176 13.4488L24.2775 12.6974ZM20.6554 11.3125V10.3125C18.193 10.3125 16.2334 11.594 14.7996 13.8943L15.6483 14.4233L16.4969 14.9522C17.6483 13.1049 19.0268 12.3125 20.6554 12.3125V11.3125ZM15.6483 14.4233L14.7996 13.8943C13.3573 16.2084 12.6955 19.7193 12.6667 24.2607L13.6667 24.267L14.6667 24.2734C14.6948 19.8375 15.354 16.7859 16.4969 14.9522L15.6483 14.4233ZM13.6667 24.267L12.6667 24.2624C12.6523 27.3729 12.9474 29.9953 13.5831 32.0989L14.5403 31.8097L15.4976 31.5204C14.94 29.6752 14.6528 27.2691 14.6667 24.2717L13.6667 24.267ZM14.5403 31.8097L13.5836 32.1008C14.2108 34.1615 15.1095 35.7995 16.3463 36.9025L17.0119 36.1562L17.6775 35.41C16.812 34.638 16.063 33.3783 15.497 31.5185L14.5403 31.8097ZM17.0119 36.1562L16.3513 36.907C17.5911 37.998 19.0379 38.5625 20.6554 38.5625V37.5625V36.5625C19.5455 36.5625 18.5634 36.1895 17.6725 35.4055L17.0119 36.1562ZM54.0218 44.8281L53.6028 45.7361L53.6088 45.7388L54.0218 44.8281ZM47.9068 39.9062L47.0904 40.4838L47.093 40.4875L47.9068 39.9062ZM45.6483 32.7045V31.7045H44.6377L44.6483 32.715L45.6483 32.7045ZM57.1539 32.7045L58.1535 32.6763L58.126 31.7045H57.1539V32.7045ZM58.9011 36.3054L58.2776 37.0872L58.2824 37.091L58.9011 36.3054ZM66.1454 36.8807L66.63 37.7555L66.6401 37.7497L66.1454 36.8807ZM68.3187 34.6648L67.4433 34.1814L68.3187 34.6648ZM69.0858 31.3409L68.0858 31.3298L68.0857 31.341L68.0858 31.3521L69.0858 31.3409ZM68.3187 28.017L67.4433 28.5005L67.4464 28.5061L68.3187 28.017ZM66.1454 25.8224L65.6507 26.6916L65.6609 26.6972L66.1454 25.8224ZM59.4764 25.9503L59.97 26.82L59.9738 26.8178L59.4764 25.9503ZM57.1539 28.4432L56.9609 29.4244L57.7291 29.5755L58.0601 28.8661L57.1539 28.4432ZM46.7562 26.3977L45.7587 26.327L45.6962 27.2084L46.5632 27.3789L46.7562 26.3977ZM48.4608 2.36364V1.36364H47.5292L47.4633 2.29289L48.4608 2.36364ZM77.7789 2.36364H78.7789V1.36364H77.7789V2.36364ZM77.7789 11.8239V12.8239H78.7789V11.8239H77.7789ZM58.1767 11.8239V10.8239H57.2613L57.1806 11.7357L58.1767 11.8239ZM57.3244 21.4545L56.3283 21.3664L56.232 22.4545H57.3244V21.4545ZM57.5801 21.4545V22.4545H58.1893L58.4687 21.9132L57.5801 21.4545ZM61.117 18.1733L61.5762 19.0616L61.5821 19.0585L61.117 18.1733ZM73.9011 18.6634L73.3901 19.523L73.3928 19.5245L73.9011 18.6634ZM78.7377 23.6705L77.8627 24.1546L77.8666 24.1615L78.7377 23.6705ZM80.5062 31L79.5062 30.9949L79.5062 31.0047L80.5062 31ZM78.3329 39.0966L77.4832 38.5694L77.4823 38.5708L78.3329 39.0966ZM72.2179 44.6151L72.667 45.5085L72.6709 45.5066L72.2179 44.6151ZM62.9494 46.5966V45.5966C59.715 45.5966 56.8839 45.0282 54.4349 43.9174L54.0218 44.8281L53.6088 45.7388C56.3587 46.986 59.4793 47.5966 62.9494 47.5966V46.5966ZM54.0218 44.8281L54.4409 43.9202C51.9957 42.7916 50.1003 41.2567 48.7205 39.325L47.9068 39.9062L47.093 40.4875C48.6962 42.7319 50.8775 44.4783 53.6028 45.7361L54.0218 44.8281ZM47.9068 39.9062L48.7231 39.3287C47.3706 37.4169 46.6746 35.2169 46.6482 32.6941L45.6483 32.7045L44.6483 32.715C44.6787 35.6183 45.4884 38.2194 47.0904 40.4838L47.9068 39.9062ZM45.6483 32.7045V33.7045H57.1539V32.7045V31.7045H45.6483V32.7045ZM57.1539 32.7045L56.1543 32.7328C56.2048 34.5162 56.9125 35.9986 58.2776 37.0872L58.9011 36.3054L59.5246 35.5236C58.6453 34.8224 58.1883 33.9043 58.1535 32.6763L57.1539 32.7045ZM58.9011 36.3054L58.2824 37.091C59.6096 38.1362 61.1817 38.6477 62.9494 38.6477V37.6477V36.6477C61.5921 36.6477 60.4653 36.2643 59.5198 35.5198L58.9011 36.3054ZM62.9494 37.6477V38.6477C64.3016 38.6477 65.5381 38.3601 66.6299 37.7555L66.1454 36.8807L65.6609 36.0059C64.9061 36.4239 64.012 36.6477 62.9494 36.6477V37.6477ZM66.1454 36.8807L66.6401 37.7497C67.7273 37.1309 68.5817 36.2571 69.1941 35.1482L68.3187 34.6648L67.4433 34.1814C67.0046 34.9759 66.4102 35.5793 65.6507 36.0116L66.1454 36.8807ZM68.3187 34.6648L69.1941 35.1482C69.816 34.0221 70.1015 32.7383 70.0857 31.3297L69.0858 31.3409L68.0858 31.3521C68.0984 32.4719 67.8726 33.4041 67.4433 34.1814L68.3187 34.6648ZM69.0858 31.3409L70.0857 31.352C70.1015 29.9319 69.8171 28.6448 69.191 27.528L68.3187 28.017L67.4464 28.5061C67.8715 29.2643 68.0984 30.1931 68.0858 31.3298L69.0858 31.3409ZM68.3187 28.017L69.1941 27.5336C68.5805 26.4225 67.7229 25.553 66.6299 24.9477L66.1454 25.8224L65.6609 26.6972C66.4146 27.1146 67.0058 27.7082 67.4433 28.5005L68.3187 28.017ZM66.1454 25.8224L66.6401 24.9534C65.5465 24.3308 64.3062 24.0341 62.9494 24.0341V25.0341V26.0341C64.0074 26.0341 64.8978 26.2629 65.6507 26.6915L66.1454 25.8224ZM62.9494 25.0341V24.0341C61.5282 24.0341 60.1986 24.3835 58.979 25.0828L59.4764 25.9503L59.9738 26.8178C60.8849 26.2954 61.8706 26.0341 62.9494 26.0341V25.0341ZM59.4764 25.9503L58.9828 25.0806C57.7565 25.7766 56.8353 26.7612 56.2478 28.0203L57.1539 28.4432L58.0601 28.8661C58.4669 27.9944 59.094 27.3171 59.97 26.82L59.4764 25.9503ZM57.1539 28.4432L57.347 27.462L46.9492 25.4165L46.7562 26.3977L46.5632 27.3789L56.9609 29.4244L57.1539 28.4432ZM46.7562 26.3977L47.7537 26.4685L49.4583 2.43438L48.4608 2.36364L47.4633 2.29289L45.7587 26.327L46.7562 26.3977ZM48.4608 2.36364V3.36364H77.7789V2.36364V1.36364H48.4608V2.36364ZM77.7789 2.36364H76.7789V11.8239H77.7789H78.7789V2.36364H77.7789ZM77.7789 11.8239V10.8239H58.1767V11.8239V12.8239H77.7789V11.8239ZM58.1767 11.8239L57.1806 11.7357L56.3283 21.3664L57.3244 21.4545L58.3205 21.5427L59.1728 11.912L58.1767 11.8239ZM57.3244 21.4545V22.4545H57.5801V21.4545V20.4545H57.3244V21.4545ZM57.5801 21.4545L58.4687 21.9132C59.0326 20.8207 60.0345 19.8586 61.5762 19.0616L61.117 18.1733L60.6578 17.285C58.8472 18.221 57.4912 19.4464 56.6915 20.9959L57.5801 21.4545ZM61.117 18.1733L61.5821 19.0585C63.0922 18.2651 64.8736 17.8523 66.9551 17.8523V16.8523V15.8523C64.6047 15.8523 62.4941 16.3201 60.6519 17.288L61.117 18.1733ZM66.9551 16.8523V17.8523C69.3932 17.8523 71.5287 18.4165 73.3901 19.523L73.9011 18.6634L74.4121 17.8037C72.211 16.4954 69.7158 15.8523 66.9551 15.8523V16.8523ZM73.9011 18.6634L73.3928 19.5245C75.2805 20.6388 76.7679 22.1759 77.8628 24.1546L78.7377 23.6705L79.6127 23.1863C78.3496 20.9036 76.6126 19.1026 74.4094 17.8022L73.9011 18.6634ZM78.7377 23.6705L77.8666 24.1615C78.9631 26.1065 79.5197 28.3741 79.5062 30.9949L80.5062 31L81.5062 31.0051C81.5212 28.0862 80.8988 25.4674 79.6089 23.1794L78.7377 23.6705ZM80.5062 31L79.5062 31.0047C79.5196 33.8751 78.8378 36.3862 77.4832 38.5694L78.3329 39.0966L79.1826 39.6238C80.7541 37.0911 81.5212 34.2044 81.5062 30.9953L80.5062 31ZM78.3329 39.0966L77.4823 38.5708C76.1367 40.7475 74.241 42.4654 71.7649 43.7235L72.2179 44.6151L72.6709 45.5066C75.4504 44.0943 77.6314 42.1332 79.1835 39.6224L78.3329 39.0966ZM72.2179 44.6151L71.7687 43.7216C69.3062 44.9595 66.3765 45.5966 62.9494 45.5966V46.5966V47.5966C66.6245 47.5966 69.8738 46.9127 72.667 45.5085L72.2179 44.6151Z" fill="#B49894" mask="url(#path-1-outside-1_1_240)"/>
</svg>
