<svg width="45" height="27" viewBox="0 0 45 27" fill="none" xmlns="http://www.w3.org/2000/svg">
<mask id="path-1-outside-1_1_3875" maskUnits="userSpaceOnUse" x="0" y="0" width="45" height="27" fill="black">
<rect fill="white" width="45" height="27"/>
<path d="M11.6818 25.6364C9.56818 25.6288 7.74242 25.1402 6.20455 24.1705C4.66667 23.2008 3.48106 21.803 2.64773 19.9773C1.81439 18.1515 1.40152 15.9621 1.40909 13.4091C1.41667 10.8485 1.83333 8.67424 2.65909 6.88636C3.49242 5.09848 4.67424 3.73864 6.20455 2.80682C7.74242 1.875 9.56818 1.40909 11.6818 1.40909C13.7955 1.40909 15.6212 1.87879 17.1591 2.81818C18.697 3.75 19.8826 5.10985 20.7159 6.89773C21.5492 8.68561 21.9621 10.8561 21.9545 13.4091C21.9545 15.9773 21.5379 18.1742 20.7045 20C19.8712 21.8258 18.6856 23.2235 17.1477 24.1932C15.6174 25.1553 13.7955 25.6364 11.6818 25.6364ZM11.6818 20.5C12.7727 20.5 13.6667 19.9318 14.3636 18.7955C15.0682 17.6515 15.4167 15.8561 15.4091 13.4091C15.4091 11.8106 15.25 10.5038 14.9318 9.48864C14.6136 8.47348 14.1742 7.72348 13.6136 7.23864C13.053 6.74621 12.4091 6.5 11.6818 6.5C10.5909 6.5 9.70076 7.05303 9.01136 8.15909C8.32197 9.26515 7.9697 11.0152 7.95455 13.4091C7.94697 15.0379 8.10227 16.3788 8.42045 17.4318C8.73864 18.4773 9.17803 19.25 9.73864 19.75C10.3068 20.25 10.9545 20.5 11.6818 20.5ZM34.2386 25.3182C32.4508 25.3182 30.8636 25.0038 29.4773 24.375C28.0985 23.7386 27.0114 22.8636 26.2159 21.75C25.428 20.6364 25.0265 19.3561 25.0114 17.9091H31.1477C31.1705 18.7121 31.4811 19.3523 32.0795 19.8295C32.6856 20.3068 33.4053 20.5455 34.2386 20.5455C34.8826 20.5455 35.4508 20.4091 35.9432 20.1364C36.4356 19.8561 36.822 19.4621 37.1023 18.9545C37.3826 18.447 37.5189 17.8561 37.5114 17.1818C37.5189 16.5 37.3826 15.9091 37.1023 15.4091C36.822 14.9015 36.4356 14.5114 35.9432 14.2386C35.4508 13.9583 34.8826 13.8182 34.2386 13.8182C33.572 13.8182 32.9545 13.9811 32.3864 14.3068C31.8258 14.625 31.4129 15.0682 31.1477 15.6364L25.6023 14.5455L26.5114 1.72727H42.1477V6.77273H31.6932L31.2386 11.9091H31.375C31.7386 11.2045 32.3674 10.6212 33.2614 10.1591C34.1553 9.68939 35.1932 9.45455 36.375 9.45455C37.7614 9.45455 38.9962 9.77651 40.0795 10.4205C41.1705 11.0644 42.0303 11.9545 42.6591 13.0909C43.2955 14.2197 43.6098 15.5227 43.6023 17C43.6098 18.6212 43.2235 20.0606 42.4432 21.3182C41.6705 22.5682 40.5833 23.5492 39.1818 24.2614C37.7803 24.9659 36.1326 25.3182 34.2386 25.3182Z"/>
</mask>
<path d="M11.6818 25.6364L11.6782 26.6364H11.6818V25.6364ZM6.20455 24.1705L5.67118 25.0163L6.20455 24.1705ZM2.64773 19.9773L1.73801 20.3925L2.64773 19.9773ZM1.40909 13.4091L2.40909 13.4121V13.4121L1.40909 13.4091ZM2.65909 6.88636L1.75271 6.4639L1.75124 6.46706L2.65909 6.88636ZM6.20455 2.80682L5.68634 1.95156L5.68446 1.9527L6.20455 2.80682ZM17.1591 2.81818L16.6378 3.67157L16.6409 3.67344L17.1591 2.81818ZM20.7159 6.89773L21.6223 6.47526V6.47526L20.7159 6.89773ZM21.9545 13.4091L20.9545 13.4061V13.4091H21.9545ZM20.7045 20L21.6143 20.4152L20.7045 20ZM17.1477 24.1932L17.68 25.0398L17.6811 25.0391L17.1477 24.1932ZM14.3636 18.7955L13.5122 18.271L13.5112 18.2726L14.3636 18.7955ZM15.4091 13.4091H14.4091L14.4091 13.4122L15.4091 13.4091ZM14.9318 9.48864L15.886 9.18955L14.9318 9.48864ZM13.6136 7.23864L12.9537 7.98998L12.9595 7.995L13.6136 7.23864ZM9.01136 8.15909L8.16271 7.63014L9.01136 8.15909ZM7.95455 13.4091L6.95456 13.4028L6.95456 13.4044L7.95455 13.4091ZM8.42045 17.4318L7.4632 17.7211L7.46378 17.723L8.42045 17.4318ZM9.73864 19.75L9.07301 20.4963L9.07801 20.5007L9.73864 19.75ZM11.6818 25.6364L11.6854 24.6364C9.72827 24.6294 8.09278 24.1789 6.73791 23.3246L6.20455 24.1705L5.67118 25.0163C7.39207 26.1014 9.40809 26.6282 11.6782 26.6364L11.6818 25.6364ZM6.20455 24.1705L6.73791 23.3246C5.38165 22.4694 4.31865 21.2298 3.55745 19.562L2.64773 19.9773L1.73801 20.3925C2.64347 22.3763 3.95168 23.9321 5.67118 25.0163L6.20455 24.1705ZM2.64773 19.9773L3.55745 19.562C2.79799 17.8981 2.40183 15.8587 2.40909 13.4121L1.40909 13.4091L0.409095 13.4061C0.401204 16.0655 0.830799 18.4049 1.73801 20.3925L2.64773 19.9773ZM1.40909 13.4091L2.40909 13.4121C2.41636 10.9538 2.8167 8.93003 3.56694 7.30567L2.65909 6.88636L1.75124 6.46706C0.849965 8.41846 0.416974 10.7431 0.409095 13.4061L1.40909 13.4091ZM2.65909 6.88636L3.56547 7.30883C4.32421 5.681 5.37974 4.47985 6.72463 3.66094L6.20455 2.80682L5.68446 1.9527C3.96875 2.99742 2.66064 4.51597 1.75271 6.4639L2.65909 6.88636ZM6.20455 2.80682L6.72275 3.66207C8.07877 2.84044 9.71846 2.40909 11.6818 2.40909V1.40909V0.40909C9.4179 0.40909 7.40607 0.909555 5.68634 1.95156L6.20455 2.80682ZM11.6818 1.40909V2.40909C13.6437 2.40909 15.2823 2.84357 16.6378 3.67157L17.1591 2.81818L17.6804 1.9648C15.9601 0.914009 13.9472 0.40909 11.6818 0.40909V1.40909ZM17.1591 2.81818L16.6409 3.67344C17.993 4.4927 19.0514 5.69368 19.8095 7.32019L20.7159 6.89773L21.6223 6.47526C20.7137 4.52602 19.4009 3.00729 17.6773 1.96293L17.1591 2.81818ZM20.7159 6.89773L19.8095 7.32019C20.5653 8.9417 20.9618 10.9585 20.9545 13.4061L21.9545 13.4091L22.9545 13.4121C22.9624 10.7537 22.5332 8.42951 21.6223 6.47526L20.7159 6.89773ZM21.9545 13.4091H20.9545C20.9545 15.8726 20.5545 17.9204 19.7948 19.5848L20.7045 20L21.6143 20.4152C22.5213 18.4281 22.9545 16.0819 22.9545 13.4091H21.9545ZM20.7045 20L19.7948 19.5848C19.0336 21.2525 17.9706 22.4921 16.6144 23.3473L17.1477 24.1932L17.6811 25.0391C19.4006 23.9549 20.7088 22.399 21.6143 20.4152L20.7045 20ZM17.1477 24.1932L16.6155 23.3466C15.27 24.1925 13.6396 24.6364 11.6818 24.6364V25.6364V26.6364C13.9514 26.6364 15.9649 26.1181 17.68 25.0398L17.1477 24.1932ZM11.6818 20.5V21.5C13.2016 21.5 14.3841 20.6748 15.2161 19.3183L14.3636 18.7955L13.5112 18.2726C12.9492 19.1889 12.3439 19.5 11.6818 19.5V20.5ZM14.3636 18.7955L15.2151 19.3199C16.0687 17.934 16.4168 15.9079 16.4091 13.406L15.4091 13.4091L14.4091 13.4122C14.4165 15.8042 14.0677 17.3691 13.5122 18.271L14.3636 18.7955ZM15.4091 13.4091H16.4091C16.4091 11.7548 16.2457 10.3371 15.886 9.18955L14.9318 9.48864L13.9776 9.78772C14.2543 10.6705 14.4091 11.8664 14.4091 13.4091H15.4091ZM14.9318 9.48864L15.886 9.18955C15.5352 8.07018 15.0174 7.13061 14.2678 6.48227L13.6136 7.23864L12.9595 7.995C13.3311 8.31635 13.6921 8.87679 13.9776 9.78772L14.9318 9.48864ZM13.6136 7.23864L14.2736 6.48732C13.5357 5.83918 12.6588 5.5 11.6818 5.5V6.5V7.5C12.1594 7.5 12.5704 7.65324 12.9537 7.98995L13.6136 7.23864ZM11.6818 6.5V5.5C10.174 5.5 8.99329 6.29757 8.16271 7.63014L9.01136 8.15909L9.86001 8.68804C10.4082 7.80849 11.0078 7.5 11.6818 7.5V6.5ZM9.01136 8.15909L8.16271 7.63014C7.3236 8.97641 6.97005 10.9561 6.95457 13.4028L7.95455 13.4091L8.95452 13.4154C8.96934 11.0742 9.32034 9.55389 9.86001 8.68804L9.01136 8.15909ZM7.95455 13.4091L6.95456 13.4044C6.94672 15.0898 7.10598 16.5388 7.4632 17.7211L8.42045 17.4318L9.37771 17.1426C9.09857 16.2187 8.94722 14.986 8.95453 13.4137L7.95455 13.4091ZM8.42045 17.4318L7.46378 17.723C7.81252 18.8688 8.3268 19.8307 9.07302 20.4963L9.73864 19.75L10.4043 19.0037C10.0293 18.6693 9.66475 18.0857 9.37713 17.1407L8.42045 17.4318ZM9.73864 19.75L9.07801 20.5007C9.82063 21.1542 10.7007 21.5 11.6818 21.5V20.5V19.5C11.2084 19.5 10.793 19.3458 10.3993 18.9993L9.73864 19.75ZM29.4773 24.375L29.0582 25.283L29.0642 25.2857L29.4773 24.375ZM26.2159 21.75L25.3995 22.3276L25.4022 22.3312L26.2159 21.75ZM25.0114 17.9091V16.9091H24.0008L24.0114 17.9196L25.0114 17.9091ZM31.1477 17.9091L32.1473 17.8808L32.1198 16.9091H31.1477V17.9091ZM32.0795 19.8295L31.456 20.6114L31.4609 20.6152L32.0795 19.8295ZM35.9432 20.1364L36.4277 21.0112L36.4379 21.0054L35.9432 20.1364ZM37.1023 18.9545L36.2269 18.4711L37.1023 18.9545ZM37.5114 17.1818L36.5114 17.1707L36.5113 17.1819L36.5114 17.1931L37.5114 17.1818ZM37.1023 15.4091L36.2269 15.8925L36.23 15.8981L37.1023 15.4091ZM35.9432 14.2386L35.4484 15.1078L35.4587 15.1134L35.9432 14.2386ZM32.3864 14.3068L32.88 15.1765L32.8837 15.1743L32.3864 14.3068ZM31.1477 15.6364L30.9547 16.6176L31.7228 16.7687L32.0539 16.0592L31.1477 15.6364ZM25.6023 14.5455L24.6048 14.4747L24.5423 15.3561L25.4093 15.5266L25.6023 14.5455ZM26.5114 1.72727V0.727272H25.5798L25.5139 1.65653L26.5114 1.72727ZM42.1477 1.72727H43.1477V0.727272H42.1477V1.72727ZM42.1477 6.77273V7.77273H43.1477V6.77273H42.1477ZM31.6932 6.77273V5.77273H30.7778L30.6971 6.68458L31.6932 6.77273ZM31.2386 11.9091L30.2425 11.8209L30.1462 12.9091H31.2386V11.9091ZM31.375 11.9091V12.9091H31.9842L32.2636 12.3677L31.375 11.9091ZM33.2614 10.1591L33.7206 11.0474L33.7265 11.0443L33.2614 10.1591ZM40.0795 10.4205L39.5686 11.2801L39.5712 11.2816L40.0795 10.4205ZM42.6591 13.0909L41.7841 13.5751L41.788 13.582L42.6591 13.0909ZM43.6023 17L42.6022 16.9949L42.6023 17.0047L43.6023 17ZM42.4432 21.3182L41.5935 20.7909L41.5926 20.7924L42.4432 21.3182ZM39.1818 24.2614L39.631 25.1548L39.6348 25.1529L39.1818 24.2614ZM34.2386 25.3182V24.3182C32.5686 24.3182 31.1263 24.0249 29.8903 23.4643L29.4773 24.375L29.0642 25.2857C30.601 25.9827 32.3329 26.3182 34.2386 26.3182V25.3182ZM29.4773 24.375L29.8963 23.467C28.6576 22.8953 27.7134 22.126 27.0296 21.1688L26.2159 21.75L25.4022 22.3312C26.3093 23.6013 27.5394 24.582 29.0582 25.283L29.4773 24.375ZM26.2159 21.75L27.0323 21.1724C26.3691 20.2351 26.0245 19.1553 26.0113 17.8986L25.0114 17.9091L24.0114 17.9196C24.0286 19.5568 24.4869 21.0376 25.3996 22.3276L26.2159 21.75ZM25.0114 17.9091V18.9091H31.1477V17.9091V16.9091H25.0114V17.9091ZM31.1477 17.9091L30.1481 17.9374C30.1787 19.0181 30.6147 19.9404 31.4561 20.6114L32.0795 19.8295L32.703 19.0477C32.3475 18.7642 32.1622 18.4062 32.1473 17.8808L31.1477 17.9091ZM32.0795 19.8295L31.4609 20.6152C32.2578 21.2428 33.2001 21.5455 34.2386 21.5455V20.5455V19.5455C33.6105 19.5455 33.1134 19.3709 32.6982 19.0439L32.0795 19.8295ZM34.2386 20.5455V21.5455C35.0274 21.5455 35.7668 21.3772 36.4277 21.0112L35.9432 20.1364L35.4587 19.2616C35.1347 19.441 34.7378 19.5455 34.2386 19.5455V20.5455ZM35.9432 20.1364L36.4379 21.0054C37.0942 20.6319 37.6106 20.1027 37.9777 19.438L37.1023 18.9545L36.2269 18.4711C36.0334 18.8215 35.7771 19.0803 35.4485 19.2673L35.9432 20.1364ZM37.1023 18.9545L37.9777 19.438C38.3543 18.756 38.5205 17.9893 38.5113 17.1706L37.5114 17.1818L36.5114 17.1931C36.5174 17.7228 36.4109 18.138 36.2269 18.4711L37.1023 18.9545ZM37.5114 17.1818L38.5113 17.1929C38.5205 16.3694 38.3554 15.5994 37.9746 14.9201L37.1023 15.4091L36.23 15.8981C36.4098 16.2188 36.5174 16.6306 36.5114 17.1707L37.5114 17.1818ZM37.1023 15.4091L37.9777 14.9257C37.6093 14.2587 37.0897 13.7305 36.4277 13.3638L35.9432 14.2386L35.4587 15.1134C35.7815 15.2922 36.0346 15.5443 36.2269 15.8925L37.1023 15.4091ZM35.9432 14.2386L36.4379 13.3696C35.7751 12.9923 35.032 12.8182 34.2386 12.8182V13.8182V14.8182C34.7332 14.8182 35.1264 14.9244 35.4485 15.1077L35.9432 14.2386ZM34.2386 13.8182V12.8182C33.4007 12.8182 32.6114 13.0251 31.889 13.4393L32.3864 14.3068L32.8837 15.1743C33.2977 14.937 33.7432 14.8182 34.2386 14.8182V13.8182ZM32.3864 14.3068L31.8928 13.4371C31.157 13.8547 30.5971 14.4516 30.2415 15.2135L31.1477 15.6364L32.0539 16.0592C32.2287 15.6848 32.4945 15.3953 32.88 15.1765L32.3864 14.3068ZM31.1477 15.6364L31.3407 14.6552L25.7953 13.5643L25.6023 14.5455L25.4093 15.5266L30.9547 16.6176L31.1477 15.6364ZM25.6023 14.5455L26.5998 14.6162L27.5089 1.79802L26.5114 1.72727L25.5139 1.65653L24.6048 14.4747L25.6023 14.5455ZM26.5114 1.72727V2.72727H42.1477V1.72727V0.727272H26.5114V1.72727ZM42.1477 1.72727H41.1477V6.77273H42.1477H43.1477V1.72727H42.1477ZM42.1477 6.77273V5.77273H31.6932V6.77273V7.77273H42.1477V6.77273ZM31.6932 6.77273L30.6971 6.68458L30.2425 11.8209L31.2386 11.9091L32.2347 11.9972L32.6893 6.86088L31.6932 6.77273ZM31.2386 11.9091V12.9091H31.375V11.9091V10.9091H31.2386V11.9091ZM31.375 11.9091L32.2636 12.3677C32.5093 11.8917 32.9611 11.44 33.7206 11.0474L33.2614 10.1591L32.8021 9.27077C31.7738 9.80239 30.968 10.5174 30.4864 11.4504L31.375 11.9091ZM33.2614 10.1591L33.7265 11.0443C34.4544 10.6619 35.3276 10.4545 36.375 10.4545V9.45455V8.45455C35.0588 8.45455 33.8562 8.7169 32.7962 9.27385L33.2614 10.1591ZM36.375 9.45455V10.4545C37.6001 10.4545 38.655 10.737 39.5686 11.2801L40.0795 10.4205L40.5905 9.56085C39.3374 8.81599 37.9227 8.45455 36.375 8.45455V9.45455ZM40.0795 10.4205L39.5712 11.2816C40.5044 11.8325 41.2394 12.5907 41.7841 13.5751L42.6591 13.0909L43.5341 12.6068C42.8212 11.3184 41.8365 10.2963 40.5879 9.55929L40.0795 10.4205ZM42.6591 13.0909L41.788 13.582C42.3276 14.5392 42.6091 15.6667 42.6023 16.9949L43.6023 17L44.6023 17.0051C44.6106 15.3788 44.2633 13.9002 43.5302 12.5998L42.6591 13.0909ZM43.6023 17L42.6023 17.0047C42.6091 18.4566 42.2653 19.7081 41.5935 20.7909L42.4432 21.3182L43.2929 21.8454C44.1816 20.4131 44.6106 18.7859 44.6023 16.9953L43.6023 17ZM42.4432 21.3182L41.5926 20.7924C40.9231 21.8753 39.9786 22.7348 38.7288 23.3698L39.1818 24.2614L39.6348 25.1529C41.188 24.3637 42.4178 23.261 43.2938 21.844L42.4432 21.3182ZM39.1818 24.2614L38.7327 23.3679C37.4965 23.9893 36.0086 24.3182 34.2386 24.3182V25.3182V26.3182C36.2566 26.3182 38.0641 25.9425 39.631 25.1548L39.1818 24.2614Z" fill="#72383D" fill-opacity="0.4" mask="url(#path-1-outside-1_1_3875)"/>
</svg>
