<svg width="82" height="49" viewBox="0 0 82 49" fill="none" xmlns="http://www.w3.org/2000/svg">
<mask id="path-1-outside-1_1_246" maskUnits="userSpaceOnUse" x="-0.429688" y="0" width="83" height="49" fill="black">
<rect fill="white" x="-0.429688" width="83" height="49"/>
<path d="M20.4737 47.1932C16.5107 47.179 13.0874 46.2628 10.2038 44.4446C7.32031 42.6264 5.0973 40.0057 3.5348 36.5824C1.9723 33.1591 1.19815 29.054 1.21236 24.267C1.22656 19.4659 2.00781 15.3892 3.55611 12.0369C5.11861 8.68466 7.33452 6.13494 10.2038 4.38778C13.0874 2.64062 16.5107 1.76704 20.4737 1.76704C24.4368 1.76704 27.8601 2.64773 30.7436 4.40909C33.6271 6.15625 35.8501 8.70596 37.4126 12.0582C38.9751 15.4105 39.7493 19.4801 39.7351 24.267C39.7351 29.0824 38.9538 33.2017 37.3913 36.625C35.8288 40.0483 33.6058 42.669 30.7223 44.4872C27.853 46.2912 24.4368 47.1932 20.4737 47.1932ZM20.4737 37.5625C22.5192 37.5625 24.1953 36.4972 25.5021 34.3665C26.8232 32.2216 27.4766 28.8551 27.4624 24.267C27.4624 21.2699 27.1641 18.8196 26.5675 16.9162C25.9709 15.0128 25.147 13.6065 24.0959 12.6974C23.0447 11.7741 21.8374 11.3125 20.4737 11.3125C18.4283 11.3125 16.7592 12.3494 15.4666 14.4233C14.174 16.4972 13.5135 19.7784 13.4851 24.267C13.4709 27.321 13.7621 29.8352 14.3587 31.8097C14.9553 33.7699 15.7791 35.2188 16.8303 36.1562C17.8956 37.0938 19.1101 37.5625 20.4737 37.5625ZM63.5348 46.5966C60.9922 46.5966 58.5774 46.1989 56.2905 45.4034C54.0178 44.5937 52.0007 43.3224 50.2393 41.5895C48.478 39.8565 47.093 37.598 46.0845 34.8139C45.0902 32.0298 44.6001 28.6562 44.6143 24.6932C44.6286 21.1562 45.0831 17.9744 45.978 15.1477C46.8871 12.321 48.1726 9.91335 49.8345 7.92472C51.5107 5.93608 53.5135 4.41619 55.843 3.36505C58.1726 2.29971 60.7649 1.76704 63.62 1.76704C66.8303 1.76704 69.657 2.38494 72.1001 3.62074C74.5433 4.85653 76.4893 6.51136 77.9382 8.58523C79.4013 10.6449 80.2536 12.9176 80.495 15.4034H68.8189C68.549 14.1676 67.924 13.2656 66.9439 12.6974C65.978 12.1151 64.87 11.8239 63.62 11.8239C61.1342 11.8239 59.3089 12.9034 58.1442 15.0625C56.9936 17.2216 56.4041 20.0625 56.3757 23.5852H56.6314C57.1854 22.25 58.0234 21.1065 59.1456 20.1548C60.2678 19.2031 61.5746 18.4716 63.0661 17.9602C64.5575 17.4489 66.1342 17.1932 67.7962 17.1932C70.4382 17.1932 72.7464 17.7898 74.7209 18.983C76.7095 20.1761 78.2578 21.8097 79.3658 23.8835C80.4737 25.9574 81.0206 28.3295 81.0064 31C81.0206 34.125 80.282 36.8594 78.7905 39.2031C77.3132 41.5469 75.2607 43.3651 72.6328 44.6577C70.005 45.9503 66.9723 46.5966 63.5348 46.5966ZM63.4496 37.6477C64.6286 37.6477 65.6726 37.3778 66.5817 36.8381C67.505 36.2983 68.2223 35.5597 68.7337 34.6222C69.2592 33.6847 69.5149 32.6193 69.5007 31.4261C69.5149 30.2187 69.2592 29.1534 68.7337 28.2301C68.2223 27.2926 67.505 26.554 66.5817 26.0142C65.6726 25.4744 64.6286 25.2045 63.4496 25.2045C62.5831 25.2045 61.7805 25.3608 61.0419 25.6733C60.3175 25.9716 59.6854 26.4048 59.1456 26.973C58.6058 27.527 58.1797 28.1875 57.8672 28.9545C57.5689 29.7074 57.4126 30.5312 57.3984 31.4261C57.4126 32.6193 57.6825 33.6847 58.2081 34.6222C58.7337 35.5597 59.451 36.2983 60.3601 36.8381C61.2692 37.3778 62.299 37.6477 63.4496 37.6477Z"/>
</mask>
<path d="M20.4737 47.1932L20.4701 48.1932H20.4737V47.1932ZM10.2038 44.4446L9.67047 45.2905L10.2038 44.4446ZM3.5348 36.5824L2.62508 36.9976L3.5348 36.5824ZM1.21236 24.267L2.21235 24.27V24.27L1.21236 24.267ZM3.55611 12.0369L2.64972 11.6145L2.64826 11.6176L3.55611 12.0369ZM10.2038 4.38778L9.68563 3.53253L9.68375 3.53367L10.2038 4.38778ZM30.7436 4.40909L30.2223 5.26248L30.2254 5.26435L30.7436 4.40909ZM37.4126 12.0582L38.319 11.6358L37.4126 12.0582ZM39.7351 24.267L38.7351 24.2641V24.267H39.7351ZM37.3913 36.625L38.3011 37.0402L37.3913 36.625ZM30.7223 44.4872L31.2546 45.3338L31.2557 45.3331L30.7223 44.4872ZM25.5021 34.3665L24.6507 33.8421L24.6497 33.8436L25.5021 34.3665ZM27.4624 24.267H26.4624L26.4624 24.2701L27.4624 24.267ZM26.5675 16.9162L27.5217 16.6171L26.5675 16.9162ZM24.0959 12.6974L23.4359 13.4488L23.4417 13.4538L24.0959 12.6974ZM15.4666 14.4233L14.618 13.8943L15.4666 14.4233ZM13.4851 24.267L12.4851 24.2607L12.4851 24.2624L13.4851 24.267ZM14.3587 31.8097L13.4014 32.0989L13.402 32.1008L14.3587 31.8097ZM16.8303 36.1562L16.1646 36.9026L16.1696 36.907L16.8303 36.1562ZM20.4737 47.1932L20.4773 46.1932C16.6707 46.1795 13.4377 45.3015 10.7372 43.5987L10.2038 44.4446L9.67047 45.2905C12.737 47.2241 16.3506 48.1784 20.4701 48.1932L20.4737 47.1932ZM10.2038 44.4446L10.7372 43.5987C8.0353 41.8951 5.9349 39.4324 4.44452 36.1672L3.5348 36.5824L2.62508 36.9976C4.25971 40.5789 6.60533 43.3578 9.67047 45.2905L10.2038 44.4446ZM3.5348 36.5824L4.44452 36.1672C2.9559 32.9057 2.19846 28.9506 2.21235 24.27L1.21236 24.267L0.212363 24.2641C0.197842 29.1574 0.988706 33.4125 2.62508 36.9976L3.5348 36.5824ZM1.21236 24.267L2.21235 24.27C2.22626 19.5713 2.99118 15.645 4.46395 12.4562L3.55611 12.0369L2.64826 11.6176C1.02444 15.1334 0.22687 19.3605 0.212363 24.2641L1.21236 24.267ZM3.55611 12.0369L4.46249 12.4594C5.95039 9.26717 8.04001 6.87616 10.7239 5.2419L10.2038 4.38778L9.68375 3.53367C6.62902 5.39373 4.28683 8.10215 2.64973 11.6145L3.55611 12.0369ZM10.2038 4.38778L10.722 5.24304C13.4237 3.60607 16.6609 2.76704 20.4737 2.76704V1.76704V0.767044C16.3604 0.767044 12.751 1.67518 9.68563 3.53253L10.2038 4.38778ZM20.4737 1.76704V2.76704C24.2851 2.76704 27.5212 3.6125 30.2223 5.26248L30.7436 4.40909L31.2649 3.55571C28.199 1.68295 24.5885 0.767044 20.4737 0.767044V1.76704ZM30.7436 4.40909L30.2254 5.26435C32.9232 6.89895 35.019 9.28979 36.5063 12.4807L37.4126 12.0582L38.319 11.6358C36.6813 8.12213 34.3311 5.41354 31.2618 3.55384L30.7436 4.40909ZM37.4126 12.0582L36.5063 12.4807C37.9912 15.6666 38.749 19.5825 38.7351 24.2641L39.7351 24.267L40.7351 24.27C40.7496 19.3777 39.9591 15.1544 38.319 11.6358L37.4126 12.0582ZM39.7351 24.267H38.7351C38.7351 28.9777 37.9704 32.9479 36.4816 36.2098L37.3913 36.625L38.3011 37.0402C39.9372 33.4555 40.7351 29.1871 40.7351 24.267H39.7351ZM37.3913 36.625L36.4816 36.2098C34.9912 39.4751 32.8908 41.9377 30.1889 43.6413L30.7223 44.4872L31.2557 45.3331C34.3208 43.4004 36.6664 40.6215 38.3011 37.0402L37.3913 36.625ZM30.7223 44.4872L30.19 43.6406C27.5055 45.3284 24.2809 46.1932 20.4737 46.1932V47.1932V48.1932C24.5927 48.1932 28.2004 47.254 31.2546 45.3338L30.7223 44.4872ZM20.4737 37.5625V38.5625C22.948 38.5625 24.9128 37.2401 26.3546 34.8893L25.5021 34.3665L24.6497 33.8436C23.4779 35.7542 22.0903 36.5625 20.4737 36.5625V37.5625ZM25.5021 34.3665L26.3536 34.8909C27.8236 32.504 28.4767 28.907 28.4624 24.264L27.4624 24.267L26.4624 24.2701C26.4764 28.8032 25.8227 31.9392 24.6507 33.8421L25.5021 34.3665ZM27.4624 24.267H28.4624C28.4624 21.214 28.1598 18.6529 27.5217 16.6171L26.5675 16.9162L25.6132 17.2153C26.1683 18.9863 26.4624 21.3257 26.4624 24.267H27.4624ZM26.5675 16.9162L27.5217 16.6171C26.8924 14.6095 25.9902 13.0137 24.75 11.9411L24.0959 12.6974L23.4417 13.4538C24.3038 14.1994 25.0493 15.4161 25.6132 17.2153L26.5675 16.9162ZM24.0959 12.6974L24.7558 11.9461C23.5274 10.8671 22.0871 10.3125 20.4737 10.3125V11.3125V12.3125C21.5876 12.3125 22.5621 12.6812 23.4359 13.4488L24.0959 12.6974ZM20.4737 11.3125V10.3125C18.0114 10.3125 16.0518 11.594 14.618 13.8943L15.4666 14.4233L16.3153 14.9522C17.4667 13.1049 18.8452 12.3125 20.4737 12.3125V11.3125ZM15.4666 14.4233L14.618 13.8943C13.1756 16.2084 12.5138 19.7193 12.4851 24.2607L13.4851 24.267L14.4851 24.2734C14.5131 19.8375 15.1724 16.7859 16.3153 14.9522L15.4666 14.4233ZM13.4851 24.267L12.4851 24.2624C12.4706 27.3729 12.7658 29.9953 13.4014 32.0989L14.3587 31.8097L15.3159 31.5204C14.7584 29.6752 14.4711 27.2691 14.4851 24.2717L13.4851 24.267ZM14.3587 31.8097L13.402 32.1008C14.0291 34.1615 14.9279 35.7995 16.1646 36.9025L16.8303 36.1562L17.4959 35.41C16.6304 34.638 15.8814 33.3783 15.3153 31.5185L14.3587 31.8097ZM16.8303 36.1562L16.1696 36.907C17.4094 37.998 18.8563 38.5625 20.4737 38.5625V37.5625V36.5625C19.3639 36.5625 18.3818 36.1895 17.4909 35.4055L16.8303 36.1562ZM56.2905 45.4034L55.9549 46.3454L55.962 46.3479L56.2905 45.4034ZM50.2393 41.5895L50.9407 40.8767L50.2393 41.5895ZM46.0845 34.8139L45.1428 35.1503L45.1443 35.1545L46.0845 34.8139ZM44.6143 24.6932L43.6144 24.6892V24.6896L44.6143 24.6932ZM45.978 15.1477L45.026 14.8416L45.0246 14.8459L45.978 15.1477ZM49.8345 7.92472L49.0699 7.28024L49.0672 7.28345L49.8345 7.92472ZM55.843 3.36505L56.2543 4.27657L56.2589 4.27447L55.843 3.36505ZM77.9382 8.58523L77.1184 9.15795L77.123 9.16434L77.9382 8.58523ZM80.495 15.4034V16.4034H81.5969L81.4903 15.3067L80.495 15.4034ZM68.8189 15.4034L67.8419 15.6168L68.0137 16.4034H68.8189V15.4034ZM66.9439 12.6974L66.4275 13.5538L66.4349 13.5583L66.4424 13.5626L66.9439 12.6974ZM58.1442 15.0625L57.2641 14.5877L57.2617 14.5922L58.1442 15.0625ZM56.3757 23.5852L55.3757 23.5772L55.3676 24.5852H56.3757V23.5852ZM56.6314 23.5852V24.5852H57.2992L57.555 23.9684L56.6314 23.5852ZM59.1456 20.1548L59.7924 20.9175L59.1456 20.1548ZM63.0661 17.9602L63.3904 18.9062L63.0661 17.9602ZM74.7209 18.983L74.2037 19.8388L74.2064 19.8404L74.7209 18.983ZM81.0064 31L80.0064 30.9947L80.0064 31.0045L81.0064 31ZM78.7905 39.2031L77.9468 38.6662L77.9445 38.6699L78.7905 39.2031ZM72.6328 44.6577L72.1914 43.7604L72.6328 44.6577ZM66.5817 36.8381L66.077 35.9748L66.0711 35.9782L66.5817 36.8381ZM68.7337 34.6222L67.8613 34.1331L67.8558 34.1433L68.7337 34.6222ZM69.5007 31.4261L68.5008 31.4144L68.5006 31.4262L68.5008 31.438L69.5007 31.4261ZM68.7337 28.2301L67.8558 28.709L67.8601 28.7169L67.8646 28.7248L68.7337 28.2301ZM66.5817 26.0142L66.0711 26.8741L66.077 26.8775L66.5817 26.0142ZM61.0419 25.6733L61.4227 26.598L61.4315 26.5943L61.0419 25.6733ZM59.1456 26.973L59.8619 27.6709L59.8706 27.6618L59.1456 26.973ZM57.8672 28.9545L56.9411 28.5772L56.9375 28.5862L57.8672 28.9545ZM57.3984 31.4261L56.3986 31.4103L56.3983 31.4242L56.3985 31.438L57.3984 31.4261ZM58.2081 34.6222L57.3358 35.1112L58.2081 34.6222ZM60.3601 36.8381L60.8706 35.9782L60.3601 36.8381ZM63.5348 46.5966V45.5966C61.0984 45.5966 58.7951 45.2158 56.619 44.4589L56.2905 45.4034L55.962 46.3479C58.3597 47.1819 60.886 47.5966 63.5348 47.5966V46.5966ZM56.2905 45.4034L56.6261 44.4614C54.4939 43.7018 52.6008 42.51 50.9407 40.8767L50.2393 41.5895L49.538 42.3023C51.4006 44.1348 53.5416 45.4857 55.9549 46.3454L56.2905 45.4034ZM50.2393 41.5895L50.9407 40.8767C49.3048 39.2671 47.9924 37.1446 47.0247 34.4733L46.0845 34.8139L45.1443 35.1545C46.1937 38.0515 47.6512 40.4459 49.538 42.3023L50.2393 41.5895ZM46.0845 34.8139L47.0263 34.4776C46.0816 31.8327 45.6004 28.581 45.6143 24.6968L44.6143 24.6932L43.6144 24.6896C43.5999 28.7315 44.0988 32.227 45.1428 35.1503L46.0845 34.8139ZM44.6143 24.6932L45.6143 24.6972C45.6282 21.2424 46.0722 18.1634 46.9313 15.4495L45.978 15.1477L45.0246 14.8459C44.094 17.7854 43.6289 21.0701 43.6144 24.6892L44.6143 24.6932ZM45.978 15.1477L46.93 15.4539C47.8053 12.732 49.0336 10.4425 50.6018 8.56598L49.8345 7.92472L49.0672 7.28345C47.3116 9.38419 45.9688 11.91 45.026 14.8416L45.978 15.1477ZM49.8345 7.92472L50.5991 8.56919C52.1807 6.69277 54.0635 5.2651 56.2543 4.27656L55.843 3.36505L55.4318 2.45355C52.9635 3.56728 50.8406 5.17939 49.0699 7.28024L49.8345 7.92472ZM55.843 3.36505L56.2589 4.27447C58.4437 3.27534 60.8919 2.76704 63.62 2.76704V1.76704V0.767044C60.6379 0.767044 57.9015 1.32409 55.4272 2.45564L55.843 3.36505ZM63.62 1.76704V2.76704C66.7004 2.76704 69.3678 3.35931 71.6488 4.51308L72.1001 3.62074L72.5515 2.72839C69.9462 1.41057 66.9601 0.767044 63.62 0.767044V1.76704ZM72.1001 3.62074L71.6488 4.51308C73.9571 5.68065 75.7718 7.23036 77.1185 9.15793L77.9382 8.58523L78.758 8.01252C77.2069 5.79236 75.1296 4.03241 72.5515 2.72839L72.1001 3.62074ZM77.9382 8.58523L77.123 9.16434C78.4862 11.0834 79.2753 13.1902 79.4997 15.5001L80.495 15.4034L81.4903 15.3067C81.2318 12.6451 80.3164 10.2064 78.7535 8.00612L77.9382 8.58523ZM80.495 15.4034V14.4034H68.8189V15.4034V16.4034H80.495V15.4034ZM68.8189 15.4034L69.7959 15.19C69.4738 13.7154 68.6983 12.5586 67.4454 11.8323L66.9439 12.6974L66.4424 13.5626C67.1497 13.9727 67.6242 14.6199 67.8419 15.6168L68.8189 15.4034ZM66.9439 12.6974L67.4602 11.8411C66.322 11.1548 65.0317 10.8239 63.62 10.8239V11.8239V12.8239C64.7083 12.8239 65.634 13.0753 66.4275 13.5538L66.9439 12.6974ZM63.62 11.8239V10.8239C62.2292 10.8239 60.9692 11.1272 59.8777 11.7728C58.7854 12.4188 57.919 13.3737 57.2641 14.5877L58.1442 15.0625L59.0243 15.5373C59.5341 14.5922 60.1628 13.9278 60.8958 13.4942C61.6295 13.0603 62.5251 12.8239 63.62 12.8239V11.8239ZM58.1442 15.0625L57.2617 14.5922C56.0093 16.9424 55.4049 19.9593 55.3757 23.5772L56.3757 23.5852L57.3757 23.5933C57.4033 20.1657 57.978 17.5008 59.0267 15.5328L58.1442 15.0625ZM56.3757 23.5852V24.5852H56.6314V23.5852V22.5852H56.3757V23.5852ZM56.6314 23.5852L57.555 23.9684C58.0471 22.7826 58.7891 21.7684 59.7924 20.9175L59.1456 20.1548L58.4988 19.3922C57.2578 20.4447 56.3237 21.7174 55.7077 23.202L56.6314 23.5852ZM59.1456 20.1548L59.7924 20.9175C60.8128 20.0521 62.0084 19.38 63.3904 18.9062L63.0661 17.9602L62.7417 17.0143C61.1408 17.5632 59.7227 18.3542 58.4988 19.3922L59.1456 20.1548ZM63.0661 17.9602L63.3904 18.9062C64.7719 18.4325 66.2386 18.1932 67.7962 18.1932V17.1932V16.1932C66.0299 16.1932 64.3431 16.4652 62.7417 17.0143L63.0661 17.9602ZM67.7962 17.1932V18.1932C70.2829 18.1932 72.4069 18.753 74.2037 19.8388L74.7209 18.983L75.2381 18.1271C73.086 16.8266 70.5935 16.1932 67.7962 16.1932V17.1932ZM74.7209 18.983L74.2064 19.8404C76.0376 20.9392 77.4598 22.4382 78.4837 24.3547L79.3658 23.8835L80.2478 23.4123C79.0558 21.1811 77.3815 19.4131 75.2354 18.1255L74.7209 18.983ZM79.3658 23.8835L78.4837 24.3547C79.5033 26.2631 80.0199 28.4676 80.0064 30.9947L81.0064 31L82.0064 31.0053C82.0213 28.1915 81.4441 25.6516 80.2478 23.4123L79.3658 23.8835ZM81.0064 31L80.0064 31.0045C80.0199 33.9625 79.3229 36.5039 77.9468 38.6662L78.7905 39.2031L79.6341 39.74C81.2411 37.2149 82.0213 34.2875 82.0064 30.9955L81.0064 31ZM78.7905 39.2031L77.9445 38.6699C76.5716 40.8481 74.6632 42.5445 72.1914 43.7604L72.6328 44.6577L73.0742 45.555C75.8581 44.1856 78.0549 42.2456 79.6365 39.7363L78.7905 39.2031ZM72.6328 44.6577L72.1914 43.7604C69.7228 44.9746 66.8457 45.5966 63.5348 45.5966V46.5966V47.5966C67.0989 47.5966 70.2871 46.9259 73.0742 45.555L72.6328 44.6577ZM63.4496 37.6477V38.6477C64.787 38.6477 66.0114 38.3397 67.0922 37.6979L66.5817 36.8381L66.0711 35.9782C65.3338 36.416 64.4701 36.6477 63.4496 36.6477V37.6477ZM66.5817 36.8381L67.0864 37.7014C68.1665 37.0699 69.0129 36.1985 69.6116 35.101L68.7337 34.6222L67.8558 34.1433C67.4317 34.9208 66.8435 35.5267 66.077 35.9748L66.5817 36.8381ZM68.7337 34.6222L69.6059 35.1112C70.2264 34.0044 70.5167 32.7629 70.5006 31.4142L69.5007 31.4261L68.5008 31.438C68.5131 32.4757 68.2921 33.3649 67.8614 34.1332L68.7337 34.6222ZM69.5007 31.4261L70.5006 31.4379C70.5166 30.0778 70.2275 28.8331 69.6027 27.7354L68.7337 28.2301L67.8646 28.7248C68.2909 29.4738 68.5132 30.3597 68.5008 31.4144L69.5007 31.4261ZM68.7337 28.2301L69.6116 27.7513C69.0129 26.6538 68.1665 25.7823 67.0864 25.1509L66.5817 26.0142L66.077 26.8775C66.8435 27.3256 67.4317 27.9314 67.8558 28.709L68.7337 28.2301ZM66.5817 26.0142L67.0922 25.1544C66.0113 24.5126 64.787 24.2045 63.4496 24.2045V25.2045V26.2045C64.4701 26.2045 65.3338 26.4363 66.0711 26.8741L66.5817 26.0142ZM63.4496 25.2045V24.2045C62.4601 24.2045 61.5238 24.3836 60.6523 24.7523L61.0419 25.6733L61.4315 26.5943C62.0373 26.338 62.7061 26.2045 63.4496 26.2045V25.2045ZM61.0419 25.6733L60.6612 24.7486C59.8066 25.1005 59.0572 25.6141 58.4206 26.2843L59.1456 26.973L59.8706 27.6618C60.3135 27.1955 60.8283 26.8427 61.4227 26.598L61.0419 25.6733ZM59.1456 26.973L58.4294 26.2751C57.7934 26.9278 57.2988 27.6994 56.9411 28.5772L57.8672 28.9545L58.7933 29.3318C59.0606 28.6756 59.4182 28.1261 59.8618 27.6709L59.1456 26.973ZM57.8672 28.9545L56.9375 28.5862C56.5903 29.4625 56.4145 30.4073 56.3986 31.4103L57.3984 31.4261L58.3983 31.442C58.4108 30.6552 58.5475 29.9522 58.7969 29.3229L57.8672 28.9545ZM57.3984 31.4261L56.3985 31.438C56.4145 32.7796 56.7198 34.0122 57.3358 35.1112L58.2081 34.6222L59.0804 34.1332C58.6453 33.3571 58.4108 32.459 58.3984 31.4142L57.3984 31.4261ZM58.2081 34.6222L57.3358 35.1112C57.9458 36.1992 58.7868 37.0669 59.8495 37.6979L60.3601 36.8381L60.8706 35.9782C60.1152 35.5297 59.5215 34.9201 59.0804 34.1332L58.2081 34.6222ZM60.3601 36.8381L59.8495 37.6979C60.9266 38.3374 62.1357 38.6477 63.4496 38.6477V37.6477V36.6477C62.4623 36.6477 61.6117 36.4182 60.8706 35.9782L60.3601 36.8381Z" fill="#72383D" fill-opacity="0.4" mask="url(#path-1-outside-1_1_246)"/>
</svg>
