<svg width="45" height="27" viewBox="0 0 45 27" fill="none" xmlns="http://www.w3.org/2000/svg">
<mask id="path-1-outside-1_1_3881" maskUnits="userSpaceOnUse" x="0" y="0" width="45" height="27" fill="black">
<rect fill="white" width="45" height="27"/>
<path d="M11.6818 25.6364C9.56818 25.6288 7.74242 25.1402 6.20455 24.1705C4.66667 23.2008 3.48106 21.803 2.64773 19.9773C1.81439 18.1515 1.40152 15.9621 1.40909 13.4091C1.41667 10.8485 1.83333 8.67424 2.65909 6.88636C3.49242 5.09848 4.67424 3.73864 6.20455 2.80682C7.74242 1.875 9.56818 1.40909 11.6818 1.40909C13.7955 1.40909 15.6212 1.87879 17.1591 2.81818C18.697 3.75 19.8826 5.10985 20.7159 6.89773C21.5492 8.68561 21.9621 10.8561 21.9545 13.4091C21.9545 15.9773 21.5379 18.1742 20.7045 20C19.8712 21.8258 18.6856 23.2235 17.1477 24.1932C15.6174 25.1553 13.7955 25.6364 11.6818 25.6364ZM11.6818 20.5C12.7727 20.5 13.6667 19.9318 14.3636 18.7955C15.0682 17.6515 15.4167 15.8561 15.4091 13.4091C15.4091 11.8106 15.25 10.5038 14.9318 9.48864C14.6136 8.47348 14.1742 7.72348 13.6136 7.23864C13.053 6.74621 12.4091 6.5 11.6818 6.5C10.5909 6.5 9.70076 7.05303 9.01136 8.15909C8.32197 9.26515 7.9697 11.0152 7.95455 13.4091C7.94697 15.0379 8.10227 16.3788 8.42045 17.4318C8.73864 18.4773 9.17803 19.25 9.73864 19.75C10.3068 20.25 10.9545 20.5 11.6818 20.5ZM34.6477 25.3182C33.2917 25.3182 32.0038 25.1061 30.7841 24.6818C29.572 24.25 28.4962 23.572 27.5568 22.6477C26.6174 21.7235 25.8788 20.5189 25.3409 19.0341C24.8106 17.5492 24.5492 15.75 24.5568 13.6364C24.5644 11.75 24.8068 10.053 25.2841 8.54545C25.7689 7.03788 26.4545 5.75379 27.3409 4.69318C28.2348 3.63258 29.303 2.82197 30.5455 2.26136C31.7879 1.69318 33.1705 1.40909 34.6932 1.40909C36.4053 1.40909 37.9129 1.73864 39.2159 2.39773C40.5189 3.05682 41.5568 3.93939 42.3295 5.04545C43.1098 6.14394 43.5644 7.35606 43.6932 8.68182H37.4659C37.322 8.02273 36.9886 7.54167 36.4659 7.23864C35.9508 6.92803 35.3598 6.77273 34.6932 6.77273C33.3674 6.77273 32.3939 7.34848 31.7727 8.5C31.1591 9.65151 30.8447 11.1667 30.8295 13.0455H30.9659C31.2614 12.3333 31.7083 11.7235 32.3068 11.2159C32.9053 10.7083 33.6023 10.3182 34.3977 10.0455C35.1932 9.77273 36.0341 9.63636 36.9205 9.63636C38.3295 9.63636 39.5606 9.95455 40.6136 10.5909C41.6742 11.2273 42.5 12.0985 43.0909 13.2045C43.6818 14.3106 43.9735 15.5758 43.9659 17C43.9735 18.6667 43.5795 20.125 42.7841 21.375C41.9962 22.625 40.9015 23.5947 39.5 24.2841C38.0985 24.9735 36.4811 25.3182 34.6477 25.3182ZM34.6023 20.5455C35.2311 20.5455 35.7879 20.4015 36.2727 20.1136C36.7652 19.8258 37.1477 19.4318 37.4205 18.9318C37.7008 18.4318 37.8371 17.8636 37.8295 17.2273C37.8371 16.5833 37.7008 16.0152 37.4205 15.5227C37.1477 15.0227 36.7652 14.6288 36.2727 14.3409C35.7879 14.053 35.2311 13.9091 34.6023 13.9091C34.1402 13.9091 33.7121 13.9924 33.3182 14.1591C32.9318 14.3182 32.5947 14.5492 32.3068 14.8523C32.0189 15.1477 31.7917 15.5 31.625 15.9091C31.4659 16.3106 31.3826 16.75 31.375 17.2273C31.3826 17.8636 31.5265 18.4318 31.8068 18.9318C32.0871 19.4318 32.4697 19.8258 32.9545 20.1136C33.4394 20.4015 33.9886 20.5455 34.6023 20.5455Z"/>
</mask>
<path d="M11.6818 25.6364L11.6782 26.6364H11.6818V25.6364ZM6.20455 24.1705L5.67118 25.0163L6.20455 24.1705ZM2.64773 19.9773L1.73801 20.3925L2.64773 19.9773ZM1.40909 13.4091L2.40909 13.4121V13.4121L1.40909 13.4091ZM2.65909 6.88636L1.75271 6.4639L1.75124 6.46706L2.65909 6.88636ZM6.20455 2.80682L5.68634 1.95156L5.68446 1.9527L6.20455 2.80682ZM17.1591 2.81818L16.6378 3.67157L16.6409 3.67344L17.1591 2.81818ZM20.7159 6.89773L21.6223 6.47526V6.47526L20.7159 6.89773ZM21.9545 13.4091L20.9545 13.4061V13.4091H21.9545ZM20.7045 20L21.6143 20.4152L20.7045 20ZM17.1477 24.1932L17.68 25.0398L17.6811 25.0391L17.1477 24.1932ZM14.3636 18.7955L13.5122 18.271L13.5112 18.2726L14.3636 18.7955ZM15.4091 13.4091H14.4091L14.4091 13.4122L15.4091 13.4091ZM14.9318 9.48864L15.886 9.18955L14.9318 9.48864ZM13.6136 7.23864L12.9537 7.98998L12.9595 7.995L13.6136 7.23864ZM9.01136 8.15909L8.16271 7.63014L9.01136 8.15909ZM7.95455 13.4091L6.95456 13.4028L6.95456 13.4044L7.95455 13.4091ZM8.42045 17.4318L7.4632 17.7211L7.46378 17.723L8.42045 17.4318ZM9.73864 19.75L9.07301 20.4963L9.07801 20.5007L9.73864 19.75ZM11.6818 25.6364L11.6854 24.6364C9.72827 24.6294 8.09278 24.1789 6.73791 23.3246L6.20455 24.1705L5.67118 25.0163C7.39207 26.1014 9.40809 26.6282 11.6782 26.6364L11.6818 25.6364ZM6.20455 24.1705L6.73791 23.3246C5.38165 22.4694 4.31865 21.2298 3.55745 19.562L2.64773 19.9773L1.73801 20.3925C2.64347 22.3763 3.95168 23.9321 5.67118 25.0163L6.20455 24.1705ZM2.64773 19.9773L3.55745 19.562C2.79799 17.8981 2.40183 15.8587 2.40909 13.4121L1.40909 13.4091L0.409095 13.4061C0.401204 16.0655 0.830799 18.4049 1.73801 20.3925L2.64773 19.9773ZM1.40909 13.4091L2.40909 13.4121C2.41636 10.9538 2.8167 8.93003 3.56694 7.30567L2.65909 6.88636L1.75124 6.46706C0.849965 8.41846 0.416974 10.7431 0.409095 13.4061L1.40909 13.4091ZM2.65909 6.88636L3.56547 7.30883C4.32421 5.681 5.37974 4.47985 6.72463 3.66094L6.20455 2.80682L5.68446 1.9527C3.96875 2.99742 2.66064 4.51597 1.75271 6.4639L2.65909 6.88636ZM6.20455 2.80682L6.72275 3.66207C8.07877 2.84044 9.71846 2.40909 11.6818 2.40909V1.40909V0.40909C9.4179 0.40909 7.40607 0.909555 5.68634 1.95156L6.20455 2.80682ZM11.6818 1.40909V2.40909C13.6437 2.40909 15.2823 2.84357 16.6378 3.67157L17.1591 2.81818L17.6804 1.9648C15.9601 0.914009 13.9472 0.40909 11.6818 0.40909V1.40909ZM17.1591 2.81818L16.6409 3.67344C17.993 4.4927 19.0514 5.69368 19.8095 7.32019L20.7159 6.89773L21.6223 6.47526C20.7137 4.52602 19.4009 3.00729 17.6773 1.96293L17.1591 2.81818ZM20.7159 6.89773L19.8095 7.32019C20.5653 8.9417 20.9618 10.9585 20.9545 13.4061L21.9545 13.4091L22.9545 13.4121C22.9624 10.7537 22.5332 8.42951 21.6223 6.47526L20.7159 6.89773ZM21.9545 13.4091H20.9545C20.9545 15.8726 20.5545 17.9204 19.7948 19.5848L20.7045 20L21.6143 20.4152C22.5213 18.4281 22.9545 16.0819 22.9545 13.4091H21.9545ZM20.7045 20L19.7948 19.5848C19.0336 21.2525 17.9706 22.4921 16.6144 23.3473L17.1477 24.1932L17.6811 25.0391C19.4006 23.9549 20.7088 22.399 21.6143 20.4152L20.7045 20ZM17.1477 24.1932L16.6155 23.3466C15.27 24.1925 13.6396 24.6364 11.6818 24.6364V25.6364V26.6364C13.9514 26.6364 15.9649 26.1181 17.68 25.0398L17.1477 24.1932ZM11.6818 20.5V21.5C13.2016 21.5 14.3841 20.6748 15.2161 19.3183L14.3636 18.7955L13.5112 18.2726C12.9492 19.1889 12.3439 19.5 11.6818 19.5V20.5ZM14.3636 18.7955L15.2151 19.3199C16.0687 17.934 16.4168 15.9079 16.4091 13.406L15.4091 13.4091L14.4091 13.4122C14.4165 15.8042 14.0677 17.3691 13.5122 18.271L14.3636 18.7955ZM15.4091 13.4091H16.4091C16.4091 11.7548 16.2457 10.3371 15.886 9.18955L14.9318 9.48864L13.9776 9.78772C14.2543 10.6705 14.4091 11.8664 14.4091 13.4091H15.4091ZM14.9318 9.48864L15.886 9.18955C15.5352 8.07018 15.0174 7.13061 14.2678 6.48227L13.6136 7.23864L12.9595 7.995C13.3311 8.31635 13.6921 8.87679 13.9776 9.78772L14.9318 9.48864ZM13.6136 7.23864L14.2736 6.48732C13.5357 5.83918 12.6588 5.5 11.6818 5.5V6.5V7.5C12.1594 7.5 12.5704 7.65324 12.9537 7.98995L13.6136 7.23864ZM11.6818 6.5V5.5C10.174 5.5 8.99329 6.29757 8.16271 7.63014L9.01136 8.15909L9.86001 8.68804C10.4082 7.80849 11.0078 7.5 11.6818 7.5V6.5ZM9.01136 8.15909L8.16271 7.63014C7.3236 8.97641 6.97005 10.9561 6.95457 13.4028L7.95455 13.4091L8.95452 13.4154C8.96934 11.0742 9.32034 9.55389 9.86001 8.68804L9.01136 8.15909ZM7.95455 13.4091L6.95456 13.4044C6.94672 15.0898 7.10598 16.5388 7.4632 17.7211L8.42045 17.4318L9.37771 17.1426C9.09857 16.2187 8.94722 14.986 8.95453 13.4137L7.95455 13.4091ZM8.42045 17.4318L7.46378 17.723C7.81252 18.8688 8.3268 19.8307 9.07302 20.4963L9.73864 19.75L10.4043 19.0037C10.0293 18.6693 9.66475 18.0857 9.37713 17.1407L8.42045 17.4318ZM9.73864 19.75L9.07801 20.5007C9.82063 21.1542 10.7007 21.5 11.6818 21.5V20.5V19.5C11.2084 19.5 10.793 19.3458 10.3993 18.9993L9.73864 19.75ZM30.7841 24.6818L30.4485 25.6239L30.4556 25.6263L30.7841 24.6818ZM27.5568 22.6477L28.2582 21.9349L27.5568 22.6477ZM25.3409 19.0341L24.3992 19.3704L24.4007 19.3747L25.3409 19.0341ZM24.5568 13.6364L23.5568 13.6323L23.5568 13.6328L24.5568 13.6364ZM25.2841 8.54545L24.3321 8.23929L24.3307 8.24364L25.2841 8.54545ZM27.3409 4.69318L26.5763 4.0487L26.5736 4.05192L27.3409 4.69318ZM30.5455 2.26136L30.9567 3.17288L30.9613 3.17078L30.5455 2.26136ZM39.2159 2.39773L38.7645 3.29007L39.2159 2.39773ZM42.3295 5.04545L41.5098 5.61818L41.5143 5.62456L42.3295 5.04545ZM43.6932 8.68182V9.68182H44.795L44.6885 8.58513L43.6932 8.68182ZM37.4659 8.68182L36.4889 8.89518L36.6607 9.68182H37.4659V8.68182ZM36.4659 7.23864L35.9496 8.09502L35.9569 8.09946L35.9644 8.10378L36.4659 7.23864ZM31.7727 8.5L30.8926 8.0252L30.8902 8.02971L31.7727 8.5ZM30.8295 13.0455L29.8296 13.0374L29.8214 14.0455H30.8295V13.0455ZM30.9659 13.0455V14.0455H31.6337L31.8896 13.4287L30.9659 13.0455ZM32.3068 11.2159L32.9536 11.9786L32.3068 11.2159ZM34.3977 10.0455L34.7221 10.9914L34.3977 10.0455ZM40.6136 10.5909L40.0964 11.4468L40.0991 11.4484L40.6136 10.5909ZM43.9659 17L42.9659 16.9947L42.9659 17.0045L43.9659 17ZM42.7841 21.375L41.9404 20.8381L41.9381 20.8418L42.7841 21.375ZM39.5 24.2841L39.0586 23.3868L39.5 24.2841ZM36.2727 20.1136L35.768 19.2503L35.7622 19.2538L36.2727 20.1136ZM37.4205 18.9318L36.5481 18.4428L36.5426 18.453L37.4205 18.9318ZM37.8295 17.2273L36.8296 17.2155L36.8295 17.2273L36.8296 17.2392L37.8295 17.2273ZM37.4205 15.5227L36.5426 16.0016L36.5469 16.0095L36.5514 16.0174L37.4205 15.5227ZM36.2727 14.3409L35.7622 15.2008L35.768 15.2042L36.2727 14.3409ZM33.3182 14.1591L33.6989 15.0838L33.7078 15.0801L33.3182 14.1591ZM32.3068 14.8523L33.0231 15.5502L33.0318 15.541L32.3068 14.8523ZM31.625 15.9091L30.6989 15.5318L30.6953 15.5407L31.625 15.9091ZM31.375 17.2273L30.3751 17.2114L30.3749 17.2253L30.3751 17.2392L31.375 17.2273ZM31.8068 18.9318L30.9345 19.4208L31.8068 18.9318ZM32.9545 20.1136L33.4651 19.2538V19.2538L32.9545 20.1136ZM34.6477 25.3182V24.3182C33.3979 24.3182 32.2215 24.123 31.1126 23.7373L30.7841 24.6818L30.4556 25.6263C31.7861 26.0891 33.1855 26.3182 34.6477 26.3182V25.3182ZM30.7841 24.6818L31.1197 23.7398C30.0481 23.3581 29.0964 22.7596 28.2582 21.9349L27.5568 22.6477L26.8555 23.3606C27.8961 24.3844 29.0959 25.1419 30.4485 25.6238L30.7841 24.6818ZM27.5568 22.6477L28.2582 21.9349C27.4442 21.1341 26.7781 20.0655 26.2811 18.6935L25.3409 19.0341L24.4007 19.3747C24.9795 20.9724 25.7906 22.3129 26.8555 23.3606L27.5568 22.6477ZM25.3409 19.0341L26.2827 18.6978C25.8021 17.3521 25.5495 15.6747 25.5568 13.6399L24.5568 13.6364L23.5568 13.6328C23.549 15.8253 23.8192 17.7464 24.3992 19.3704L25.3409 19.0341ZM24.5568 13.6364L25.5568 13.6404C25.5641 11.8362 25.7959 10.242 26.2375 8.84727L25.2841 8.54545L24.3307 8.24364C23.8177 9.86404 23.5647 11.6638 23.5568 13.6323L24.5568 13.6364ZM25.2841 8.54545L26.2361 8.85162C26.6872 7.44889 27.3156 6.28295 28.1082 5.33444L27.3409 4.69318L26.5736 4.05192C25.5935 5.22462 24.8507 6.62687 24.3321 8.23929L25.2841 8.54545ZM27.3409 4.69318L28.1055 5.33765C28.9049 4.38927 29.853 3.67088 30.9567 3.17287L30.5455 2.26136L30.1342 1.34986C28.753 1.97306 27.5648 2.87589 26.5763 4.04871L27.3409 4.69318ZM30.5455 2.26136L30.9613 3.17078C32.059 2.6688 33.2974 2.40909 34.6932 2.40909V1.40909V0.40909C33.0435 0.40909 31.5168 0.717559 30.1296 1.35195L30.5455 2.26136ZM34.6932 1.40909V2.40909C36.2755 2.40909 37.6237 2.71301 38.7645 3.29007L39.2159 2.39773L39.6673 1.50538C38.2021 0.764264 36.5351 0.40909 34.6932 0.40909V1.40909ZM39.2159 2.39773L38.7645 3.29007C39.9327 3.88094 40.8393 4.65839 41.5098 5.61816L42.3295 5.04545L43.1493 4.47275C42.2744 3.22039 41.1052 2.23269 39.6673 1.50538L39.2159 2.39773ZM42.3295 5.04545L41.5143 5.62456C42.1947 6.58245 42.5862 7.62862 42.6979 8.77851L43.6932 8.68182L44.6885 8.58513C44.5426 7.0835 44.025 5.70543 43.1448 4.46635L42.3295 5.04545ZM43.6932 8.68182V7.68182H37.4659V8.68182V9.68182H43.6932V8.68182ZM37.4659 8.68182L38.4429 8.46846C38.2468 7.57048 37.7629 6.83463 36.9674 6.3735L36.4659 7.23864L35.9644 8.10378C36.2144 8.24871 36.3972 8.47498 36.4889 8.89518L37.4659 8.68182ZM36.4659 7.23864L36.9823 6.38226C36.2948 5.96774 35.5216 5.77273 34.6932 5.77273V6.77273V7.77273C35.1981 7.77273 35.6067 7.88832 35.9496 8.09502L36.4659 7.23864ZM34.6932 6.77273V5.77273C33.8824 5.77273 33.1254 5.95011 32.4597 6.34382C31.7933 6.73794 31.2758 7.31497 30.8926 8.02521L31.7727 8.5L32.6528 8.97479C32.8909 8.53351 33.1707 8.2469 33.4778 8.06527C33.7856 7.88322 34.1782 7.77273 34.6932 7.77273V6.77273ZM31.7727 8.5L30.8902 8.02971C30.1747 9.37234 29.8455 11.0635 29.8296 13.0374L30.8295 13.0455L31.8295 13.0535C31.8439 11.2698 32.1434 9.93069 32.6552 8.97029L31.7727 8.5ZM30.8295 13.0455V14.0455H30.9659V13.0455V12.0455H30.8295V13.0455ZM30.9659 13.0455L31.8896 13.4287C32.1231 12.8659 32.474 12.3853 32.9536 11.9786L32.3068 11.2159L31.66 10.4533C30.9427 11.0616 30.3997 11.8008 30.0423 12.6622L30.9659 13.0455ZM32.3068 11.2159L32.9536 11.9786C33.4504 11.5573 34.0361 11.2266 34.7221 10.9914L34.3977 10.0455L34.0734 9.09951C33.1685 9.40977 32.3603 9.85938 31.66 10.4533L32.3068 11.2159ZM34.3977 10.0455L34.7221 10.9914C35.4076 10.7564 36.1384 10.6364 36.9205 10.6364V9.63636V8.63636C35.9297 8.63636 34.9788 8.78909 34.0734 9.09951L34.3977 10.0455ZM36.9205 9.63636V10.6364C38.1742 10.6364 39.221 10.9177 40.0964 11.4468L40.6136 10.5909L41.1308 9.73505C39.9002 8.99134 38.4849 8.63636 36.9205 8.63636V9.63636ZM40.6136 10.5909L40.0991 11.4484C41.0023 11.9903 41.702 12.727 42.2089 13.6758L43.0909 13.2045L43.9729 12.7333C43.298 11.47 42.3462 10.4643 41.1281 9.73342L40.6136 10.5909ZM43.0909 13.2045L42.2089 13.6758C42.7114 14.6163 42.9727 15.7138 42.9659 16.9947L43.9659 17L44.9659 17.0053C44.9742 15.4377 44.6522 14.0049 43.9729 12.7333L43.0909 13.2045ZM43.9659 17L42.9659 17.0045C42.9727 18.5042 42.6205 19.7695 41.9404 20.8381L42.7841 21.375L43.6278 21.9119C44.5386 20.4805 44.9742 18.8292 44.9659 16.9955L43.9659 17ZM42.7841 21.375L41.9381 20.8418C41.2546 21.9263 40.3041 22.7741 39.0586 23.3868L39.5 24.2841L39.9414 25.1814C41.4989 24.4153 42.7379 23.3237 43.6301 21.9082L42.7841 21.375ZM39.5 24.2841L39.0586 23.3868C37.8164 23.9978 36.3545 24.3182 34.6477 24.3182V25.3182V26.3182C36.6076 26.3182 38.3806 25.9491 39.9414 25.1814L39.5 24.2841ZM34.6023 20.5455V21.5455C35.3895 21.5455 36.1266 21.3634 36.7833 20.9735L36.2727 20.1136L35.7622 19.2538C35.4491 19.4397 35.0726 19.5455 34.6023 19.5455V20.5455ZM36.2727 20.1136L36.7774 20.9769C37.4267 20.5974 37.9384 20.0706 38.2984 19.4107L37.4205 18.9318L36.5426 18.453C36.3571 18.793 36.1037 19.0541 35.768 19.2503L36.2727 20.1136ZM37.4205 18.9318L38.2927 19.4208C38.6679 18.7515 38.8389 18.0072 38.8295 17.2154L37.8295 17.2273L36.8296 17.2392C36.8353 17.7201 36.7336 18.1121 36.5482 18.4428L37.4205 18.9318ZM37.8295 17.2273L38.8295 17.239C38.8388 16.4423 38.6691 15.6948 38.2895 15.028L37.4205 15.5227L36.5514 16.0174C36.7325 16.3355 36.8354 16.7243 36.8296 17.2155L37.8295 17.2273ZM37.4205 15.5227L38.2984 15.0439C37.9384 14.3839 37.4267 13.8572 36.7774 13.4776L36.2727 14.3409L35.768 15.2042C36.1037 15.4004 36.3571 15.6615 36.5426 16.0016L37.4205 15.5227ZM36.2727 14.3409L36.7833 13.4811C36.1266 13.0912 35.3895 12.9091 34.6023 12.9091V13.9091V14.9091C35.0726 14.9091 35.4491 15.0149 35.7622 15.2008L36.2727 14.3409ZM34.6023 13.9091V12.9091C34.0172 12.9091 33.4554 13.0152 32.9285 13.2381L33.3182 14.1591L33.7078 15.0801C33.9689 14.9696 34.2631 14.9091 34.6023 14.9091V13.9091ZM33.3182 14.1591L32.9374 13.2344C32.421 13.4471 31.9665 13.7585 31.5818 14.1635L32.3068 14.8523L33.0318 15.541C33.2229 15.3399 33.4427 15.1893 33.6989 15.0838L33.3182 14.1591ZM32.3068 14.8523L31.5906 14.1544C31.2065 14.5486 30.9107 15.0119 30.6989 15.5318L31.625 15.9091L32.5511 16.2864C32.6726 15.9881 32.8314 15.7469 33.023 15.5501L32.3068 14.8523ZM31.625 15.9091L30.6953 15.5407C30.4873 16.0658 30.3844 16.626 30.3751 17.2114L31.375 17.2273L32.3749 17.2431C32.3807 16.874 32.4445 16.5555 32.5547 16.2775L31.625 15.9091ZM31.375 17.2273L30.3751 17.2392C30.3844 18.024 30.5637 18.7594 30.9345 19.4208L31.8068 18.9318L32.6791 18.4428C32.4893 18.1042 32.3807 17.7033 32.3749 17.2154L31.375 17.2273ZM31.8068 18.9318L30.9345 19.4208C31.2993 20.0714 31.8055 20.5944 32.444 20.9735L32.9545 20.1136L33.4651 19.2538C33.1339 19.0571 32.875 18.7922 32.6791 18.4428L31.8068 18.9318ZM32.9545 20.1136L32.444 20.9735C33.0969 21.3611 33.8253 21.5455 34.6023 21.5455V20.5455V19.5455C34.1519 19.5455 33.7819 19.4419 33.4651 19.2538L32.9545 20.1136Z" fill="#72383D" fill-opacity="0.4" mask="url(#path-1-outside-1_1_3881)"/>
</svg>
